<svg width="20" height="20" viewBox="0 0 512 512" fill="none" xmlns="http://www.w3.org/2000/svg">
<path d="M312 48L256 24V72L312 48Z" fill="#E42A3C"></path>
<path d="M102.852 84.2639C99.388 79.8418 94.8209 76.4096 89.6099 74.3121C84.3988 72.2146 78.7275 71.5258 73.1658 72.3149C67.6042 73.104 62.3483 75.3432 57.9264 78.8075C53.5045 82.2717 50.0724 86.839 47.9752 92.0501C45.8779 97.2612 45.1893 102.933 45.9786 108.494C46.768 114.056 49.0074 119.312 52.4719 123.733C55.9363 128.155 60.5037 131.587 65.7149 133.684C70.9261 135.781 76.5975 136.469 82.159 135.68L114.412 176.84L139.6 157.1L107.348 115.94C109.446 110.73 110.135 105.06 109.346 99.4993C108.556 93.9387 106.317 88.6841 102.852 84.2639V84.2639Z" fill="#57A865"></path>
<path d="M115.258 216.832L176 296L224 212.931L184.526 162.554C181.286 158.419 177.263 154.963 172.688 152.383C168.112 149.803 163.073 148.149 157.859 147.517C152.644 146.884 147.356 147.285 142.296 148.696C137.236 150.107 132.504 152.501 128.369 155.741L122.069 160.675C113.719 167.219 108.31 176.811 107.033 187.343C105.756 197.874 108.714 208.482 115.258 216.832V216.832Z" fill="#57A865"></path>
<path d="M304 128H208V248H304V128Z" fill="#D78E0C"></path>
<path d="M304 192V216H272V192H240V216H208V192H176V248H336V192H304Z" fill="#ECAB2C"></path>
<path d="M336 248H176V488H336V248Z" fill="#D78E0C"></path>
<path d="M176 312H80V416H176V312Z" fill="#D78E0C"></path>
<path d="M24 488V440H48V416H176V488H24Z" fill="#ECAB2C"></path>
<path d="M256 312C264.487 312 272.626 315.371 278.627 321.373C284.629 327.374 288 335.513 288 344V408H224V344C224 335.513 227.371 327.374 233.373 321.373C239.374 315.371 247.513 312 256 312Z" fill="#B97A0A"></path>
<path d="M336 432H432V312H336V432Z" fill="#D78E0C"></path>
<path d="M304 408H208V440H304V408Z" fill="#B97A0A"></path>
<path d="M144 256V280H112V256H80V312H176V256H144Z" fill="#ECAB2C"></path>
<path d="M400 256V280H368V256H336V312H432V256H400Z" fill="#ECAB2C"></path>
<path d="M148 376H176V416H128V396C128 390.696 130.107 385.609 133.858 381.858C137.609 378.107 142.696 376 148 376Z" fill="#B97A0A"></path>
<path d="M384 424H336V376H364C369.304 376 374.391 378.107 378.142 381.858C381.893 385.609 384 390.696 384 396V424Z" fill="#B97A0A"></path>
<path d="M488 416H379.338C350.635 415.998 322.119 420.624 294.888 429.7L294.013 429.992C274.201 436.611 253.451 439.988 232.563 439.992H201.689C183.943 439.993 166.471 444.375 150.825 452.75C135.179 461.125 121.843 473.233 112 488H488V416Z" fill="#ECAB2C"></path>
<path d="M208 96L192 128H320L304 96H208Z" fill="#ECAB2C"></path>
<path d="M152 336H136V352H152V336Z" fill="black"></path>
<path d="M120 336H104V352H120V336Z" fill="black"></path>
<path d="M376 336H360V352H376V336Z" fill="black"></path>
<path d="M408 336H392V352H408V336Z" fill="black"></path>
<path d="M280 272H264V288H280V272Z" fill="black"></path>
<path d="M312 272H296V288H312V272Z" fill="black"></path>
<path d="M216 272H200V288H216V272Z" fill="black"></path>
<path d="M248 272H232V288H248V272Z" fill="black"></path>
<path d="M280 152H264V168H280V152Z" fill="black"></path>
<path d="M248 152H232V168H248V152Z" fill="black"></path>
<path d="M488 408H440V256C440 253.878 439.157 251.844 437.657 250.343C436.157 248.843 434.122 248 432 248H400C397.878 248 395.843 248.843 394.343 250.343C392.843 251.844 392 253.878 392 256V272H376V256C376 253.878 375.157 251.844 373.657 250.343C372.157 248.843 370.122 248 368 248H344V192C344 189.878 343.157 187.844 341.657 186.343C340.157 184.843 338.122 184 336 184H312V136H320C321.364 136 322.705 135.652 323.896 134.987C325.087 134.323 326.088 133.366 326.805 132.206C327.522 131.046 327.93 129.722 327.992 128.359C328.053 126.997 327.765 125.642 327.155 124.422L311.155 92.4222C310.491 91.0935 309.469 89.976 308.206 89.195C306.942 88.414 305.486 88.0002 304 88.0002H264V77.2752L315.151 55.3542C316.591 54.7377 317.818 53.7123 318.68 52.405C319.542 51.0978 320.002 49.5662 320.002 48.0002C320.002 46.4342 319.542 44.9026 318.68 43.5954C317.818 42.2881 316.591 41.2627 315.151 40.6462L259.151 16.6462C257.934 16.1248 256.607 15.9135 255.288 16.0312C253.97 16.149 252.701 16.5922 251.596 17.3211C250.49 18.0499 249.583 19.0417 248.956 20.2074C248.328 21.3731 248 22.6763 248 24.0002V88.0002H208C206.514 88.0002 205.058 88.414 203.794 89.195C202.531 89.976 201.509 91.0935 200.845 92.4222L184.845 124.422C184.235 125.642 183.947 126.997 184.008 128.359C184.07 129.722 184.478 131.046 185.195 132.206C185.912 133.366 186.913 134.323 188.104 134.987C189.295 135.652 190.636 136 192 136H200V169.332L190.822 157.62C184.693 149.818 176.299 144.103 166.793 141.26C157.287 138.417 147.134 138.585 137.727 141.741L116.285 114.378C118.465 106.271 118.039 97.6833 115.067 89.8317C112.095 81.9802 106.728 75.2628 99.7258 70.6309C92.7239 65.9991 84.4422 63.6878 76.0538 64.0242C67.6653 64.3607 59.5953 67.328 52.987 72.5057C46.3786 77.6834 41.5668 84.8092 39.2333 92.8735C36.8997 100.938 37.1626 109.532 39.9848 117.439C42.807 125.345 48.0453 132.164 54.9579 136.928C61.8704 141.692 70.1067 144.16 78.5 143.983L102.228 174.264C99.0867 182.077 98.0549 190.578 99.2364 198.915C100.418 207.252 103.771 215.132 108.959 221.764L136 256.273V272H120V256C120 253.878 119.157 251.844 117.657 250.343C116.157 248.843 114.122 248 112 248H80C77.8783 248 75.8434 248.843 74.3431 250.343C72.8429 251.844 72 253.878 72 256V408H48C45.8783 408 43.8434 408.843 42.3431 410.343C40.8429 411.844 40 413.878 40 416V432H24C21.8783 432 19.8434 432.843 18.3431 434.343C16.8429 435.844 16 437.878 16 440V488C16 490.122 16.8429 492.157 18.3431 493.657C19.8434 495.157 21.8783 496 24 496H488C490.122 496 492.157 495.157 493.657 493.657C495.157 492.157 496 490.122 496 488V416C496 413.878 495.157 411.844 493.657 410.343C492.157 408.843 490.122 408 488 408ZM264 59.8682V36.1322L291.691 48.0002L264 59.8682ZM392 408V396C391.992 388.577 389.039 381.46 383.79 376.211C378.54 370.961 371.423 368.009 364 368H344V320H424V408H392ZM280 400H232V344C232 337.635 234.529 331.531 239.029 327.03C243.53 322.529 249.635 320 256 320C262.365 320 268.47 322.529 272.971 327.03C277.471 331.531 280 337.635 280 344V400ZM288 416H296V420.941C294.785 421.327 293.569 421.711 292.358 422.114L291.482 422.406C272.487 428.756 252.591 431.995 232.563 432H216V416H288ZM304 400H296V344C296 333.392 291.786 323.217 284.284 315.716C276.783 308.214 266.609 304 256 304C245.391 304 235.217 308.214 227.716 315.716C220.214 323.217 216 333.392 216 344V400H208C205.878 400 203.843 400.843 202.343 402.343C200.843 403.844 200 405.878 200 408V432.026C194.642 432.099 189.296 432.543 184 433.353V256H328V412.839C322.636 413.859 317.303 415.039 312 416.378V408C312 405.878 311.157 403.844 309.657 402.343C308.157 400.843 306.122 400 304 400ZM168 408H136V396C136.003 392.819 137.269 389.768 139.519 387.519C141.768 385.269 144.818 384.004 148 384H168V408ZM344 384H364C367.182 384.004 370.232 385.269 372.481 387.519C374.731 389.768 375.997 392.819 376 396V408.033C365.299 408.162 354.614 408.914 344 410.286V384ZM360 264V280C360 282.122 360.843 284.157 362.343 285.657C363.843 287.157 365.878 288 368 288H400C402.122 288 404.157 287.157 405.657 285.657C407.157 284.157 408 282.122 408 280V264H424V304H344V264H360ZM328 200V240H184.23L184 239.706V200H200V216C200 218.122 200.843 220.157 202.343 221.657C203.843 223.157 205.878 224 208 224H240C242.122 224 244.157 223.157 245.657 221.657C247.157 220.157 248 218.122 248 216V200H264V216C264 218.122 264.843 220.157 266.343 221.657C267.843 223.157 269.878 224 272 224H304C306.122 224 308.157 223.157 309.657 221.657C311.157 220.157 312 218.122 312 216V200H328ZM212.944 104H299.056L307.056 120H204.944L212.944 104ZM296 136V208H280V192C280 189.878 279.157 187.844 277.657 186.343C276.157 184.843 274.122 184 272 184H240C237.878 184 235.843 184.843 234.343 186.343C232.843 187.844 232 189.878 232 192V208H216V136H296ZM88.456 130.745C87.5907 129.641 86.4503 128.784 85.1492 128.26C83.8481 127.735 82.432 127.562 81.043 127.758C75.8118 128.503 70.481 127.5 65.8778 124.906C61.2746 122.311 57.6562 118.271 55.5839 113.41C53.5117 108.549 53.1015 103.141 54.4169 98.0229C55.7323 92.9053 58.6999 88.3649 62.8591 85.1059C67.0184 81.847 72.1369 80.0518 77.4206 79.9989C82.7043 79.9459 87.8578 81.638 92.0816 84.8129C96.3054 87.9877 99.3634 92.4678 100.781 97.558C102.199 102.648 101.897 108.064 99.923 112.965C99.4007 114.267 99.2299 115.684 99.4279 117.073C99.6259 118.462 100.186 119.774 101.051 120.878L123.435 149.443L117.135 154.378C115.027 156.034 113.061 157.864 111.257 159.847L88.456 130.745ZM127.007 166.972L133.307 162.037C139.991 156.812 148.475 154.452 156.897 155.474C165.319 156.496 172.992 160.817 178.232 167.489L191.167 184H176C173.878 184 171.843 184.843 170.343 186.343C168.843 187.844 168 189.878 168 192V219.287L146.744 192.16L159.338 182.291C161.008 180.982 162.09 179.064 162.345 176.958C162.601 174.851 162.009 172.73 160.701 171.06C159.392 169.39 157.473 168.308 155.367 168.052C153.261 167.797 151.139 168.388 149.469 169.697L136.877 179.565C133.541 182.185 131.38 186.022 130.868 190.233C130.357 194.444 131.537 198.687 134.149 202.029L168 245.228V248H149.844L121.555 211.9C116.329 205.216 113.968 196.732 114.99 188.309C116.012 179.886 120.334 172.212 127.007 166.972V166.972ZM88 264H104V280C104 282.122 104.843 284.157 106.343 285.657C107.843 287.157 109.878 288 112 288H144C146.122 288 148.157 287.157 149.657 285.657C151.157 284.157 152 282.122 152 280V264H168V304H88V264ZM88 320H168V368H148C140.577 368.009 133.46 370.961 128.21 376.211C122.961 381.46 120.008 388.577 120 396V408H88V320ZM32 448H48C50.1217 448 52.1566 447.157 53.6569 445.657C55.1571 444.157 56 442.122 56 440V424H168V437C143.771 444.351 122.629 459.459 107.826 480H32V448ZM480 480H128.446C141.63 465.729 158.705 455.631 177.562 450.952C177.84 450.897 178.114 450.828 178.385 450.745C186.017 448.92 193.838 447.999 201.685 448H232.56C254.308 447.996 275.913 444.479 296.54 437.586L297.416 437.294C323.826 428.481 351.487 423.992 379.329 424H480V480Z" fill="black"></path>
<path d="M384 464C388.418 464 392 460.418 392 456C392 451.582 388.418 448 384 448C379.582 448 376 451.582 376 456C376 460.418 379.582 464 384 464Z" fill="black"></path>
<path d="M424 456C428.418 456 432 452.418 432 448C432 443.582 428.418 440 424 440C419.582 440 416 443.582 416 448C416 452.418 419.582 456 424 456Z" fill="black"></path>
<path d="M456 464C460.418 464 464 460.418 464 456C464 451.582 460.418 448 456 448C451.582 448 448 451.582 448 456C448 460.418 451.582 464 456 464Z" fill="black"></path>
<path d="M344 456C348.418 456 352 452.418 352 448C352 443.582 348.418 440 344 440C339.582 440 336 443.582 336 448C336 452.418 339.582 456 344 456Z" fill="black"></path>
<path d="M296 464C300.418 464 304 460.418 304 456C304 451.582 300.418 448 296 448C291.582 448 288 451.582 288 456C288 460.418 291.582 464 296 464Z" fill="black"></path>
</svg>