<?xml version="1.0" encoding="iso-8859-1"?>
<!-- Generator: Adobe Illustrator 21.0.0, SVG Export Plug-In . SVG Version: 6.00 Build 0)  -->
<svg version="1.1" id="Layer_1" xmlns="http://www.w3.org/2000/svg" xmlns:xlink="http://www.w3.org/1999/xlink" x="0px" y="0px"
	 viewBox="0 0 24 24" enable-background="new 0 0 24 24" xml:space="preserve">
<g>
	<path fill="#303C42" d="M22.7568359,12.0712891L16,8.0170288V6.5c0-0.1459961-0.0634766-0.284668-0.1748047-0.3793945
		L12.5,3.2704468V2H13c0.2763672,0,0.5-0.2236328,0.5-0.5S13.2763672,1,13,1h-0.5V0.5C12.5,0.2236328,12.2763672,0,12,0
		s-0.5,0.2236328-0.5,0.5V1H11c-0.2763672,0-0.5,0.2236328-0.5,0.5S10.7236328,2,11,2h0.5v1.2704468L8.1748047,6.1206055
		C8.0634766,6.215332,8,6.3540039,8,6.5v1.8848877l-6.7392578,3.6761475C1.0996094,12.1484375,1,12.3168945,1,12.5v1
		C1,13.7763672,1.2236328,14,1.5,14H2v7c0,1.1030273,0.8974609,2,2,2h4v0.5C8,23.7763672,8.2236328,24,8.5,24h7
		c0.2763672,0,0.5-0.2236328,0.5-0.5V23h4c1.1025391,0,2-0.8969727,2-2v-7h0.5c0.2763672,0,0.5-0.2236328,0.5-0.5v-1
		C23,12.3242188,22.9082031,12.1616211,22.7568359,12.0712891z M2,12.796875l6-3.2730103V13H2V12.796875z M4,22
		c-0.5517578,0-1-0.4487305-1-1v-7h5v8H4z M13,23h-2v-3c0-0.5512695,0.4482422-1,1-1s1,0.4487305,1,1V23z M15,23h-1v-3
		c0-1.1030273-0.8974609-2-2-2s-2,0.8969727-2,2v3H9V6.7299805l3-2.5712891l3,2.5712891V23z M21,21c0,0.5512695-0.4482422,1-1,1h-4
		v-8h5V21z M22,13h-6V9.1826782l6,3.6005249V13z"/>
	<path fill="#303C42" d="M10,8c0,1.1030273,0.8974609,2,2,2s2-0.8969727,2-2s-0.8974609-2-2-2S10,6.8969727,10,8z M13,8
		c0,0.5512695-0.4482422,1-1,1s-1-0.4487305-1-1s0.4482422-1,1-1S13,7.4487305,13,8z"/>
</g>
<g>
</g>
<g>
</g>
<g>
</g>
<g>
</g>
<g>
</g>
<g>
</g>
<g>
</g>
<g>
</g>
<g>
</g>
<g>
</g>
<g>
</g>
<g>
</g>
<g>
</g>
<g>
</g>
<g>
</g>
</svg>
