<svg xmlns="http://www.w3.org/2000/svg" width="25.617977768886334" height="25.16853954737543" fill="none" style=""><rect id="backgroundrect" width="100%" height="100%" x="0" y="0" fill="none" stroke="none" style="" class=""/>

<g class="currentLayer" style=""><title>Layer 1</title><path fill="#ffffff" fill-opacity="1" stroke="#000000" stroke-opacity="1" stroke-width="1" stroke-dasharray="none" stroke-linejoin="miter" stroke-linecap="butt" stroke-dashoffset="" fill-rule="nonzero" opacity="1" marker-start="" marker-mid="" marker-end="" d="M0.6715278301309144,12.448202888520163 C0.6715278301309144,5.958878546315915 6.06553318618215,0.7025258291304769 12.724799057850346,0.7025258291304769 C19.384064929518544,0.7025258291304769 24.778070285569775,5.958878546315915 24.778070285569775,12.448202888520163 C24.778070285569775,18.937527230724406 19.384064929518544,24.193879947909846 12.724799057850346,24.193879947909846 C6.06553318618215,24.193879947909846 0.6715278301309144,18.937527230724406 0.6715278301309144,12.448202888520163 z" id="svg_2" class=""/><path d="M19.91602924880742,15.04373203954962 C19.916464063882817,14.988629099090165 19.90513329456505,14.9343438963316 19.8831367672213,14.886317532129777 C19.861140239877546,14.838291167927961 19.82924527522911,14.79822202058473 19.790700197662794,14.77010442425439 L17.869840658691217,13.383095477757875 V9.159165738200446 C17.869661617189585,8.804487736167765 17.799784276837112,8.455156480640852 17.666193739259896,8.14083068900171 C17.532603201682683,7.826504897362566 17.339212802559334,7.556525650271273 17.10251993739764,7.353852506252599 V6.328535235146327 C17.102622246827153,6.163289316668036 17.07625199137203,5.999615970691436 17.02489265776011,5.846887729326653 C16.973558901505573,5.694159487961866 16.89823358403192,5.555395690412148 16.80326485609315,5.438459199185977 C16.67202743539458,5.285542249120985 16.51073661977867,5.177160552304047 16.33519921610407,5.12394469884663 V4.1269337327709 H16.846746363633116 V3.4979047320922074 H16.33519921610407 V2.868875731413514 H15.823652068575017 V3.4979047320922074 H15.31210492104597 V4.1269337327709 H15.823652068575017 V5.114509263836448 C15.604582002645701,5.184048419861478 15.41044986015843,5.3409282526307456 15.27161596431905,5.560616631117779 C15.132782068479669,5.780273558154779 15.057073090645371,6.05031570814614 15.056331347281445,6.328535235146327 V7.353852506252599 C14.81963848211975,7.556525650271273 14.626248082996403,7.826504897362566 14.49265754541919,8.14083068900171 C14.359067007841974,8.455156480640852 14.2891896674895,8.804487736167765 14.289010625987869,9.159165738200446 V11.467702170691249 L13.010142757165246,9.668679228750186 V8.530136737521753 H13.521689904694295 V7.901107736843057 H13.010142757165246 V7.272078736164367 H12.498595609636194 V7.901107736843057 H11.987048462107147 V8.530136737521753 H12.498595609636194 V9.668679228750186 L11.219727740813573,11.467702170691249 V9.159165738200446 C11.21954869931194,8.804487736167765 11.149671358959468,8.455156480640852 11.016080821382252,8.14083068900171 C10.882490283805039,7.826504897362566 10.689099884681694,7.556525650271273 10.452407019519995,7.353852506252599 V6.328535235146327 C10.451665276156081,6.05031570814614 10.375956298321775,5.780273558154779 10.237122402482393,5.560616631117779 C10.098288506643016,5.3409282526307456 9.90415636415574,5.184048419861478 9.685086298226423,5.114509263836448 V4.1269337327709 H10.196633445755472 V3.4979047320922074 H9.685086298226423 V2.868875731413514 H9.173539150697373 V3.4979047320922074 H8.661992003168322 V4.1269337327709 H9.173539150697373 V5.114509263836448 C8.998001747022785,5.167725117293868 8.836710931406863,5.276106814110807 8.705473510708291,5.429023764175795 C8.609583997903975,5.547061056153154 8.533721555925416,5.6873974262045675 8.4823622223135,5.841824045871187 C8.430977311344199,5.996250665537809 8.405093025679228,6.161685292716304 8.406218429403799,6.328535235146327 V7.353852506252599 C8.169525564242104,7.556525650271273 7.976135165118746,7.826504897362566 7.842544627541543,8.14083068900171 C7.708954089964331,8.455156480640852 7.639076749611855,8.804487736167765 7.638897708110224,9.159165738200446 V13.383095477757875 L5.718038169138647,14.77010442425439 C5.679482860629376,14.79822202058473 5.647608357866838,14.838291167927961 5.625611830523093,14.886317532129777 C5.603617860915084,14.9343438963316 5.59226918744715,14.988629099090165 5.592709117994026,15.04373203954962 V19.538144249398883 H4.825388396700452 V20.167173250077575 H20.683349970100988 V19.538144249398883 H19.91602924880742 V15.04373203954962 zM7.638897708110224,19.538144249398883 H6.104256265523076 V15.223005304743051 L7.638897708110224,14.112769118545154 V19.538144249398883 zM8.917765576932847,6.328535235146327 C8.917765576932847,6.161716744166339 8.97165706892503,6.001723217843713 9.067597736444108,5.883748828766426 C9.163538403963182,5.765774439689135 9.2936504209372,5.699506234467634 9.429312724461898,5.699506234467634 C9.564975027986602,5.699506234467634 9.695087044960612,5.765774439689135 9.79102771247969,5.883748828766426 C9.88696837999877,6.001723217843713 9.940859871990947,6.161716744166339 9.940859871990947,6.328535235146327 V7.048773440923434 C9.607075358228245,6.9263958488413895 9.25155009069555,6.9263958488413895 8.917765576932847,7.048773440923434 V6.328535235146327 zM9.685086298226423,19.538144249398883 H9.173539150697373 V17.02202824668411 H9.685086298226423 V19.538144249398883 zM10.70818059328452,19.538144249398883 H10.196633445755472 V16.707513746344766 C10.196633445755472,16.62410450085477 10.169674911080692,16.54409201196844 10.121717365999842,16.485120543154817 C10.073759820918994,16.426149074341186 10.008691023753292,16.392999246005417 9.940859871990947,16.392999246005417 H8.917765576932847 C8.849934425170503,16.392999246005417 8.784865628004802,16.426149074341186 8.736908082923954,16.485120543154817 C8.688950537843104,16.54409201196844 8.661992003168322,16.62410450085477 8.661992003168322,16.707513746344766 V19.538144249398883 H8.150444855639273 V9.159165738200446 C8.150444855639273,8.742088059300439 8.28518637429843,8.342088517768858 8.52502525441742,8.047199722250687 C8.764838557179043,7.7522794752824815 9.09013138829277,7.586593236503715 9.429312724461898,7.586593236503715 C9.768494060631028,7.586593236503715 10.093786891744752,7.7522794752824815 10.333600194506376,8.047199722250687 C10.573439074625368,8.342088517768858 10.70818059328452,8.742088059300439 10.70818059328452,9.159165738200446 V19.538144249398883 zM13.26591633092977,19.538144249398883 H12.24282203587167 V16.392999246005417 H13.26591633092977 V19.538144249398883 zM14.289010625987869,19.538144249398883 H13.77746347845882 V16.078484745666074 C13.77746347845882,15.995075500176078 13.750504943784039,15.915063011289746 13.70254739870319,15.856091542476122 C13.654589853622342,15.797120073662494 13.58952105645664,15.763970245326725 13.521689904694295,15.763970245326725 H11.987048462107147 C11.919217310344802,15.763970245326725 11.8541485131791,15.797120073662494 11.806190968098251,15.856091542476122 C11.7582334230174,15.915063011289746 11.731274888342622,15.995075500176078 11.731274888342622,16.078484745666074 V19.538144249398883 H11.219727740813573 V12.423826251722867 L12.75436918340072,10.266256779394944 L14.289010625987869,12.423826251722867 V19.538144249398883 zM15.567878494810495,6.328535235146327 C15.567878494810495,6.161716744166339 15.621769986802676,6.001723217843713 15.717710654321754,5.883748828766426 C15.81365132184083,5.765774439689135 15.943763338814843,5.699506234467634 16.079425642339544,5.699506234467634 C16.21508794586424,5.699506234467634 16.345199962838258,5.765774439689135 16.44114063035733,5.883748828766426 C16.537081297876412,6.001723217843713 16.590972789868594,6.161716744166339 16.590972789868594,6.328535235146327 V7.048773440923434 C16.257188276105893,6.9263958488413895 15.901663008573195,6.9263958488413895 15.567878494810495,7.048773440923434 V6.328535235146327 zM16.33519921610407,19.538144249398883 H15.823652068575017 V17.02202824668411 H16.33519921610407 V19.538144249398883 zM14.80055777351692,9.159165738200446 C14.80055777351692,8.742088059300439 14.935299292176072,8.342088517768858 15.175138172295066,8.047199722250687 C15.414951475056688,7.7522794752824815 15.740244306170414,7.586593236503715 16.079425642339544,7.586593236503715 C16.41860697850867,7.586593236503715 16.7438998096224,7.7522794752824815 16.98371311238402,8.047199722250687 C17.223551992503012,8.342088517768858 17.358293511162167,8.742088059300439 17.358293511162167,9.159165738200446 V19.538144249398883 H16.846746363633116 V16.707513746344766 C16.846746363633116,16.62410450085477 16.819787828958336,16.54409201196844 16.771830283877488,16.485120543154817 C16.72387273879664,16.426149074341186 16.65880394163094,16.392999246005417 16.590972789868594,16.392999246005417 H15.567878494810495 C15.500047343048148,16.392999246005417 15.434978545882446,16.426149074341186 15.3870210008016,16.485120543154817 C15.33906345572075,16.54409201196844 15.31210492104597,16.62410450085477 15.31210492104597,16.707513746344766 V19.538144249398883 H14.80055777351692 V9.159165738200446 zM19.404482101278365,19.538144249398883 H17.869840658691217 V14.112769118545154 L19.404482101278365,15.223005304743051 V19.538144249398883 z" fill="#000000" id="svg_1" class="" fill-opacity="1"/><path fill="black" fill-opacity="1" stroke="none" stroke-opacity="1" stroke-width="1" stroke-dasharray="none" stroke-linejoin="miter" stroke-linecap="butt" stroke-dashoffset="" fill-rule="nonzero" opacity="1" marker-start="" marker-mid="" marker-end="" d="M12.283687949180603,8.634751796722412 C12.283687949180603,7.806022514954456 12.283687949180603,7.134751796722412 12.283687949180603,7.134751796722412 C12.283687949180603,7.134751796722412 12.283687949180603,7.806022514954456 12.283687949180603,8.634751796722412 C12.283687949180603,9.463481078490368 12.283687949180603,10.134751796722412 12.283687949180603,10.134751796722412 C12.283687949180603,10.134751796722412 12.283687949180603,9.463481078490368 12.283687949180603,8.634751796722412 z" id="svg_4" class=""/><path fill="black" fill-opacity="1" stroke="none" stroke-opacity="1" stroke-width="1" stroke-dasharray="none" stroke-linejoin="miter" stroke-linecap="butt" stroke-dashoffset="" fill-rule="nonzero" opacity="1" marker-start="" marker-mid="" marker-end="" d="M12,10 C12,10 12,10 12,10 C12,10 12,10 12,10 C12,10 12,10 12,10 C12,10 12,10 12,10 Z" id="svg_6" class=""/></g></svg>