<?xml version="1.0" encoding="UTF-8"?>
<svg xmlns="http://www.w3.org/2000/svg" xmlns:xlink="http://www.w3.org/1999/xlink" width="20px" height="20px" viewBox="0 0 20 20" version="1.1">
<g id="surface1">
<path style=" stroke:none;fill-rule:nonzero;fill:rgb(0%,0%,0%);fill-opacity:1;" d="M 19.03125 17.5 L 18.125 17.5 L 18.125 16.59375 C 18.125 16.402344 17.972656 16.25 17.78125 16.25 L 15.9375 16.25 L 15.9375 15.625 C 15.9375 15.28125 15.65625 15 15.3125 15 L 15.3125 9.6875 C 15.652344 9.679688 15.929688 9.402344 15.9375 9.0625 L 15.9375 8.4375 L 16.53125 8.4375 C 16.722656 8.4375 16.875 8.285156 16.875 8.09375 L 16.875 7.1875 L 18.335938 7.1875 C 18.488281 7.1875 18.617188 7.089844 18.660156 6.945312 C 18.707031 6.804688 18.652344 6.648438 18.53125 6.5625 L 10.195312 0.851562 C 10.078125 0.773438 9.921875 0.773438 9.804688 0.851562 L 1.46875 6.5625 C 1.347656 6.648438 1.292969 6.804688 1.339844 6.945312 C 1.382812 7.089844 1.511719 7.1875 1.664062 7.1875 L 3.4375 7.1875 L 3.4375 8.09375 C 3.4375 8.285156 3.589844 8.4375 3.78125 8.4375 L 4.0625 8.4375 L 4.0625 9.0625 C 4.0625 9.40625 4.34375 9.6875 4.6875 9.6875 L 4.6875 15 C 4.347656 15.007812 4.070312 15.285156 4.0625 15.625 L 4.0625 16.25 L 2.21875 16.25 C 2.027344 16.25 1.875 16.402344 1.875 16.59375 L 1.875 17.5 L 0.96875 17.5 C 0.777344 17.5 0.625 17.652344 0.625 17.84375 L 0.625 19.03125 C 0.625 19.222656 0.777344 19.375 0.96875 19.375 L 19.03125 19.375 C 19.222656 19.375 19.375 19.222656 19.375 19.03125 L 19.375 17.84375 C 19.375 17.652344 19.222656 17.5 19.03125 17.5 Z M 15.3125 9.0625 C 14.96875 9.0625 14.6875 9.34375 14.6875 9.6875 L 14.6875 15 C 14.6875 15.34375 14.96875 15.625 15.3125 15.625 L 15.3125 16.25 L 13.4375 16.25 L 13.4375 15.625 C 13.78125 15.625 14.0625 15.34375 14.0625 15 L 14.0625 9.6875 C 14.0625 9.34375 13.78125 9.0625 13.4375 9.0625 L 13.4375 8.4375 L 15.3125 8.4375 Z M 6.5625 15 L 6.5625 9.6875 C 6.902344 9.679688 7.179688 9.402344 7.1875 9.0625 L 7.1875 8.4375 L 8.4375 8.4375 L 8.4375 9.0625 C 8.4375 9.40625 8.71875 9.6875 9.0625 9.6875 L 9.0625 15 C 8.722656 15.007812 8.445312 15.285156 8.4375 15.625 L 8.4375 16.25 L 7.1875 16.25 L 7.1875 15.625 C 7.1875 15.28125 6.90625 15 6.5625 15 Z M 9.0625 16.25 L 9.0625 15.625 C 9.40625 15.625 9.6875 15.34375 9.6875 15 L 9.6875 9.6875 C 9.6875 9.34375 9.40625 9.0625 9.0625 9.0625 L 9.0625 8.4375 L 10.9375 8.4375 L 10.9375 9.0625 C 10.59375 9.0625 10.3125 9.34375 10.3125 9.6875 L 10.3125 15 C 10.3125 15.34375 10.59375 15.625 10.9375 15.625 L 10.9375 16.25 Z M 10.9375 15 L 10.9375 9.6875 C 11.277344 9.679688 11.554688 9.402344 11.5625 9.0625 L 11.5625 8.4375 L 12.8125 8.4375 L 12.8125 9.0625 C 12.8125 9.40625 13.09375 9.6875 13.4375 9.6875 L 13.4375 15 C 13.097656 15.007812 12.820312 15.285156 12.8125 15.625 L 12.8125 16.25 L 11.5625 16.25 L 11.5625 15.625 C 11.5625 15.28125 11.28125 15 10.9375 15 Z M 16.25 7.8125 L 4.0625 7.8125 L 4.0625 7.1875 L 16.25 7.1875 Z M 4.714844 6.5625 L 10 2.742188 L 15.285156 6.5625 Z M 10 1.476562 L 17.429688 6.5625 L 16.351562 6.5625 L 10.199219 2.117188 C 10.078125 2.027344 9.917969 2.027344 9.796875 2.117188 L 3.648438 6.5625 L 2.570312 6.5625 Z M 4.6875 16.25 L 4.6875 15.625 C 5.03125 15.625 5.3125 15.34375 5.3125 15 L 5.3125 9.6875 C 5.3125 9.34375 5.03125 9.0625 4.6875 9.0625 L 4.6875 8.4375 L 6.5625 8.4375 L 6.5625 9.0625 C 6.21875 9.0625 5.9375 9.34375 5.9375 9.6875 L 5.9375 15 C 5.9375 15.34375 6.21875 15.625 6.5625 15.625 L 6.5625 16.25 Z M 2.5 16.875 L 17.5 16.875 L 17.5 17.5 L 2.5 17.5 Z M 18.75 18.75 L 1.25 18.75 L 1.25 18.125 L 18.75 18.125 Z M 18.75 18.75 "/>
</g>
</svg>
