<svg xmlns="http://www.w3.org/2000/svg" width="25.617977768886362" height="25.39325865813089" style=""><rect id="backgroundrect" width="100%" height="100%" x="0" y="0" fill="none" stroke="none" style="" class=""/><title>bank, finance, capital, building, museum, </title><g class="currentLayer" style=""><title>Layer 1</title><path fill="#009900" fill-opacity="1" stroke="#ffffff" stroke-opacity="1" stroke-width="1" stroke-dasharray="none" stroke-linejoin="round" stroke-linecap="butt" stroke-dashoffset="" fill-rule="nonzero" opacity="1" marker-start="" marker-mid="" marker-end="" d="M0.5000000620788537,12.528888664323732 C0.5000000620788537,5.8830938455970845 5.902803283516501,0.500000042428496 12.572930717390145,0.500000042428496 C19.2430581512638,0.500000042428496 24.645861372701436,5.8830938455970845 24.645861372701436,12.528888664323732 C24.645861372701436,19.174683483050387 19.2430581512638,24.557777286218972 12.572930717390145,24.557777286218972 C5.902803283516501,24.557777286218972 0.5000000620788537,19.174683483050387 0.5000000620788537,12.528888664323732 z" id="svg_2" class=""/><g id="Outline" class="selected" fill="#ffffff" fill-opacity="1"><path d="M21.150083081269685,17.901304766838802 H20.301992561059535 V17.058746574233265 A0.32168950766592647,0.3195910385745146 0 0 0 19.9803030533936,16.739155535658753 H18.254877512276373 s0,0 0,0 V16.158080920068723 a0.5848900139380458,0.5810746155900266 0 0 0 -0.5848900139380458,-0.5810746155900266 V10.637872071963482 a0.5995122642864973,0.5956014809797768 0 0 0 0.5848900139380458,-0.5810746155900266 V9.47572284078343 h0.5556455132411442 A0.32168950766592647,0.3195910385745146 0 0 0 19.132212533183445,9.15613180220892 V8.31357360960338 h1.3686426326150263 a0.32168950766592647,0.3195910385745146 0 0 0 0.1813159043207949,-0.5810746155900266 L12.879738284185732,2.4243823805984763 a0.3246139577356157,0.3224964116524654 0 0 0 -0.3626318086415895,0 L4.714673689610621,7.732498994013355 a0.32168950766592647,0.3195910385745146 0 0 0 0.1813159043207949,0.5810746155900266 H6.55707723351546 v0.8425581926055382 A0.32168950766592647,0.3195910385745146 0 0 0 6.878766741181385,9.47572284078343 H7.141967247453502 v0.5810746155900266 a0.5848900139380458,0.5810746155900266 0 0 0 0.5848900139380458,0.5810746155900266 l0,4.9391342325152205 a0.5995122642864973,0.5956014809797768 0 0 0 -0.5848900139380458,0.5810746155900266 V16.739155535658753 s0,0 0,0 H5.416541706336271 A0.32168950766592647,0.3195910385745146 0 0 0 5.094852198670345,17.058746574233265 V17.901304766838802 H4.246761678460174 A0.32168950766592647,0.3195910385745146 0 0 0 3.9250721707942544,18.220895805413317 v1.1040417696210487 A0.32168950766592647,0.3195910385745146 0 0 0 4.246761678460174,19.64452861360888 H21.150083081269685 A0.32168950766592647,0.3195910385745146 0 0 0 21.47177258893563,19.324937575034365 V18.220895805413317 A0.32168950766592647,0.3195910385745146 0 0 0 21.150083081269685,17.901304766838802 zM17.66998749833833,10.056797456373452 a0,0 0 0 1 0,0 a0.5848900139380458,0.5810746155900266 0 0 0 -0.5848900139380458,0.5810746155900266 V15.577006304478697 a0.5848900139380458,0.5810746155900266 0 0 0 0.5848900139380458,0.5810746155900266 l0,0.5810746155900266 l-1.7546700418141374,0 l0,-0.5810746155900266 a0.5848900139380458,0.5810746155900266 0 0 0 0.5848900139380458,-0.5810746155900266 V10.637872071963482 a0.5848900139380458,0.5810746155900266 0 0 0 -0.5848900139380458,-0.5810746155900266 l0,-0.5810746155900266 h1.7546700418141374 zM9.481527303205686,15.577006304478697 V10.637872071963482 a0.5995122642864973,0.5956014809797768 0 0 0 0.5848900139380458,-0.5810746155900266 V9.47572284078343 h1.1697800278760915 v0.5810746155900266 a0.5848900139380458,0.5810746155900266 0 0 0 0.5848900139380458,0.5810746155900266 l0,4.9391342325152205 a0.5995122642864973,0.5956014809797768 0 0 0 -0.5848900139380458,0.5810746155900266 V16.739155535658753 s0,0 0,0 H10.066417317143738 s0,0 0,0 V16.158080920068723 A0.5848900139380458,0.5810746155900266 0 0 0 9.481527303205686,15.577006304478697 zM11.82108735895787,16.739155535658753 l0,-0.5810746155900266 a0.5848900139380458,0.5810746155900266 0 0 0 0.5848900139380458,-0.5810746155900266 V10.637872071963482 a0.5848900139380458,0.5810746155900266 0 0 0 -0.5848900139380458,-0.5810746155900266 l0,-0.5810746155900266 h1.7546700418141374 v0.5810746155900266 a0,0 0 0 1 0,0 a0.5848900139380458,0.5810746155900266 0 0 0 -0.5848900139380458,0.5810746155900266 V15.577006304478697 a0.5848900139380458,0.5810746155900266 0 0 0 0.5848900139380458,0.5810746155900266 l0,0.5810746155900266 zM13.575757400772014,15.577006304478697 V10.637872071963482 a0.5995122642864973,0.5956014809797768 0 0 0 0.5848900139380458,-0.5810746155900266 V9.47572284078343 h1.1697800278760915 v0.5810746155900266 a0.5848900139380458,0.5810746155900266 0 0 0 0.5848900139380458,0.5810746155900266 l0,4.9391342325152205 a0.5995122642864973,0.5956014809797768 0 0 0 -0.5848900139380458,0.5810746155900266 V16.739155535658753 s0,0 0,0 H14.160647414710054 s0,0 0,0 V16.158080920068723 A0.5848900139380458,0.5810746155900266 0 0 0 13.575757400772014,15.577006304478697 zM18.547322519245395,8.894648225193404 H7.141967247453502 V8.31357360960338 H18.547322519245395 zM7.753177312018758,7.732498994013355 L12.69842237986494,4.179227719680354 L17.64366744771111,7.732498994013355 zM12.69842237986494,3.0025516231105494 L19.649840195518614,7.732498994013355 H18.64090492147548 L12.885587184325116,3.598153104090314 a0.32168950766592647,0.3195910385745146 0 0 0 -0.3772540589900397,0 L6.755939838254393,7.732498994013355 H5.7470045642112675 zM7.726857261391551,16.739155535658753 l0,-0.5810746155900266 a0.5848900139380458,0.5810746155900266 0 0 0 0.5848900139380458,-0.5810746155900266 V10.637872071963482 a0.5848900139380458,0.5810746155900266 0 0 0 -0.5848900139380458,-0.5810746155900266 l0,-0.5810746155900266 h1.7546700418141374 v0.5810746155900266 a0,0 0 0 1 0,0 a0.5848900139380458,0.5810746155900266 0 0 0 -0.5848900139380458,0.5810746155900266 V15.577006304478697 a0.5848900139380458,0.5810746155900266 0 0 0 0.5848900139380458,0.5810746155900266 l0,0.5810746155900266 zM5.679742212608389,17.320230151248776 H19.717102547121485 v0.5810746155900266 H5.679742212608389 zm15.207140362389184,1.7432238467700771 H4.509962184732303 V18.482379382428824 H20.88688257499758 z" id="svg_1" fill="#ffffff" fill-opacity="1"/></g></g></svg>