<svg version="1.1" id="Outline__x28_Expanded_x2B_Unite_x29_" xmlns="http://www.w3.org/2000/svg" xmlns:xlink="http://www.w3.org/1999/xlink" x="0px" y="0px" viewBox="0 0 64 64" enable-background="new 0 0 64 64" xml:space="preserve" height="20" width="20">
<g id="castel_1_">
	<path d="M61,28H47c-0.552,0-1,0.448-1,1v1h-6v-7c0-0.552-0.448-1-1-1h-0.434L33,12.723v-3.03l7.351-2.757
		C40.741,6.79,41,6.417,41,6s-0.259-0.79-0.649-0.937l-8-3C32.044,1.949,31.7,1.991,31.43,2.178C31.161,2.365,31,2.672,31,3v6v3.723
		L25.434,22H25c-0.552,0-1,0.448-1,1v7h-6v-1c0-0.552-0.448-1-1-1H3c-0.552,0-1,0.448-1,1v8c0,0.552,0.448,1,1,1h1v23
		c0,0.552,0.448,1,1,1h10h11h12h11h10c0.552,0,1-0.448,1-1V38h1c0.552,0,1-0.448,1-1v-8C62,28.448,61.552,28,61,28z M33,4.443
		L37.152,6L33,7.557V4.443z M32,14.944L36.234,22h-8.468L32,14.944z M26,24h2v3h2v-3h4v3h2v-3h2v6H26V24z M25,32h14h7v2H28v2h18v1
		c0,0.552,0.448,1,1,1h1v18h-9v-9.06c0-3.827-3.113-6.94-6.94-6.94h-0.12C28.113,40,25,43.113,25,46.94V56h-9V38h1
		c0.552,0,1-0.448,1-1v-1h4v-2h-4v-2H25z M48,58v2h-9v-2H48z M4,30h2v3h2v-3h4v3h2v-3h2v1v5h-1H5H4V30z M14,38v2H6v-2H14z M6,42h8
		v18H6V42z M16,58h9v2h-9V58z M27,46.94c0-2.402,1.725-4.404,4-4.845V60h-4V46.94z M33,60V42.095c2.275,0.441,4,2.443,4,4.845V60H33
		z M50,60V42h8v18H50z M58,40h-8v-2h8V40z M60,36h-1H49h-1v-5v-1h2v3h2v-3h4v3h2v-3h2V36z"></path>
	<rect x="24" y="34" width="2" height="2"></rect>
	<rect x="53" y="44" width="2" height="2"></rect>
	<rect x="53" y="48" width="2" height="2"></rect>
	<rect x="53" y="52" width="2" height="2"></rect>
	<rect x="53" y="56" width="2" height="2"></rect>
	<rect x="9" y="44" width="2" height="2"></rect>
	<rect x="9" y="48" width="2" height="2"></rect>
	<rect x="9" y="52" width="2" height="2"></rect>
	<rect x="9" y="56" width="2" height="2"></rect>
	<rect x="20" y="39" width="2" height="2"></rect>
	<rect x="20" y="43" width="2" height="2"></rect>
	<rect x="20" y="47" width="2" height="2"></rect>
	<rect x="20" y="51" width="2" height="2"></rect>
	<rect x="43" y="39" width="2" height="2"></rect>
	<rect x="43" y="43" width="2" height="2"></rect>
	<rect x="43" y="47" width="2" height="2"></rect>
	<rect x="43" y="51" width="2" height="2"></rect>
</g>
</svg>