<svg xmlns="http://www.w3.org/2000/svg" width="25.874125795776195" height="25.034964967808165" fill="none" style=""><rect id="backgroundrect" width="100%" height="100%" x="0" y="0" fill="none" stroke="none" style="" class=""/>

<g class="currentLayer" style=""><title>Layer 1</title><path fill="#009900" fill-opacity="1" stroke="#ffffff" stroke-opacity="1" stroke-width="1" stroke-dasharray="none" stroke-linejoin="miter" stroke-linecap="butt" stroke-dashoffset="" fill-rule="nonzero" opacity="1" marker-start="" marker-mid="" marker-end="" d="M0.6715278301716744,12.411273473273466 C0.6715278301716744,5.942352122961614 6.073620201170536,0.7025258292090168 12.742870041909875,0.7025258292090168 C19.412119882649215,0.7025258292090168 24.814212253648076,5.942352122961614 24.814212253648076,12.411273473273466 C24.814212253648076,18.880194823585313 19.412119882649215,24.120021117337913 12.742870041909875,24.120021117337913 C6.073620201170536,24.120021117337913 0.6715278301716744,18.880194823585313 0.6715278301716744,12.411273473273466 z" id="svg_2" class=""/><path d="M20.121941058493675,14.579351289588166 C20.1223940999861,14.527865055620246 20.110588371683487,14.477142886768295 20.087669802066678,14.432268754765431 C20.06475123244986,14.38739462276257 20.031519306505487,14.34995543208042 19.991358510676957,14.323683346939255 L17.98998109413921,13.027711361787878 V9.081021166644328 C17.989794547642333,8.749622616155618 17.91698811485962,8.423219876040507 17.777797778686825,8.129525000312551 C17.638607442514033,7.835830124584593 17.43711057638299,7.583571087837668 17.190496107506284,7.394200487558406 V6.4361803806211055 C17.19060270550451,6.2817804529570385 17.163127071463887,6.128849881285203 17.109614876358588,5.986146027319329 C17.05612933075285,5.843442173353456 16.977646554565048,5.713786200598629 16.87869696271945,5.604524889016024 C16.74195838050567,5.461644712331079 16.573906636315428,5.3603766973462355 16.391011120873365,5.310653690568998 V4.37908199149193 H16.924001111961978 V3.7913395945978787 H16.391011120873365 V3.2035971977038287 H15.858021129784746 V3.7913395945978787 H15.325031138696131 V4.37908199149193 H15.858021129784746 V5.301837554615586 C15.629768166101046,5.366812476592224 15.427498464482918,5.513395430377601 15.282844980901473,5.718664462492848 C15.138191497320026,5.92390410748825 15.059308978638914,6.176221918474865 15.058536143151823,6.4361803806211055 V7.394200487558406 C14.811921674275117,7.583571087837668 14.610424808144078,7.835830124584593 14.471234471971284,8.129525000312551 C14.332044135798489,8.423219876040507 14.259237703015778,8.749622616155618 14.2590511565189,9.081021166644328 V11.238035763245493 L12.926576178797362,9.557092508128509 V8.49327876975028 H13.459566169885976 V7.905536372856227 H12.926576178797362 V7.317793975962179 H12.393586187708745 V7.905536372856227 H11.86059619662013 V8.49327876975028 H12.393586187708745 V9.557092508128509 L11.061111209987207,11.238035763245493 V9.081021166644328 C11.06092466349033,8.749622616155618 10.98811823070762,8.423219876040507 10.848927894534823,8.129525000312551 C10.70973755836203,7.835830124584593 10.508240692230991,7.583571087837668 10.261626223354282,7.394200487558406 V6.4361803806211055 C10.260853387867206,6.176221918474865 10.181970869186083,5.92390410748825 10.037317385604636,5.718664462492848 C9.892663902023191,5.513395430377601 9.690394200405061,5.366812476592224 9.46214123672136,5.301837554615586 V4.37908199149193 H9.995131227809976 V3.7913395945978787 H9.46214123672136 V3.2035971977038287 H8.929151245632744 V3.7913395945978787 H8.396161254544129 V4.37908199149193 H8.929151245632744 V5.301837554615586 C8.746255730190692,5.3515605613928265 8.578203986000437,5.45282857637767 8.441465403786658,5.595708753062612 C8.341556429957102,5.705998613839781 8.262514014278661,5.837123942586842 8.209001819173363,5.981414701024332 C8.155462974568504,6.125705459461824 8.128493681019417,6.2802817098449575 8.12966625899982,6.4361803806211055 V7.394200487558406 C7.883051790123115,7.583571087837668 7.681554923992063,7.835830124584593 7.54236458781928,8.129525000312551 C7.403174251646486,8.423219876040507 7.330367818863773,8.749622616155618 7.330181272366897,9.081021166644328 V13.027711361787878 L5.328803855829149,14.323683346939255 C5.288632400200795,14.34995543208042 5.25542179385606,14.38739462276257 5.232503224239253,14.432268754765431 C5.2095873195724,14.477142886768295 5.197762936620098,14.527865055620246 5.198221308012434,14.579351289588166 V18.778770715396153 H4.398736321379511 V19.366513112290203 H20.921426045126594 V18.778770715396153 H20.121941058493675 V14.579351289588166 zM7.330181272366897,18.778770715396153 H5.731211299101051 V14.746857872702973 L7.330181272366897,13.709492542184973 V18.778770715396153 zM8.662656250088435,6.4361803806211055 C8.662656250088435,6.2803110969648035 8.718806745649616,6.130818818314801 8.818769018478292,6.020587731777323 C8.918731291306964,5.910356645239843 9.054297295540353,5.848437983727055 9.195646241177052,5.848437983727055 C9.33699518681375,5.848437983727055 9.472561191047138,5.910356645239843 9.572523463875813,6.020587731777323 C9.672485736704488,6.130818818314801 9.728636232265666,6.2803110969648035 9.728636232265666,6.4361803806211055 V7.109145425064795 C9.380860263080349,6.994800141749053 9.010432219273753,6.994800141749053 8.662656250088435,7.109145425064795 V6.4361803806211055 zM9.46214123672136,18.778770715396153 H8.929151245632744 V16.427801127819954 H9.46214123672136 V18.778770715396153 zM10.52812121889859,18.778770715396153 H9.995131227809976 V16.13392992937293 C9.995131227809976,16.05599528754478 9.967042655279606,15.981234454659855 9.917074843615046,15.92613360495104 C9.86710703195049,15.87103275524222 9.79931070508401,15.840058730925904 9.728636232265666,15.840058730925904 H8.662656250088435 C8.591981777270092,15.840058730925904 8.524185450403614,15.87103275524222 8.474217638739056,15.92613360495104 C8.424249827074497,15.981234454659855 8.396161254544129,16.05599528754478 8.396161254544129,16.13392992937293 V18.778770715396153 H7.863171263455512 V9.081021166644328 C7.863171263455512,8.691318570383729 8.003560827108256,8.317573180198803 8.25345318443015,8.042039544534873 C8.5033188922525,7.766476521751098 8.842247227585753,7.611665174409205 9.195646241177052,7.611665174409205 C9.54904525476835,7.611665174409205 9.887973590101604,7.766476521751098 10.137839297923952,8.042039544534873 C10.387731655245846,8.317573180198803 10.52812121889859,8.691318570383729 10.52812121889859,9.081021166644328 V18.778770715396153 zM13.193071174341668,18.778770715396153 H12.127091192164436 V15.840058730925904 H13.193071174341668 V18.778770715396153 zM14.2590511565189,18.778770715396153 H13.726061165430284 V15.54618753247888 C13.726061165430284,15.468252890650728 13.697972592899914,15.393492057765805 13.648004781235358,15.338391208056988 C13.5980369695708,15.283290358348172 13.53024064270432,15.252316334031853 13.459566169885976,15.252316334031853 H11.86059619662013 C11.789921723801786,15.252316334031853 11.722125396935306,15.283290358348172 11.67215758527075,15.338391208056988 C11.622189773606191,15.393492057765805 11.594101201075821,15.468252890650728 11.594101201075821,15.54618753247888 V18.778770715396153 H11.061111209987207 V12.13140420652445 L12.660081183253054,10.115447785177855 L14.2590511565189,12.13140420652445 V18.778770715396153 zM15.59152613424044,6.4361803806211055 C15.59152613424044,6.2803110969648035 15.64767662980162,6.130818818314801 15.747638902630296,6.020587731777323 C15.84760117545897,5.910356645239843 15.983167179692357,5.848437983727055 16.124516125329052,5.848437983727055 C16.265865070965752,5.848437983727055 16.40143107519914,5.910356645239843 16.50139334802781,6.020587731777323 C16.601355620856488,6.130818818314801 16.65750611641767,6.2803110969648035 16.65750611641767,6.4361803806211055 V7.109145425064795 C16.30973014723235,6.994800141749053 15.939302103425756,6.994800141749053 15.59152613424044,7.109145425064795 V6.4361803806211055 zM16.391011120873365,18.778770715396153 H15.858021129784746 V16.427801127819954 H16.391011120873365 V18.778770715396153 zM14.792041147607517,9.081021166644328 C14.792041147607517,8.691318570383729 14.932430711260258,8.317573180198803 15.182323068582154,8.042039544534873 C15.432188776404502,7.766476521751098 15.771117111737755,7.611665174409205 16.124516125329052,7.611665174409205 C16.477915138920352,7.611665174409205 16.81684347425361,7.766476521751098 17.066709182075954,8.042039544534873 C17.31660153939785,8.317573180198803 17.456991103050594,8.691318570383729 17.456991103050594,9.081021166644328 V18.778770715396153 H16.924001111961978 V16.13392992937293 C16.924001111961978,16.05599528754478 16.895912539431606,15.981234454659855 16.84594472776705,15.92613360495104 C16.795976916102493,15.87103275524222 16.72818058923601,15.840058730925904 16.65750611641767,15.840058730925904 H15.59152613424044 C15.520851661422096,15.840058730925904 15.453055334555616,15.87103275524222 15.40308752289106,15.92613360495104 C15.353119711226501,15.981234454659855 15.325031138696131,16.05599528754478 15.325031138696131,16.13392992937293 V18.778770715396153 H14.792041147607517 V9.081021166644328 zM19.588951067405052,18.778770715396153 H17.98998109413921 V13.709492542184973 L19.588951067405052,14.746857872702973 V18.778770715396153 z" fill="#ffffff" id="svg_1" class="" fill-opacity="1"/><path fill="black" fill-opacity="1" stroke="none" stroke-opacity="1" stroke-width="1" stroke-dasharray="none" stroke-linejoin="miter" stroke-linecap="butt" stroke-dashoffset="" fill-rule="nonzero" opacity="1" marker-start="" marker-mid="" marker-end="" d="M12.283687949180603,8.634751796722412 C12.283687949180603,7.806022514954456 12.283687949180603,7.134751796722412 12.283687949180603,7.134751796722412 C12.283687949180603,7.134751796722412 12.283687949180603,7.806022514954456 12.283687949180603,8.634751796722412 C12.283687949180603,9.463481078490368 12.283687949180603,10.134751796722412 12.283687949180603,10.134751796722412 C12.283687949180603,10.134751796722412 12.283687949180603,9.463481078490368 12.283687949180603,8.634751796722412 z" id="svg_4" class=""/><path fill="black" fill-opacity="1" stroke="none" stroke-opacity="1" stroke-width="1" stroke-dasharray="none" stroke-linejoin="miter" stroke-linecap="butt" stroke-dashoffset="" fill-rule="nonzero" opacity="1" marker-start="" marker-mid="" marker-end="" d="M12,10 C12,10 12,10 12,10 C12,10 12,10 12,10 C12,10 12,10 12,10 C12,10 12,10 12,10 Z" id="svg_6" class=""/></g></svg>