<svg xmlns="http://www.w3.org/2000/svg" width="20.521739959716797" height="20.521739959716797" fill="none" style=""><rect id="backgroundrect" width="100%" height="100%" x="0" y="0" fill="none" stroke="none" style="" class=""/>

<g class="currentLayer" style=""><title>Layer 1</title><path fill="#009900" fill-opacity="1" stroke="#ffffff" stroke-opacity="1" stroke-width="1" stroke-dasharray="none" stroke-linejoin="miter" stroke-linecap="butt" stroke-dashoffset="" fill-rule="nonzero" opacity="1" marker-start="" marker-mid="" marker-end="" d="M0.6715278248088346,10.313371514575344 C0.6715278248088346,5.003512022362861 5.009601637686136,0.7025258336707516 10.365248320250707,0.7025258336707516 C15.72089500281528,0.7025258336707516 20.05896881569258,5.003512022362861 20.05896881569258,10.313371514575344 C20.05896881569258,15.623231006787822 15.72089500281528,19.924217195479933 10.365248320250707,19.924217195479933 C5.009601637686136,19.924217195479933 0.6715278248088346,15.623231006787822 0.6715278248088346,10.313371514575344 z" id="svg_2" class="selected"/><path d="M16.733716509557066,12.05118806509038 C16.734108193056265,12.0086121959056 16.723901381871222,11.96666816039594 16.704086804852853,11.929560082630438 C16.68427222783448,11.892452004864937 16.655541091157843,11.861492154784225 16.620819500964025,11.839766796878292 L14.890500042731999,10.76807967869977 V7.504415733770614 C14.890338761291156,7.230370027836392 14.827392918949073,6.960455542085624 14.707053923871229,6.7175883978888855 C14.586714928793386,6.474721253692146 14.412507932472591,6.2661189357228855 14.1992938676726,6.109521389474759 V5.317299166059342 C14.199386028495946,5.189620161095399 14.175631576279734,5.06315622089129 14.129366842962424,4.94514913141567 C14.083125149850952,4.82714204194005 14.015271743665954,4.719924727531805 13.929723459399435,4.629572511990132 C13.811504163258448,4.511419614743328 13.666212625260961,4.427677351495184 13.5080876926132,4.386559560022212 V3.616208502283908 H13.968891809319466 V3.1301825983480698 H13.5080876926132 V2.6441566944122314 H13.047283575906933 V3.1301825983480698 H12.586479459200667 V3.616208502283908 H13.047283575906933 V4.379269171463173 C12.849944212927474,4.432999335143281 12.675069050637447,4.55421419558488 12.55000681336337,4.723958742534471 C12.424944576089294,4.893678988188865 12.356745566816768,5.10232990874852 12.356077400847534,5.317299166059342 V6.109521389474759 C12.142863336047542,6.2661189357228855 11.968656339726747,6.474721253692146 11.848317344648905,6.7175883978888855 C11.72797834957106,6.960455542085624 11.665032507228979,7.230370027836392 11.664871225788135,7.504415733770614 V9.288130801215141 L10.51286093402247,7.898096715958642 V7.018389829834776 H10.973665050728735 V6.532363925898937 H10.51286093402247 V6.046338021963099 H10.052056817316203 V6.532363925898937 H9.591252700609937 V7.018389829834776 H10.052056817316203 V7.898096715958642 L8.900046525550538,9.288130801215141 V7.504415733770614 C8.899885244109694,7.230370027836392 8.836939401767614,6.960455542085624 8.716600406689768,6.7175883978888855 C8.596261411611925,6.474721253692146 8.422054415291132,6.2661189357228855 8.208840350491137,6.109521389474759 V5.317299166059342 C8.208172184521915,5.10232990874852 8.13997317524938,4.893678988188865 8.014910937975303,4.723958742534471 C7.8898487007012275,4.55421419558488 7.714973538411199,4.432999335143281 7.5176341754317395,4.379269171463173 V3.616208502283908 H7.978438292138005 V3.1301825983480698 H7.5176341754317395 V2.6441566944122314 H7.056830058725472 V3.1301825983480698 H6.596025942019206 V3.616208502283908 H7.056830058725472 V4.379269171463173 C6.898705126077722,4.420386962936147 6.753413588080225,4.504129226184292 6.6351942919392375,4.622282123431093 C6.548816560262652,4.713484884304654 6.480479309755112,4.821917263472738 6.434214576437802,4.941236622888987 C6.387926802914651,5.060555982305237 6.364610114609313,5.188380795040361 6.365623883666073,5.317299166059342 V6.109521389474759 C6.152409818866081,6.2661189357228855 5.978202822545276,6.474721253692146 5.857863827467443,6.7175883978888855 C5.7375248323895995,6.960455542085624 5.674578990047516,7.230370027836392 5.674417708606673,7.504415733770614 V10.76807967869977 L3.9440982503746467,11.839766796878292 C3.909367444098491,11.861492154784225 3.8806547395865207,11.892452004864937 3.8608401625681545,11.929560082630438 C3.84102788957037,11.96666816039594 3.8308049502412405,12.0086121959056 3.831201241781608,12.05118806509038 V15.523843148711945 H3.139995066722209 V16.009869052647783 H17.42492268461646 V15.523843148711945 H16.733716509557066 V12.05118806509038 zM5.674417708606673,15.523843148711945 H4.292005358487875 V12.189705447712097 L5.674417708606673,11.33186972726534 V15.523843148711945 zM6.826428000372339,5.317299166059342 C6.826428000372339,5.188405096335559 6.87497371406734,5.064784407669478 6.961397526155605,4.9736302493863125 C7.0478213382438675,4.882476091103145 7.165026865328106,4.831273262123504 7.287232117078605,4.831273262123504 C7.409437368829105,4.831273262123504 7.5266428959133425,4.882476091103145 7.613066708001607,4.9736302493863125 C7.699490520089872,5.064784407669478 7.748036233784871,5.188405096335559 7.748036233784871,5.317299166059342 V5.8737988260658796 C7.447361547634036,5.779242486455159 7.127102686523174,5.779242486455159 6.826428000372339,5.8737988260658796 V5.317299166059342 zM7.5176341754317395,15.523843148711945 H7.056830058725472 V13.579739532968592 H7.5176341754317395 V15.523843148711945 zM8.43924240884427,15.523843148711945 H7.978438292138005 V13.336726581000674 C7.978438292138005,13.272279546138781 7.954153915187585,13.210457051158143 7.910953529246371,13.16489212266416 C7.867753143305159,13.119327194170173 7.8091388596601155,13.093713629032754 7.748036233784871,13.093713629032754 H6.826428000372339 C6.7653253744970945,13.093713629032754 6.7067110908520515,13.119327194170173 6.6635107049108395,13.16489212266416 C6.620310318969626,13.210457051158143 6.596025942019206,13.272279546138781 6.596025942019206,13.336726581000674 V15.523843148711945 H6.135221825312939 V7.504415733770614 C6.135221825312939,7.182156258165957 6.256597629653372,6.873092385853157 6.472645639771103,6.645243442088037 C6.6886706096830055,6.417370197027719 6.981695947496523,6.289350973931019 7.287232117078605,6.289350973931019 C7.5927682866606885,6.289350973931019 7.885793624474206,6.417370197027719 8.101818594386108,6.645243442088037 C8.317866604503838,6.873092385853157 8.43924240884427,7.182156258165957 8.43924240884427,7.504415733770614 V15.523843148711945 zM10.743262992375602,15.523843148711945 H9.821654758963069 V13.093713629032754 H10.743262992375602 V15.523843148711945 zM11.664871225788135,15.523843148711945 H11.204067109081869 V12.850700677064836 C11.204067109081869,12.786253642202944 11.179782732131448,12.724431147222305 11.136582346190236,12.67886621872832 C11.093381960249024,12.633301290234336 11.03476767660398,12.607687725096916 10.973665050728735,12.607687725096916 H9.591252700609937 C9.530150074734692,12.607687725096916 9.471535791089648,12.633301290234336 9.428335405148436,12.67886621872832 C9.385135019207222,12.724431147222305 9.360850642256803,12.786253642202944 9.360850642256803,12.850700677064836 V15.523843148711945 H8.900046525550538 V10.026890175197616 L10.282458875669336,8.359821324697688 L11.664871225788135,10.026890175197616 V15.523843148711945 zM12.816881517553801,5.317299166059342 C12.816881517553801,5.188405096335559 12.865427231248802,5.064784407669478 12.951851043337067,4.9736302493863125 C13.03827485542533,4.882476091103145 13.155480382509568,4.831273262123504 13.277685634260067,4.831273262123504 C13.399890886010565,4.831273262123504 13.517096413094803,4.882476091103145 13.603520225183066,4.9736302493863125 C13.689944037271331,5.064784407669478 13.738489750966334,5.188405096335559 13.738489750966334,5.317299166059342 V5.8737988260658796 C13.437815064815497,5.779242486455159 13.117556203704636,5.779242486455159 12.816881517553801,5.8737988260658796 V5.317299166059342 zM13.5080876926132,15.523843148711945 H13.047283575906933 V13.579739532968592 H13.5080876926132 V15.523843148711945 zM12.125675342494402,7.504415733770614 C12.125675342494402,7.182156258165957 12.247051146834833,6.873092385853157 12.463099156952564,6.645243442088037 C12.679124126864465,6.417370197027719 12.972149464677983,6.289350973931019 13.277685634260067,6.289350973931019 C13.58322180384215,6.289350973931019 13.876247141655668,6.417370197027719 14.092272111567569,6.645243442088037 C14.3083201216853,6.873092385853157 14.429695926025733,7.182156258165957 14.429695926025733,7.504415733770614 V15.523843148711945 H13.968891809319466 V13.336726581000674 C13.968891809319466,13.272279546138781 13.944607432369045,13.210457051158143 13.901407046427833,13.16489212266416 C13.858206660486621,13.119327194170173 13.799592376841577,13.093713629032754 13.738489750966334,13.093713629032754 H12.816881517553801 C12.755778891678556,13.093713629032754 12.697164608033512,13.119327194170173 12.6539642220923,13.16489212266416 C12.610763836151088,13.210457051158143 12.586479459200667,13.272279546138781 12.586479459200667,13.336726581000674 V15.523843148711945 H12.125675342494402 V7.504415733770614 zM16.272912392850795,15.523843148711945 H14.890500042731999 V11.33186972726534 L16.272912392850795,12.189705447712097 V15.523843148711945 z" fill="#ffffff" id="svg_1" class="" fill-opacity="1"/><path fill="black" fill-opacity="1" stroke="none" stroke-opacity="1" stroke-width="1" stroke-dasharray="none" stroke-linejoin="miter" stroke-linecap="butt" stroke-dashoffset="" fill-rule="nonzero" opacity="1" marker-start="" marker-mid="" marker-end="" d="M12.283687949180603,8.634751796722412 C12.283687949180603,7.806022514954456 12.283687949180603,7.134751796722412 12.283687949180603,7.134751796722412 C12.283687949180603,7.134751796722412 12.283687949180603,7.806022514954456 12.283687949180603,8.634751796722412 C12.283687949180603,9.463481078490368 12.283687949180603,10.134751796722412 12.283687949180603,10.134751796722412 C12.283687949180603,10.134751796722412 12.283687949180603,9.463481078490368 12.283687949180603,8.634751796722412 z" id="svg_4" class=""/><path fill="black" fill-opacity="1" stroke="none" stroke-opacity="1" stroke-width="1" stroke-dasharray="none" stroke-linejoin="miter" stroke-linecap="butt" stroke-dashoffset="" fill-rule="nonzero" opacity="1" marker-start="" marker-mid="" marker-end="" d="M12,10 C12,10 12,10 12,10 C12,10 12,10 12,10 C12,10 12,10 12,10 C12,10 12,10 12,10 Z" id="svg_6" class=""/></g></svg>