<?xml version="1.0" encoding="UTF-8"?>
<svg xmlns="http://www.w3.org/2000/svg" xmlns:xlink="http://www.w3.org/1999/xlink" width="15px" height="15px" viewBox="0 0 15 15" version="1.1">
<g id="surface1">
<path style=" stroke:none;fill-rule:nonzero;fill:rgb(0%,0%,0%);fill-opacity:1;" d="M 10.015625 5.078125 C 10.015625 4.226562 8.910156 3.5625 7.5 3.5625 C 6.089844 3.5625 4.984375 4.226562 4.984375 5.078125 C 4.984375 5.09375 4.988281 5.105469 4.988281 5.121094 L 4.984375 5.121094 L 4.984375 9.964844 L 4.988281 9.964844 C 5 10.148438 5.054688 10.320312 5.152344 10.472656 C 5.519531 11.058594 6.441406 11.4375 7.5 11.4375 C 8.5625 11.4375 9.484375 11.058594 9.847656 10.476562 C 9.953125 10.3125 10.011719 10.117188 10.015625 9.921875 Z M 7.5 4.03125 C 8.609375 4.03125 9.546875 4.507812 9.546875 5.078125 C 9.546875 5.644531 8.609375 6.125 7.5 6.125 C 6.390625 6.125 5.453125 5.644531 5.453125 5.078125 C 5.453125 4.507812 6.390625 4.03125 7.5 4.03125 Z M 5.453125 5.96875 C 6.046875 6.402344 6.765625 6.625 7.5 6.59375 C 8.234375 6.625 8.953125 6.402344 9.546875 5.96875 L 9.546875 6.789062 C 9.527344 7 9.417969 7.195312 9.242188 7.320312 C 8.734375 7.683594 8.121094 7.863281 7.5 7.835938 C 6.878906 7.863281 6.265625 7.683594 5.757812 7.320312 C 5.582031 7.195312 5.472656 7 5.453125 6.785156 Z M 5.453125 7.679688 C 5.917969 8.070312 6.683594 8.304688 7.5 8.304688 C 8.316406 8.304688 9.082031 8.070312 9.546875 7.679688 L 9.546875 8.210938 C 9.511719 8.5 9.332031 8.746094 9.070312 8.867188 C 8.59375 9.140625 8.050781 9.273438 7.5 9.261719 C 6.949219 9.273438 6.40625 9.140625 5.929688 8.867188 C 5.667969 8.746094 5.488281 8.496094 5.453125 8.210938 Z M 9.449219 10.226562 C 9.175781 10.664062 8.375 10.96875 7.5 10.96875 C 6.625 10.96875 5.824219 10.664062 5.546875 10.222656 C 5.488281 10.132812 5.457031 10.03125 5.457031 9.921875 L 5.457031 9.101562 C 5.527344 9.160156 5.601562 9.214844 5.679688 9.265625 C 6.234375 9.582031 6.863281 9.742188 7.5 9.730469 C 8.136719 9.742188 8.765625 9.582031 9.320312 9.265625 C 9.398438 9.214844 9.472656 9.160156 9.546875 9.101562 L 9.546875 9.921875 C 9.542969 10.03125 9.511719 10.136719 9.449219 10.226562 Z M 9.449219 10.226562 "/>
<path style=" stroke:none;fill-rule:nonzero;fill:rgb(0%,0%,0%);fill-opacity:1;" d="M 1.171875 2.109375 C 1.691406 2.109375 2.109375 1.691406 2.109375 1.171875 C 2.109375 0.652344 1.691406 0.234375 1.171875 0.234375 C 0.652344 0.234375 0.234375 0.652344 0.234375 1.171875 C 0.234375 1.691406 0.652344 2.109375 1.171875 2.109375 Z M 1.171875 0.703125 C 1.429688 0.703125 1.640625 0.914062 1.640625 1.171875 C 1.640625 1.429688 1.429688 1.640625 1.171875 1.640625 C 0.914062 1.640625 0.703125 1.429688 0.703125 1.171875 C 0.703125 0.914062 0.914062 0.703125 1.171875 0.703125 Z M 1.171875 0.703125 "/>
<path style=" stroke:none;fill-rule:nonzero;fill:rgb(0%,0%,0%);fill-opacity:1;" d="M 7.5 2.109375 C 8.019531 2.109375 8.4375 1.691406 8.4375 1.171875 C 8.4375 0.652344 8.019531 0.234375 7.5 0.234375 C 6.980469 0.234375 6.5625 0.652344 6.5625 1.171875 C 6.5625 1.691406 6.980469 2.109375 7.5 2.109375 Z M 7.5 0.703125 C 7.757812 0.703125 7.96875 0.914062 7.96875 1.171875 C 7.96875 1.429688 7.757812 1.640625 7.5 1.640625 C 7.242188 1.640625 7.03125 1.429688 7.03125 1.171875 C 7.03125 0.914062 7.242188 0.703125 7.5 0.703125 Z M 7.5 0.703125 "/>
<path style=" stroke:none;fill-rule:nonzero;fill:rgb(0%,0%,0%);fill-opacity:1;" d="M 13.820312 12.882812 C 13.304688 12.882812 12.882812 13.304688 12.882812 13.820312 C 12.882812 14.339844 13.304688 14.757812 13.820312 14.757812 C 14.339844 14.757812 14.757812 14.339844 14.757812 13.820312 C 14.757812 13.304688 14.339844 12.882812 13.820312 12.882812 Z M 13.820312 14.289062 C 13.5625 14.289062 13.351562 14.082031 13.351562 13.820312 C 13.351562 13.5625 13.5625 13.351562 13.820312 13.351562 C 14.082031 13.351562 14.289062 13.5625 14.289062 13.820312 C 14.289062 14.082031 14.082031 14.289062 13.820312 14.289062 Z M 13.820312 14.289062 "/>
<path style=" stroke:none;fill-rule:nonzero;fill:rgb(0%,0%,0%);fill-opacity:1;" d="M 1.179688 12.882812 C 0.660156 12.882812 0.242188 13.304688 0.242188 13.820312 C 0.242188 14.339844 0.660156 14.757812 1.179688 14.757812 C 1.695312 14.757812 2.117188 14.339844 2.117188 13.820312 C 2.117188 13.304688 1.695312 12.882812 1.179688 12.882812 Z M 1.179688 14.289062 C 0.917969 14.289062 0.710938 14.082031 0.710938 13.820312 C 0.710938 13.5625 0.917969 13.351562 1.179688 13.351562 C 1.4375 13.351562 1.648438 13.5625 1.648438 13.820312 C 1.648438 14.082031 1.4375 14.289062 1.179688 14.289062 Z M 1.179688 14.289062 "/>
<path style=" stroke:none;fill-rule:nonzero;fill:rgb(0%,0%,0%);fill-opacity:1;" d="M 7.5 12.882812 C 6.980469 12.882812 6.5625 13.304688 6.5625 13.820312 C 6.5625 14.339844 6.980469 14.757812 7.5 14.757812 C 8.019531 14.757812 8.4375 14.339844 8.4375 13.820312 C 8.4375 13.304688 8.019531 12.882812 7.5 12.882812 Z M 7.5 14.289062 C 7.242188 14.289062 7.03125 14.082031 7.03125 13.820312 C 7.03125 13.5625 7.242188 13.351562 7.5 13.351562 C 7.757812 13.351562 7.96875 13.5625 7.96875 13.820312 C 7.96875 14.082031 7.757812 14.289062 7.5 14.289062 Z M 7.5 14.289062 "/>
<path style=" stroke:none;fill-rule:nonzero;fill:rgb(0%,0%,0%);fill-opacity:1;" d="M 13.820312 2.203125 C 14.339844 2.203125 14.757812 1.78125 14.757812 1.265625 C 14.757812 0.746094 14.339844 0.328125 13.820312 0.328125 C 13.304688 0.328125 12.882812 0.746094 12.882812 1.265625 C 12.882812 1.78125 13.304688 2.203125 13.820312 2.203125 Z M 13.820312 0.796875 C 14.082031 0.796875 14.289062 1.003906 14.289062 1.265625 C 14.289062 1.523438 14.082031 1.734375 13.820312 1.734375 C 13.5625 1.734375 13.351562 1.523438 13.351562 1.265625 C 13.351562 1.003906 13.5625 0.796875 13.820312 0.796875 Z M 13.820312 0.796875 "/>
<path style=" stroke:none;fill-rule:nonzero;fill:rgb(0%,0%,0%);fill-opacity:1;" d="M 1.171875 8.390625 C 1.691406 8.390625 2.109375 7.972656 2.109375 7.453125 C 2.109375 6.933594 1.691406 6.515625 1.171875 6.515625 C 0.652344 6.515625 0.234375 6.933594 0.234375 7.453125 C 0.234375 7.972656 0.652344 8.390625 1.171875 8.390625 Z M 1.171875 6.984375 C 1.429688 6.984375 1.640625 7.195312 1.640625 7.453125 C 1.640625 7.710938 1.429688 7.921875 1.171875 7.921875 C 0.914062 7.921875 0.703125 7.710938 0.703125 7.453125 C 0.703125 7.195312 0.914062 6.984375 1.171875 6.984375 Z M 1.171875 6.984375 "/>
<path style=" stroke:none;fill-rule:nonzero;fill:rgb(0%,0%,0%);fill-opacity:1;" d="M 13.820312 6.609375 C 13.304688 6.609375 12.882812 7.027344 12.882812 7.546875 C 12.882812 8.066406 13.304688 8.484375 13.820312 8.484375 C 14.339844 8.484375 14.757812 8.066406 14.757812 7.546875 C 14.757812 7.027344 14.339844 6.609375 13.820312 6.609375 Z M 13.820312 8.015625 C 13.5625 8.015625 13.351562 7.804688 13.351562 7.546875 C 13.351562 7.289062 13.5625 7.078125 13.820312 7.078125 C 14.082031 7.078125 14.289062 7.289062 14.289062 7.546875 C 14.289062 7.804688 14.082031 8.015625 13.820312 8.015625 Z M 13.820312 8.015625 "/>
<path style=" stroke:none;fill-rule:nonzero;fill:rgb(0%,0%,0%);fill-opacity:1;" d="M 1.171875 3.75 C 1.042969 3.75 0.9375 3.855469 0.9375 3.984375 L 0.9375 4.003906 C 0.9375 4.0625 0.964844 4.121094 1.007812 4.164062 C 1.050781 4.207031 1.109375 4.230469 1.171875 4.226562 C 1.304688 4.222656 1.40625 4.117188 1.40625 3.984375 C 1.40625 3.855469 1.300781 3.75 1.171875 3.75 Z M 1.171875 3.75 "/>
<path style=" stroke:none;fill-rule:nonzero;fill:rgb(0%,0%,0%);fill-opacity:1;" d="M 1.171875 2.304688 C 1.042969 2.304688 0.9375 2.410156 0.9375 2.539062 L 0.9375 2.558594 C 0.9375 2.621094 0.964844 2.679688 1.007812 2.71875 C 1.050781 2.761719 1.109375 2.785156 1.171875 2.785156 C 1.304688 2.777344 1.40625 2.671875 1.40625 2.539062 C 1.40625 2.410156 1.300781 2.304688 1.171875 2.304688 Z M 1.171875 2.304688 "/>
<path style=" stroke:none;fill-rule:nonzero;fill:rgb(0%,0%,0%);fill-opacity:1;" d="M 1.171875 5.914062 C 1.042969 5.914062 0.9375 6.019531 0.9375 6.148438 L 0.9375 6.167969 C 0.9375 6.230469 0.964844 6.289062 1.007812 6.328125 C 1.050781 6.371094 1.109375 6.394531 1.171875 6.394531 C 1.304688 6.386719 1.40625 6.28125 1.40625 6.148438 C 1.40625 6.019531 1.300781 5.914062 1.171875 5.914062 Z M 1.171875 5.914062 "/>
<path style=" stroke:none;fill-rule:nonzero;fill:rgb(0%,0%,0%);fill-opacity:1;" d="M 1.171875 5.191406 C 1.042969 5.191406 0.9375 5.296875 0.9375 5.425781 L 0.9375 5.445312 C 0.9375 5.507812 0.964844 5.566406 1.007812 5.609375 C 1.050781 5.648438 1.109375 5.671875 1.171875 5.671875 C 1.304688 5.667969 1.40625 5.558594 1.40625 5.425781 C 1.40625 5.296875 1.300781 5.191406 1.171875 5.191406 Z M 1.171875 5.191406 "/>
<path style=" stroke:none;fill-rule:nonzero;fill:rgb(0%,0%,0%);fill-opacity:1;" d="M 1.171875 4.472656 C 1.042969 4.472656 0.9375 4.574219 0.9375 4.707031 L 0.9375 4.722656 C 0.9375 4.785156 0.964844 4.84375 1.007812 4.886719 C 1.050781 4.929688 1.109375 4.953125 1.171875 4.949219 C 1.304688 4.945312 1.40625 4.835938 1.40625 4.707031 C 1.40625 4.574219 1.300781 4.472656 1.171875 4.472656 Z M 1.171875 4.472656 "/>
<path style=" stroke:none;fill-rule:nonzero;fill:rgb(0%,0%,0%);fill-opacity:1;" d="M 1.171875 3.027344 C 1.042969 3.027344 0.9375 3.132812 0.9375 3.261719 L 0.9375 3.28125 C 0.9375 3.34375 0.964844 3.402344 1.007812 3.441406 C 1.050781 3.484375 1.109375 3.507812 1.171875 3.507812 C 1.304688 3.5 1.40625 3.394531 1.40625 3.261719 C 1.40625 3.199219 1.382812 3.140625 1.339844 3.097656 C 1.292969 3.050781 1.234375 3.027344 1.171875 3.027344 Z M 1.171875 3.027344 "/>
<path style=" stroke:none;fill-rule:nonzero;fill:rgb(0%,0%,0%);fill-opacity:1;" d="M 14.0625 2.46875 C 14.0625 2.40625 14.035156 2.351562 13.992188 2.308594 C 13.949219 2.265625 13.890625 2.242188 13.828125 2.246094 C 13.695312 2.25 13.59375 2.355469 13.59375 2.488281 C 13.59375 2.617188 13.699219 2.722656 13.828125 2.722656 C 13.957031 2.722656 14.0625 2.617188 14.0625 2.488281 Z M 14.0625 2.46875 "/>
<path style=" stroke:none;fill-rule:nonzero;fill:rgb(0%,0%,0%);fill-opacity:1;" d="M 14.0625 4.636719 C 14.0625 4.574219 14.035156 4.515625 13.992188 4.472656 C 13.949219 4.429688 13.890625 4.40625 13.828125 4.410156 C 13.695312 4.414062 13.59375 4.523438 13.59375 4.652344 C 13.59375 4.78125 13.699219 4.886719 13.828125 4.886719 C 13.957031 4.886719 14.0625 4.78125 14.0625 4.652344 Z M 14.0625 4.636719 "/>
<path style=" stroke:none;fill-rule:nonzero;fill:rgb(0%,0%,0%);fill-opacity:1;" d="M 14.0625 3.191406 C 14.0625 3.128906 14.035156 3.070312 13.992188 3.027344 C 13.949219 2.988281 13.890625 2.964844 13.828125 2.964844 C 13.695312 2.96875 13.59375 3.078125 13.59375 3.210938 C 13.59375 3.339844 13.699219 3.445312 13.828125 3.445312 C 13.957031 3.445312 14.0625 3.339844 14.0625 3.210938 Z M 14.0625 3.191406 "/>
<path style=" stroke:none;fill-rule:nonzero;fill:rgb(0%,0%,0%);fill-opacity:1;" d="M 14.0625 5.355469 C 14.0625 5.296875 14.035156 5.238281 13.992188 5.195312 C 13.949219 5.152344 13.890625 5.128906 13.828125 5.132812 C 13.695312 5.136719 13.59375 5.246094 13.59375 5.375 C 13.59375 5.503906 13.699219 5.609375 13.828125 5.609375 C 13.957031 5.609375 14.0625 5.503906 14.0625 5.375 Z M 14.0625 5.355469 "/>
<path style=" stroke:none;fill-rule:nonzero;fill:rgb(0%,0%,0%);fill-opacity:1;" d="M 14.0625 3.914062 C 14.0625 3.851562 14.035156 3.792969 13.992188 3.753906 C 13.949219 3.710938 13.890625 3.6875 13.828125 3.6875 C 13.695312 3.695312 13.59375 3.800781 13.59375 3.933594 C 13.59375 4.0625 13.699219 4.167969 13.828125 4.167969 C 13.957031 4.167969 14.0625 4.0625 14.0625 3.933594 Z M 14.0625 3.914062 "/>
<path style=" stroke:none;fill-rule:nonzero;fill:rgb(0%,0%,0%);fill-opacity:1;" d="M 13.828125 5.855469 C 13.695312 5.859375 13.59375 5.964844 13.59375 6.097656 C 13.59375 6.226562 13.699219 6.332031 13.828125 6.332031 C 13.957031 6.332031 14.0625 6.226562 14.0625 6.097656 L 14.0625 6.078125 C 14.0625 6.019531 14.035156 5.960938 13.992188 5.917969 C 13.949219 5.875 13.890625 5.851562 13.828125 5.855469 Z M 13.828125 5.855469 "/>
<path style=" stroke:none;fill-rule:nonzero;fill:rgb(0%,0%,0%);fill-opacity:1;" d="M 10.96875 1.40625 C 11.097656 1.40625 11.203125 1.300781 11.203125 1.171875 C 11.203125 1.042969 11.097656 0.9375 10.96875 0.9375 L 10.949219 0.9375 C 10.890625 0.9375 10.832031 0.964844 10.789062 1.007812 C 10.746094 1.050781 10.722656 1.109375 10.726562 1.171875 C 10.730469 1.304688 10.835938 1.40625 10.96875 1.40625 Z M 10.96875 1.40625 "/>
<path style=" stroke:none;fill-rule:nonzero;fill:rgb(0%,0%,0%);fill-opacity:1;" d="M 9.527344 1.40625 C 9.65625 1.40625 9.761719 1.300781 9.761719 1.171875 C 9.761719 1.042969 9.65625 0.9375 9.527344 0.9375 L 9.507812 0.9375 C 9.445312 0.9375 9.386719 0.964844 9.34375 1.007812 C 9.300781 1.050781 9.28125 1.109375 9.28125 1.171875 C 9.285156 1.304688 9.394531 1.40625 9.527344 1.40625 Z M 9.527344 1.40625 "/>
<path style=" stroke:none;fill-rule:nonzero;fill:rgb(0%,0%,0%);fill-opacity:1;" d="M 10.246094 1.40625 C 10.375 1.40625 10.480469 1.300781 10.480469 1.171875 C 10.480469 1.042969 10.375 0.9375 10.246094 0.9375 L 10.230469 0.9375 C 10.167969 0.9375 10.109375 0.964844 10.066406 1.007812 C 10.023438 1.050781 10 1.109375 10.003906 1.171875 C 10.007812 1.304688 10.117188 1.40625 10.246094 1.40625 Z M 10.246094 1.40625 "/>
<path style=" stroke:none;fill-rule:nonzero;fill:rgb(0%,0%,0%);fill-opacity:1;" d="M 8.804688 1.40625 C 8.933594 1.40625 9.039062 1.300781 9.039062 1.171875 C 9.039062 1.042969 8.933594 0.9375 8.804688 0.9375 L 8.785156 0.9375 C 8.722656 0.9375 8.664062 0.964844 8.621094 1.007812 C 8.582031 1.050781 8.558594 1.109375 8.558594 1.171875 C 8.5625 1.304688 8.671875 1.40625 8.804688 1.40625 Z M 8.804688 1.40625 "/>
<path style=" stroke:none;fill-rule:nonzero;fill:rgb(0%,0%,0%);fill-opacity:1;" d="M 11.691406 1.40625 C 11.820312 1.40625 11.925781 1.300781 11.925781 1.171875 C 11.925781 1.042969 11.820312 0.9375 11.691406 0.9375 L 11.671875 0.9375 C 11.609375 0.9375 11.550781 0.964844 11.511719 1.007812 C 11.46875 1.050781 11.445312 1.109375 11.445312 1.171875 C 11.453125 1.304688 11.558594 1.40625 11.691406 1.40625 Z M 11.691406 1.40625 "/>
<path style=" stroke:none;fill-rule:nonzero;fill:rgb(0%,0%,0%);fill-opacity:1;" d="M 12.414062 1.40625 C 12.542969 1.40625 12.648438 1.300781 12.648438 1.171875 C 12.648438 1.042969 12.542969 0.9375 12.414062 0.9375 L 12.394531 0.9375 C 12.332031 0.9375 12.273438 0.964844 12.230469 1.007812 C 12.191406 1.050781 12.167969 1.109375 12.167969 1.171875 C 12.171875 1.304688 12.28125 1.40625 12.414062 1.40625 Z M 12.414062 1.40625 "/>
<path style=" stroke:none;fill-rule:nonzero;fill:rgb(0%,0%,0%);fill-opacity:1;" d="M 4.054688 1.40625 C 4.183594 1.40625 4.289062 1.300781 4.289062 1.171875 C 4.289062 1.042969 4.183594 0.9375 4.054688 0.9375 L 4.035156 0.9375 C 3.972656 0.9375 3.914062 0.964844 3.871094 1.007812 C 3.832031 1.050781 3.808594 1.109375 3.808594 1.171875 C 3.8125 1.304688 3.921875 1.40625 4.054688 1.40625 Z M 4.054688 1.40625 "/>
<path style=" stroke:none;fill-rule:nonzero;fill:rgb(0%,0%,0%);fill-opacity:1;" d="M 5.496094 1.40625 C 5.625 1.40625 5.730469 1.300781 5.730469 1.171875 C 5.730469 1.042969 5.625 0.9375 5.496094 0.9375 L 5.476562 0.9375 C 5.417969 0.9375 5.359375 0.964844 5.316406 1.007812 C 5.273438 1.050781 5.25 1.109375 5.253906 1.171875 C 5.257812 1.304688 5.367188 1.40625 5.496094 1.40625 Z M 5.496094 1.40625 "/>
<path style=" stroke:none;fill-rule:nonzero;fill:rgb(0%,0%,0%);fill-opacity:1;" d="M 2.609375 1.40625 C 2.738281 1.40625 2.84375 1.300781 2.84375 1.171875 C 2.84375 1.042969 2.738281 0.9375 2.609375 0.9375 L 2.589844 0.9375 C 2.53125 0.9375 2.472656 0.964844 2.429688 1.007812 C 2.386719 1.050781 2.363281 1.109375 2.367188 1.171875 C 2.371094 1.304688 2.476562 1.40625 2.609375 1.40625 Z M 2.609375 1.40625 "/>
<path style=" stroke:none;fill-rule:nonzero;fill:rgb(0%,0%,0%);fill-opacity:1;" d="M 4.773438 1.40625 C 4.90625 1.40625 5.007812 1.300781 5.007812 1.171875 C 5.007812 1.042969 4.90625 0.9375 4.773438 0.9375 L 4.757812 0.9375 C 4.695312 0.9375 4.636719 0.964844 4.59375 1.007812 C 4.550781 1.050781 4.527344 1.109375 4.53125 1.171875 C 4.535156 1.304688 4.644531 1.40625 4.773438 1.40625 Z M 4.773438 1.40625 "/>
<path style=" stroke:none;fill-rule:nonzero;fill:rgb(0%,0%,0%);fill-opacity:1;" d="M 3.332031 1.40625 C 3.460938 1.40625 3.566406 1.300781 3.566406 1.171875 C 3.566406 1.042969 3.460938 0.9375 3.332031 0.9375 L 3.3125 0.9375 C 3.25 0.9375 3.191406 0.964844 3.152344 1.007812 C 3.109375 1.050781 3.085938 1.109375 3.085938 1.171875 C 3.09375 1.304688 3.199219 1.40625 3.332031 1.40625 Z M 3.332031 1.40625 "/>
<path style=" stroke:none;fill-rule:nonzero;fill:rgb(0%,0%,0%);fill-opacity:1;" d="M 6.21875 1.40625 C 6.347656 1.40625 6.453125 1.300781 6.453125 1.171875 C 6.453125 1.042969 6.347656 0.9375 6.21875 0.9375 L 6.199219 0.9375 C 6.140625 0.9375 6.082031 0.964844 6.039062 1.007812 C 5.996094 1.050781 5.972656 1.109375 5.976562 1.171875 C 5.980469 1.304688 6.085938 1.40625 6.21875 1.40625 Z M 6.21875 1.40625 "/>
<path style=" stroke:none;fill-rule:nonzero;fill:rgb(0%,0%,0%);fill-opacity:1;" d="M 3.234375 7.265625 L 3.214844 7.265625 C 3.15625 7.265625 3.097656 7.292969 3.054688 7.335938 C 3.011719 7.378906 2.988281 7.4375 2.992188 7.5 C 2.996094 7.632812 3.101562 7.734375 3.234375 7.734375 C 3.363281 7.734375 3.46875 7.628906 3.46875 7.5 C 3.46875 7.371094 3.363281 7.265625 3.234375 7.265625 Z M 3.234375 7.265625 "/>
<path style=" stroke:none;fill-rule:nonzero;fill:rgb(0%,0%,0%);fill-opacity:1;" d="M 3.9375 7.265625 C 3.875 7.265625 3.816406 7.292969 3.777344 7.335938 C 3.734375 7.378906 3.710938 7.4375 3.710938 7.5 C 3.71875 7.632812 3.824219 7.734375 3.957031 7.734375 C 4.085938 7.734375 4.191406 7.628906 4.191406 7.5 C 4.191406 7.371094 4.085938 7.265625 3.957031 7.265625 Z M 3.9375 7.265625 "/>
<path style=" stroke:none;fill-rule:nonzero;fill:rgb(0%,0%,0%);fill-opacity:1;" d="M 4.679688 7.734375 C 4.808594 7.734375 4.914062 7.628906 4.914062 7.5 C 4.914062 7.371094 4.808594 7.265625 4.679688 7.265625 L 4.660156 7.265625 C 4.597656 7.265625 4.539062 7.292969 4.5 7.335938 C 4.457031 7.378906 4.433594 7.4375 4.433594 7.5 C 4.441406 7.632812 4.546875 7.734375 4.679688 7.734375 Z M 4.679688 7.734375 "/>
<path style=" stroke:none;fill-rule:nonzero;fill:rgb(0%,0%,0%);fill-opacity:1;" d="M 2.511719 7.265625 L 2.496094 7.265625 C 2.433594 7.265625 2.375 7.292969 2.332031 7.335938 C 2.289062 7.378906 2.265625 7.4375 2.269531 7.5 C 2.273438 7.632812 2.382812 7.734375 2.511719 7.734375 C 2.644531 7.734375 2.746094 7.628906 2.746094 7.5 C 2.746094 7.371094 2.644531 7.265625 2.511719 7.265625 Z M 2.511719 7.265625 "/>
<path style=" stroke:none;fill-rule:nonzero;fill:rgb(0%,0%,0%);fill-opacity:1;" d="M 12.550781 7.265625 L 12.53125 7.265625 C 12.472656 7.265625 12.414062 7.292969 12.371094 7.335938 C 12.328125 7.378906 12.304688 7.4375 12.308594 7.5 C 12.3125 7.632812 12.421875 7.734375 12.550781 7.734375 C 12.679688 7.734375 12.785156 7.628906 12.785156 7.5 C 12.785156 7.371094 12.679688 7.265625 12.550781 7.265625 Z M 12.550781 7.265625 "/>
<path style=" stroke:none;fill-rule:nonzero;fill:rgb(0%,0%,0%);fill-opacity:1;" d="M 11.109375 7.265625 L 11.089844 7.265625 C 11.027344 7.265625 10.96875 7.292969 10.925781 7.335938 C 10.886719 7.378906 10.863281 7.4375 10.863281 7.5 C 10.867188 7.632812 10.976562 7.734375 11.109375 7.734375 C 11.238281 7.734375 11.34375 7.628906 11.34375 7.5 C 11.34375 7.371094 11.238281 7.265625 11.109375 7.265625 Z M 11.109375 7.265625 "/>
<path style=" stroke:none;fill-rule:nonzero;fill:rgb(0%,0%,0%);fill-opacity:1;" d="M 10.367188 7.265625 C 10.304688 7.265625 10.246094 7.292969 10.207031 7.335938 C 10.164062 7.378906 10.140625 7.4375 10.140625 7.5 C 10.148438 7.632812 10.253906 7.734375 10.386719 7.734375 C 10.515625 7.734375 10.621094 7.628906 10.621094 7.5 C 10.621094 7.371094 10.515625 7.265625 10.386719 7.265625 Z M 10.367188 7.265625 "/>
<path style=" stroke:none;fill-rule:nonzero;fill:rgb(0%,0%,0%);fill-opacity:1;" d="M 11.828125 7.265625 L 11.8125 7.265625 C 11.75 7.265625 11.691406 7.292969 11.648438 7.335938 C 11.605469 7.378906 11.582031 7.4375 11.585938 7.5 C 11.589844 7.632812 11.699219 7.734375 11.828125 7.734375 C 11.960938 7.734375 12.0625 7.628906 12.0625 7.5 C 12.0625 7.371094 11.960938 7.265625 11.828125 7.265625 Z M 11.828125 7.265625 "/>
<path style=" stroke:none;fill-rule:nonzero;fill:rgb(0%,0%,0%);fill-opacity:1;" d="M 7.734375 2.441406 C 7.734375 2.378906 7.707031 2.320312 7.664062 2.277344 C 7.621094 2.234375 7.5625 2.214844 7.5 2.214844 C 7.367188 2.21875 7.265625 2.328125 7.265625 2.457031 C 7.265625 2.589844 7.371094 2.691406 7.5 2.691406 C 7.628906 2.691406 7.734375 2.589844 7.734375 2.457031 Z M 7.734375 2.441406 "/>
<path style=" stroke:none;fill-rule:nonzero;fill:rgb(0%,0%,0%);fill-opacity:1;" d="M 7.5 2.9375 C 7.367188 2.941406 7.265625 3.050781 7.265625 3.179688 C 7.265625 3.308594 7.371094 3.414062 7.5 3.414062 C 7.628906 3.414062 7.734375 3.308594 7.734375 3.179688 L 7.734375 3.160156 C 7.734375 3.101562 7.707031 3.042969 7.664062 3 C 7.621094 2.957031 7.5625 2.933594 7.5 2.9375 Z M 7.5 2.9375 "/>
<path style=" stroke:none;fill-rule:nonzero;fill:rgb(0%,0%,0%);fill-opacity:1;" d="M 7.5 12.804688 C 7.628906 12.804688 7.734375 12.699219 7.734375 12.570312 L 7.734375 12.550781 C 7.734375 12.492188 7.707031 12.433594 7.664062 12.390625 C 7.621094 12.347656 7.5625 12.324219 7.5 12.328125 C 7.367188 12.332031 7.265625 12.4375 7.265625 12.570312 C 7.265625 12.699219 7.371094 12.804688 7.5 12.804688 Z M 7.5 12.804688 "/>
<path style=" stroke:none;fill-rule:nonzero;fill:rgb(0%,0%,0%);fill-opacity:1;" d="M 7.5 12.082031 C 7.628906 12.082031 7.734375 11.976562 7.734375 11.847656 L 7.734375 11.828125 C 7.734375 11.769531 7.707031 11.710938 7.664062 11.667969 C 7.621094 11.625 7.5625 11.601562 7.5 11.605469 C 7.367188 11.609375 7.265625 11.71875 7.265625 11.847656 C 7.265625 11.976562 7.371094 12.082031 7.5 12.082031 Z M 7.5 12.082031 "/>
<path style=" stroke:none;fill-rule:nonzero;fill:rgb(0%,0%,0%);fill-opacity:1;" d="M 10.144531 4.503906 L 10.132812 4.515625 C 10.066406 4.582031 10.046875 4.679688 10.085938 4.765625 C 10.121094 4.851562 10.207031 4.90625 10.300781 4.90625 C 10.363281 4.90625 10.425781 4.882812 10.472656 4.835938 C 10.566406 4.746094 10.566406 4.597656 10.476562 4.503906 C 10.386719 4.414062 10.238281 4.410156 10.144531 4.5 Z M 10.144531 4.503906 "/>
<path style=" stroke:none;fill-rule:nonzero;fill:rgb(0%,0%,0%);fill-opacity:1;" d="M 11.160156 3.503906 C 11.097656 3.570312 11.078125 3.671875 11.113281 3.757812 C 11.152344 3.839844 11.234375 3.894531 11.328125 3.894531 C 11.394531 3.894531 11.457031 3.871094 11.503906 3.824219 C 11.59375 3.734375 11.59375 3.585938 11.503906 3.496094 C 11.414062 3.40625 11.265625 3.402344 11.175781 3.492188 Z M 11.160156 3.503906 "/>
<path style=" stroke:none;fill-rule:nonzero;fill:rgb(0%,0%,0%);fill-opacity:1;" d="M 10.988281 4.332031 C 11.078125 4.238281 11.078125 4.09375 10.988281 4 C 10.898438 3.910156 10.75 3.910156 10.660156 3.996094 L 10.644531 4.011719 C 10.582031 4.078125 10.5625 4.175781 10.601562 4.261719 C 10.636719 4.347656 10.722656 4.402344 10.8125 4.402344 C 10.878906 4.402344 10.941406 4.375 10.988281 4.332031 Z M 10.988281 4.332031 "/>
<path style=" stroke:none;fill-rule:nonzero;fill:rgb(0%,0%,0%);fill-opacity:1;" d="M 11.691406 2.984375 L 11.675781 2.996094 C 11.613281 3.0625 11.59375 3.164062 11.628906 3.25 C 11.667969 3.335938 11.75 3.390625 11.84375 3.390625 C 11.910156 3.390625 11.96875 3.363281 12.015625 3.320312 C 12.109375 3.230469 12.113281 3.082031 12.019531 2.988281 C 11.929688 2.894531 11.78125 2.894531 11.6875 2.984375 Z M 11.691406 2.984375 "/>
<path style=" stroke:none;fill-rule:nonzero;fill:rgb(0%,0%,0%);fill-opacity:1;" d="M 12.359375 2.882812 C 12.421875 2.882812 12.484375 2.859375 12.53125 2.8125 C 12.625 2.722656 12.625 2.574219 12.535156 2.480469 C 12.445312 2.390625 12.296875 2.386719 12.203125 2.476562 L 12.191406 2.492188 C 12.125 2.558594 12.105469 2.65625 12.144531 2.742188 C 12.179688 2.828125 12.265625 2.882812 12.359375 2.882812 Z M 12.359375 2.882812 "/>
<path style=" stroke:none;fill-rule:nonzero;fill:rgb(0%,0%,0%);fill-opacity:1;" d="M 12.710938 2.3125 C 12.753906 2.355469 12.8125 2.378906 12.875 2.378906 C 12.941406 2.378906 13.003906 2.351562 13.050781 2.308594 C 13.140625 2.214844 13.136719 2.070312 13.046875 1.980469 C 12.957031 1.886719 12.8125 1.886719 12.71875 1.976562 L 12.707031 1.988281 C 12.664062 2.03125 12.640625 2.089844 12.640625 2.152344 C 12.640625 2.210938 12.667969 2.269531 12.710938 2.3125 Z M 12.710938 2.3125 "/>
<path style=" stroke:none;fill-rule:nonzero;fill:rgb(0%,0%,0%);fill-opacity:1;" d="M 4.597656 4.835938 C 4.660156 4.835938 4.71875 4.808594 4.765625 4.765625 C 4.855469 4.667969 4.851562 4.519531 4.757812 4.425781 C 4.699219 4.363281 4.613281 4.335938 4.527344 4.359375 C 4.445312 4.378906 4.378906 4.445312 4.359375 4.527344 C 4.335938 4.609375 4.363281 4.699219 4.425781 4.757812 L 4.441406 4.769531 C 4.480469 4.8125 4.539062 4.835938 4.597656 4.835938 Z M 4.597656 4.835938 "/>
<path style=" stroke:none;fill-rule:nonzero;fill:rgb(0%,0%,0%);fill-opacity:1;" d="M 3.230469 3.234375 C 3.320312 3.140625 3.316406 2.988281 3.226562 2.898438 C 3.132812 2.808594 2.988281 2.808594 2.894531 2.902344 C 2.804688 2.992188 2.804688 3.136719 2.894531 3.230469 L 2.90625 3.242188 C 2.949219 3.285156 3.003906 3.308594 3.0625 3.308594 C 3.125 3.308594 3.1875 3.28125 3.230469 3.234375 Z M 3.230469 3.234375 "/>
<path style=" stroke:none;fill-rule:nonzero;fill:rgb(0%,0%,0%);fill-opacity:1;" d="M 2.394531 2.734375 C 2.4375 2.773438 2.492188 2.796875 2.550781 2.796875 C 2.613281 2.796875 2.675781 2.769531 2.71875 2.726562 C 2.808594 2.628906 2.808594 2.480469 2.714844 2.386719 C 2.621094 2.300781 2.476562 2.304688 2.390625 2.394531 C 2.300781 2.484375 2.296875 2.625 2.382812 2.71875 Z M 2.394531 2.734375 "/>
<path style=" stroke:none;fill-rule:nonzero;fill:rgb(0%,0%,0%);fill-opacity:1;" d="M 4.246094 3.917969 C 4.15625 3.828125 4.007812 3.828125 3.917969 3.921875 C 3.828125 4.011719 3.828125 4.15625 3.914062 4.25 L 3.929688 4.261719 C 3.96875 4.304688 4.027344 4.328125 4.085938 4.328125 C 4.148438 4.328125 4.210938 4.300781 4.253906 4.253906 C 4.34375 4.160156 4.339844 4.007812 4.246094 3.917969 Z M 4.246094 3.917969 "/>
<path style=" stroke:none;fill-rule:nonzero;fill:rgb(0%,0%,0%);fill-opacity:1;" d="M 1.871094 1.878906 C 1.78125 1.96875 1.78125 2.117188 1.871094 2.210938 L 1.882812 2.222656 C 1.925781 2.265625 1.980469 2.289062 2.039062 2.289062 C 2.105469 2.289062 2.164062 2.261719 2.210938 2.214844 C 2.300781 2.121094 2.296875 1.96875 2.203125 1.878906 C 2.160156 1.835938 2.097656 1.808594 2.035156 1.808594 C 1.976562 1.808594 1.914062 1.835938 1.871094 1.878906 Z M 1.871094 1.878906 "/>
<path style=" stroke:none;fill-rule:nonzero;fill:rgb(0%,0%,0%);fill-opacity:1;" d="M 3.40625 3.738281 L 3.417969 3.753906 C 3.460938 3.792969 3.515625 3.816406 3.574219 3.816406 C 3.636719 3.816406 3.699219 3.789062 3.742188 3.746094 C 3.832031 3.648438 3.828125 3.5 3.734375 3.40625 C 3.644531 3.320312 3.496094 3.320312 3.40625 3.410156 C 3.316406 3.5 3.316406 3.648438 3.40625 3.738281 Z M 3.40625 3.738281 "/>
<path style=" stroke:none;fill-rule:nonzero;fill:rgb(0%,0%,0%);fill-opacity:1;" d="M 13.828125 9.839844 C 13.957031 9.839844 14.0625 9.734375 14.0625 9.605469 L 14.0625 9.585938 C 14.0625 9.523438 14.035156 9.464844 13.992188 9.425781 C 13.949219 9.382812 13.890625 9.359375 13.828125 9.359375 C 13.695312 9.367188 13.59375 9.472656 13.59375 9.605469 C 13.59375 9.734375 13.699219 9.839844 13.828125 9.839844 Z M 13.828125 9.839844 "/>
<path style=" stroke:none;fill-rule:nonzero;fill:rgb(0%,0%,0%);fill-opacity:1;" d="M 13.828125 9.117188 C 13.957031 9.117188 14.0625 9.011719 14.0625 8.882812 L 14.0625 8.863281 C 14.0625 8.804688 14.035156 8.746094 13.992188 8.703125 C 13.949219 8.660156 13.890625 8.636719 13.828125 8.640625 C 13.695312 8.644531 13.59375 8.75 13.59375 8.882812 C 13.59375 9.011719 13.699219 9.117188 13.828125 9.117188 Z M 13.828125 9.117188 "/>
<path style=" stroke:none;fill-rule:nonzero;fill:rgb(0%,0%,0%);fill-opacity:1;" d="M 13.828125 10.5625 C 13.957031 10.5625 14.0625 10.457031 14.0625 10.328125 L 14.0625 10.308594 C 14.0625 10.246094 14.035156 10.1875 13.992188 10.144531 C 13.949219 10.105469 13.890625 10.082031 13.828125 10.082031 C 13.695312 10.085938 13.59375 10.195312 13.59375 10.328125 C 13.59375 10.457031 13.699219 10.5625 13.828125 10.5625 Z M 13.828125 10.5625 "/>
<path style=" stroke:none;fill-rule:nonzero;fill:rgb(0%,0%,0%);fill-opacity:1;" d="M 13.828125 12.003906 C 13.957031 12.003906 14.0625 11.898438 14.0625 11.769531 L 14.0625 11.75 C 14.0625 11.691406 14.035156 11.632812 13.992188 11.589844 C 13.949219 11.546875 13.890625 11.523438 13.828125 11.527344 C 13.695312 11.53125 13.59375 11.640625 13.59375 11.769531 C 13.59375 11.898438 13.699219 12.003906 13.828125 12.003906 Z M 13.828125 12.003906 "/>
<path style=" stroke:none;fill-rule:nonzero;fill:rgb(0%,0%,0%);fill-opacity:1;" d="M 13.828125 12.726562 C 13.957031 12.726562 14.0625 12.621094 14.0625 12.492188 L 14.0625 12.472656 C 14.0625 12.414062 14.035156 12.355469 13.992188 12.3125 C 13.949219 12.269531 13.890625 12.246094 13.828125 12.25 C 13.695312 12.253906 13.59375 12.359375 13.59375 12.492188 C 13.59375 12.621094 13.699219 12.726562 13.828125 12.726562 Z M 13.828125 12.726562 "/>
<path style=" stroke:none;fill-rule:nonzero;fill:rgb(0%,0%,0%);fill-opacity:1;" d="M 13.828125 11.28125 C 13.957031 11.28125 14.0625 11.179688 14.0625 11.046875 L 14.0625 11.03125 C 14.0625 10.96875 14.035156 10.910156 13.992188 10.867188 C 13.949219 10.824219 13.890625 10.804688 13.828125 10.804688 C 13.695312 10.808594 13.59375 10.917969 13.59375 11.046875 C 13.59375 11.179688 13.699219 11.28125 13.828125 11.28125 Z M 13.828125 11.28125 "/>
<path style=" stroke:none;fill-rule:nonzero;fill:rgb(0%,0%,0%);fill-opacity:1;" d="M 1.171875 10.144531 C 1.042969 10.144531 0.9375 10.25 0.9375 10.378906 L 0.9375 10.398438 C 0.9375 10.457031 0.964844 10.515625 1.007812 10.558594 C 1.050781 10.601562 1.109375 10.625 1.171875 10.621094 C 1.304688 10.617188 1.40625 10.507812 1.40625 10.378906 C 1.40625 10.25 1.300781 10.144531 1.171875 10.144531 Z M 1.171875 10.144531 "/>
<path style=" stroke:none;fill-rule:nonzero;fill:rgb(0%,0%,0%);fill-opacity:1;" d="M 1.171875 10.867188 C 1.042969 10.867188 0.9375 10.96875 0.9375 11.101562 L 0.9375 11.117188 C 0.9375 11.179688 0.964844 11.238281 1.007812 11.28125 C 1.050781 11.324219 1.109375 11.347656 1.171875 11.34375 C 1.304688 11.339844 1.40625 11.230469 1.40625 11.101562 C 1.40625 10.96875 1.300781 10.867188 1.171875 10.867188 Z M 1.171875 10.867188 "/>
<path style=" stroke:none;fill-rule:nonzero;fill:rgb(0%,0%,0%);fill-opacity:1;" d="M 1.171875 12.308594 C 1.042969 12.308594 0.9375 12.414062 0.9375 12.542969 L 0.9375 12.5625 C 0.9375 12.625 0.964844 12.683594 1.007812 12.726562 C 1.050781 12.765625 1.109375 12.789062 1.171875 12.789062 C 1.304688 12.785156 1.40625 12.675781 1.40625 12.542969 C 1.40625 12.414062 1.300781 12.308594 1.171875 12.308594 Z M 1.171875 12.308594 "/>
<path style=" stroke:none;fill-rule:nonzero;fill:rgb(0%,0%,0%);fill-opacity:1;" d="M 1.171875 11.585938 C 1.042969 11.585938 0.9375 11.691406 0.9375 11.820312 L 0.9375 11.839844 C 0.9375 11.902344 0.964844 11.960938 1.007812 12.003906 C 1.050781 12.046875 1.109375 12.066406 1.171875 12.066406 C 1.304688 12.0625 1.40625 11.953125 1.40625 11.820312 C 1.40625 11.691406 1.300781 11.585938 1.171875 11.585938 Z M 1.171875 11.585938 "/>
<path style=" stroke:none;fill-rule:nonzero;fill:rgb(0%,0%,0%);fill-opacity:1;" d="M 1.171875 9.421875 C 1.042969 9.421875 0.9375 9.527344 0.9375 9.65625 L 0.9375 9.675781 C 0.9375 9.734375 0.964844 9.792969 1.007812 9.835938 C 1.050781 9.878906 1.109375 9.902344 1.171875 9.898438 C 1.304688 9.894531 1.40625 9.789062 1.40625 9.65625 C 1.40625 9.527344 1.300781 9.421875 1.171875 9.421875 Z M 1.171875 9.421875 "/>
<path style=" stroke:none;fill-rule:nonzero;fill:rgb(0%,0%,0%);fill-opacity:1;" d="M 1.171875 8.699219 C 1.042969 8.699219 0.9375 8.804688 0.9375 8.933594 L 0.9375 8.953125 C 0.9375 9.015625 0.964844 9.074219 1.007812 9.113281 C 1.050781 9.15625 1.109375 9.179688 1.171875 9.179688 C 1.304688 9.171875 1.40625 9.066406 1.40625 8.933594 C 1.40625 8.804688 1.300781 8.699219 1.171875 8.699219 Z M 1.171875 8.699219 "/>
<path style=" stroke:none;fill-rule:nonzero;fill:rgb(0%,0%,0%);fill-opacity:1;" d="M 6.195312 13.625 C 6.066406 13.625 5.960938 13.730469 5.960938 13.859375 C 5.960938 13.988281 6.066406 14.09375 6.195312 14.09375 L 6.214844 14.09375 C 6.277344 14.09375 6.335938 14.070312 6.378906 14.023438 C 6.417969 13.980469 6.441406 13.921875 6.441406 13.859375 C 6.4375 13.730469 6.328125 13.625 6.195312 13.625 Z M 6.195312 13.625 "/>
<path style=" stroke:none;fill-rule:nonzero;fill:rgb(0%,0%,0%);fill-opacity:1;" d="M 4.03125 13.625 C 3.902344 13.625 3.796875 13.730469 3.796875 13.859375 C 3.796875 13.988281 3.902344 14.09375 4.03125 14.09375 L 4.050781 14.09375 C 4.109375 14.09375 4.167969 14.070312 4.210938 14.023438 C 4.253906 13.980469 4.277344 13.921875 4.273438 13.859375 C 4.269531 13.730469 4.164062 13.625 4.03125 13.625 Z M 4.03125 13.625 "/>
<path style=" stroke:none;fill-rule:nonzero;fill:rgb(0%,0%,0%);fill-opacity:1;" d="M 4.753906 13.625 C 4.625 13.625 4.519531 13.730469 4.519531 13.859375 C 4.519531 13.988281 4.625 14.09375 4.753906 14.09375 L 4.769531 14.09375 C 4.832031 14.09375 4.890625 14.070312 4.933594 14.023438 C 4.976562 13.980469 5 13.921875 4.996094 13.859375 C 4.992188 13.730469 4.882812 13.625 4.753906 13.625 Z M 4.753906 13.625 "/>
<path style=" stroke:none;fill-rule:nonzero;fill:rgb(0%,0%,0%);fill-opacity:1;" d="M 3.308594 13.625 C 3.179688 13.625 3.074219 13.730469 3.074219 13.859375 C 3.074219 13.988281 3.179688 14.09375 3.308594 14.09375 L 3.328125 14.09375 C 3.390625 14.09375 3.449219 14.070312 3.488281 14.023438 C 3.53125 13.980469 3.554688 13.921875 3.550781 13.859375 C 3.546875 13.730469 3.441406 13.625 3.308594 13.625 Z M 3.308594 13.625 "/>
<path style=" stroke:none;fill-rule:nonzero;fill:rgb(0%,0%,0%);fill-opacity:1;" d="M 2.585938 13.625 C 2.457031 13.625 2.351562 13.730469 2.351562 13.859375 C 2.351562 13.988281 2.457031 14.09375 2.585938 14.09375 L 2.605469 14.09375 C 2.667969 14.09375 2.726562 14.070312 2.769531 14.023438 C 2.808594 13.980469 2.832031 13.921875 2.832031 13.859375 C 2.828125 13.730469 2.71875 13.625 2.585938 13.625 Z M 2.585938 13.625 "/>
<path style=" stroke:none;fill-rule:nonzero;fill:rgb(0%,0%,0%);fill-opacity:1;" d="M 5.472656 13.625 C 5.34375 13.625 5.238281 13.730469 5.238281 13.859375 C 5.238281 13.988281 5.34375 14.09375 5.472656 14.09375 L 5.492188 14.09375 C 5.554688 14.09375 5.613281 14.070312 5.65625 14.023438 C 5.699219 13.980469 5.71875 13.921875 5.71875 13.859375 C 5.714844 13.730469 5.605469 13.625 5.472656 13.625 Z M 5.472656 13.625 "/>
<path style=" stroke:none;fill-rule:nonzero;fill:rgb(0%,0%,0%);fill-opacity:1;" d="M 9.503906 13.625 C 9.375 13.625 9.269531 13.730469 9.269531 13.859375 C 9.269531 13.988281 9.375 14.09375 9.503906 14.09375 L 9.523438 14.09375 C 9.582031 14.09375 9.640625 14.070312 9.683594 14.023438 C 9.726562 13.980469 9.75 13.921875 9.746094 13.859375 C 9.742188 13.730469 9.632812 13.625 9.503906 13.625 Z M 9.503906 13.625 "/>
<path style=" stroke:none;fill-rule:nonzero;fill:rgb(0%,0%,0%);fill-opacity:1;" d="M 10.226562 13.625 C 10.09375 13.625 9.992188 13.730469 9.992188 13.859375 C 9.992188 13.988281 10.09375 14.09375 10.226562 14.09375 L 10.242188 14.09375 C 10.304688 14.09375 10.363281 14.070312 10.40625 14.023438 C 10.449219 13.980469 10.472656 13.921875 10.46875 13.859375 C 10.464844 13.730469 10.355469 13.625 10.226562 13.625 Z M 10.226562 13.625 "/>
<path style=" stroke:none;fill-rule:nonzero;fill:rgb(0%,0%,0%);fill-opacity:1;" d="M 12.390625 13.625 C 12.261719 13.625 12.15625 13.730469 12.15625 13.859375 C 12.15625 13.988281 12.261719 14.09375 12.390625 14.09375 L 12.410156 14.09375 C 12.46875 14.09375 12.527344 14.070312 12.570312 14.023438 C 12.613281 13.980469 12.636719 13.921875 12.632812 13.859375 C 12.628906 13.730469 12.523438 13.625 12.390625 13.625 Z M 12.390625 13.625 "/>
<path style=" stroke:none;fill-rule:nonzero;fill:rgb(0%,0%,0%);fill-opacity:1;" d="M 11.667969 13.625 C 11.539062 13.625 11.433594 13.730469 11.433594 13.859375 C 11.433594 13.988281 11.539062 14.09375 11.667969 14.09375 L 11.6875 14.09375 C 11.75 14.09375 11.808594 14.070312 11.847656 14.023438 C 11.890625 13.980469 11.914062 13.921875 11.914062 13.859375 C 11.90625 13.730469 11.800781 13.625 11.667969 13.625 Z M 11.667969 13.625 "/>
<path style=" stroke:none;fill-rule:nonzero;fill:rgb(0%,0%,0%);fill-opacity:1;" d="M 10.945312 13.625 C 10.816406 13.625 10.710938 13.730469 10.710938 13.859375 C 10.710938 13.988281 10.816406 14.09375 10.945312 14.09375 L 10.964844 14.09375 C 11.027344 14.09375 11.085938 14.070312 11.128906 14.023438 C 11.167969 13.980469 11.191406 13.921875 11.191406 13.859375 C 11.1875 13.730469 11.078125 13.625 10.945312 13.625 Z M 10.945312 13.625 "/>
<path style=" stroke:none;fill-rule:nonzero;fill:rgb(0%,0%,0%);fill-opacity:1;" d="M 8.78125 13.625 C 8.652344 13.625 8.546875 13.730469 8.546875 13.859375 C 8.546875 13.988281 8.652344 14.09375 8.78125 14.09375 L 8.800781 14.09375 C 8.859375 14.09375 8.917969 14.070312 8.960938 14.023438 C 9.003906 13.980469 9.027344 13.921875 9.023438 13.859375 C 9.019531 13.730469 8.914062 13.625 8.78125 13.625 Z M 8.78125 13.625 "/>
<path style=" stroke:none;fill-rule:nonzero;fill:rgb(0%,0%,0%);fill-opacity:1;" d="M 3.839844 11.527344 C 3.882812 11.484375 3.90625 11.425781 3.90625 11.367188 C 3.90625 11.304688 3.878906 11.246094 3.835938 11.203125 C 3.742188 11.113281 3.589844 11.113281 3.496094 11.207031 C 3.433594 11.265625 3.410156 11.351562 3.429688 11.433594 C 3.449219 11.515625 3.511719 11.582031 3.59375 11.605469 C 3.675781 11.628906 3.765625 11.601562 3.824219 11.542969 Z M 3.839844 11.527344 "/>
<path style=" stroke:none;fill-rule:nonzero;fill:rgb(0%,0%,0%);fill-opacity:1;" d="M 2.289062 12.722656 C 2.195312 12.628906 2.046875 12.632812 1.953125 12.722656 C 1.890625 12.78125 1.863281 12.867188 1.882812 12.953125 C 1.902344 13.035156 1.96875 13.101562 2.050781 13.121094 C 2.132812 13.144531 2.21875 13.121094 2.28125 13.058594 L 2.292969 13.046875 C 2.335938 13.003906 2.359375 12.945312 2.359375 12.882812 C 2.359375 12.820312 2.335938 12.765625 2.289062 12.722656 Z M 2.289062 12.722656 "/>
<path style=" stroke:none;fill-rule:nonzero;fill:rgb(0%,0%,0%);fill-opacity:1;" d="M 2.464844 12.21875 C 2.375 12.3125 2.375 12.460938 2.464844 12.550781 C 2.554688 12.644531 2.703125 12.644531 2.796875 12.550781 L 2.808594 12.539062 C 2.851562 12.496094 2.875 12.4375 2.875 12.375 C 2.875 12.3125 2.847656 12.257812 2.804688 12.214844 C 2.707031 12.125 2.558594 12.125 2.464844 12.21875 Z M 2.464844 12.21875 "/>
<path style=" stroke:none;fill-rule:nonzero;fill:rgb(0%,0%,0%);fill-opacity:1;" d="M 3.308594 12.046875 L 3.324219 12.035156 C 3.367188 11.992188 3.390625 11.933594 3.390625 11.871094 C 3.390625 11.808594 3.363281 11.75 3.320312 11.710938 C 3.226562 11.617188 3.078125 11.621094 2.984375 11.710938 C 2.917969 11.769531 2.890625 11.855469 2.910156 11.941406 C 2.933594 12.023438 2.996094 12.089844 3.078125 12.113281 C 3.164062 12.132812 3.25 12.109375 3.308594 12.046875 Z M 3.308594 12.046875 "/>
<path style=" stroke:none;fill-rule:nonzero;fill:rgb(0%,0%,0%);fill-opacity:1;" d="M 4.691406 10.597656 C 4.753906 10.597656 4.8125 10.574219 4.855469 10.53125 L 4.867188 10.515625 C 4.914062 10.472656 4.9375 10.414062 4.9375 10.355469 C 4.9375 10.292969 4.910156 10.234375 4.867188 10.191406 C 4.773438 10.101562 4.621094 10.101562 4.527344 10.195312 C 4.460938 10.261719 4.4375 10.363281 4.476562 10.449219 C 4.511719 10.539062 4.597656 10.597656 4.691406 10.597656 Z M 4.691406 10.597656 "/>
<path style=" stroke:none;fill-rule:nonzero;fill:rgb(0%,0%,0%);fill-opacity:1;" d="M 4.011719 10.703125 C 3.949219 10.761719 3.925781 10.847656 3.945312 10.929688 C 3.96875 11.011719 4.03125 11.074219 4.113281 11.097656 C 4.195312 11.117188 4.28125 11.09375 4.34375 11.035156 L 4.355469 11.019531 C 4.398438 10.976562 4.421875 10.917969 4.421875 10.855469 C 4.417969 10.796875 4.394531 10.738281 4.347656 10.695312 C 4.253906 10.605469 4.101562 10.609375 4.011719 10.703125 Z M 4.011719 10.703125 "/>
<path style=" stroke:none;fill-rule:nonzero;fill:rgb(0%,0%,0%);fill-opacity:1;" d="M 12.605469 12.300781 C 12.5625 12.257812 12.5 12.234375 12.441406 12.234375 C 12.378906 12.234375 12.320312 12.261719 12.28125 12.304688 C 12.191406 12.402344 12.191406 12.550781 12.285156 12.644531 C 12.378906 12.734375 12.523438 12.730469 12.613281 12.640625 C 12.707031 12.550781 12.707031 12.40625 12.617188 12.3125 Z M 12.605469 12.300781 "/>
<path style=" stroke:none;fill-rule:nonzero;fill:rgb(0%,0%,0%);fill-opacity:1;" d="M 13.128906 13.152344 C 13.175781 13.109375 13.199219 13.046875 13.199219 12.984375 C 13.195312 12.921875 13.171875 12.863281 13.128906 12.820312 L 13.113281 12.808594 C 13.070312 12.765625 13.011719 12.742188 12.949219 12.742188 C 12.886719 12.746094 12.832031 12.773438 12.789062 12.816406 C 12.699219 12.914062 12.703125 13.0625 12.796875 13.15625 C 12.890625 13.246094 13.039062 13.242188 13.128906 13.152344 Z M 13.128906 13.152344 "/>
<path style=" stroke:none;fill-rule:nonzero;fill:rgb(0%,0%,0%);fill-opacity:1;" d="M 12.105469 11.800781 L 12.09375 11.789062 C 12.050781 11.746094 11.992188 11.722656 11.929688 11.722656 C 11.867188 11.726562 11.8125 11.75 11.769531 11.796875 C 11.679688 11.890625 11.683594 12.042969 11.777344 12.132812 C 11.867188 12.222656 12.011719 12.222656 12.105469 12.128906 C 12.195312 12.039062 12.195312 11.894531 12.105469 11.800781 Z M 12.105469 11.800781 "/>
<path style=" stroke:none;fill-rule:nonzero;fill:rgb(0%,0%,0%);fill-opacity:1;" d="M 10.558594 10.261719 C 10.515625 10.21875 10.457031 10.195312 10.394531 10.195312 C 10.335938 10.195312 10.277344 10.222656 10.234375 10.265625 C 10.144531 10.363281 10.148438 10.511719 10.242188 10.605469 C 10.332031 10.695312 10.480469 10.691406 10.570312 10.601562 C 10.660156 10.511719 10.660156 10.367188 10.574219 10.273438 Z M 10.558594 10.261719 "/>
<path style=" stroke:none;fill-rule:nonzero;fill:rgb(0%,0%,0%);fill-opacity:1;" d="M 11.59375 11.292969 L 11.582031 11.28125 C 11.539062 11.238281 11.480469 11.214844 11.417969 11.214844 C 11.355469 11.214844 11.300781 11.242188 11.257812 11.285156 C 11.167969 11.382812 11.171875 11.53125 11.265625 11.625 C 11.355469 11.714844 11.503906 11.710938 11.59375 11.621094 C 11.683594 11.53125 11.683594 11.386719 11.59375 11.292969 Z M 11.59375 11.292969 "/>
<path style=" stroke:none;fill-rule:nonzero;fill:rgb(0%,0%,0%);fill-opacity:1;" d="M 10.917969 11.183594 C 11.011719 11.183594 11.097656 11.125 11.136719 11.039062 C 11.171875 10.953125 11.152344 10.851562 11.085938 10.785156 L 11.070312 10.769531 C 11.027344 10.726562 10.96875 10.703125 10.90625 10.703125 C 10.847656 10.707031 10.789062 10.730469 10.746094 10.777344 C 10.65625 10.871094 10.660156 11.023438 10.753906 11.113281 C 10.796875 11.160156 10.855469 11.183594 10.917969 11.183594 Z M 10.917969 11.183594 "/>
</g>
</svg>
