<svg xmlns="http://www.w3.org/2000/svg" data-name="Layer 1" height="25.57303377528818" width="25.67415733226636"><rect id="backgroundrect" width="100%" height="100%" x="0" y="0" fill="none" stroke="none" style="" class=""/><title>Forest</title><g class="currentLayer" style=""><title>Layer 1</title><path fill="#009900" fill-opacity="1" stroke="#ffffff" stroke-opacity="1" stroke-width="1" stroke-dasharray="none" stroke-linejoin="miter" stroke-linecap="butt" stroke-dashoffset="" fill-rule="nonzero" opacity="1" marker-start="" marker-mid="" marker-end="" d="M0.5505617349608019,12.691010957081291 C0.5505617349608019,6.04565744788358 5.983580384720983,0.6629211054334354 12.691010816523676,0.6629211054334354 C19.398441248326368,0.6629211054334354 24.831459898086546,6.04565744788358 24.831459898086546,12.691010957081291 C24.831459898086546,19.336364466279004 19.398441248326368,24.719100808729152 12.691010816523676,24.719100808729152 C5.983580384720983,24.719100808729152 0.5505617349608019,19.336364466279004 0.5505617349608019,12.691010957081291 z" id="svg_2" class=""/><path d="M21.903520354764645,13.746258043915402 a2.5109022771318408,2.8836552594415905 0 0 0 -0.38252270560466634,-0.6676736579741237 a2.289248869593106,2.629096561461382 0 0 0 -0.6743176224067579,-3.329278506987596 A2.082021453398142,2.391105448046287 0 0 0 19.231241920411552,6.897084252930227 q0.0004288808237337016,-0.02328417290232348 0.0003898916579397281,-0.04656834580464691 a2.0795261467873267,2.388239703689078 0 0 0 -4.15901330440886,-0.009985327994650251 a2.079487157621533,2.3881949264334974 0 0 0 -4.158896336911477,-0.0009403223672092181 A2.0795261467873267,2.388239703689078 0 0 0 6.754708866340298,6.850515907125585 q0,0.022970732113253744 0.0003509024921457559,0.04598624148208878 a2.080110984274236,2.388911362522799 0 0 0 -1.6173095862997804,2.854773929591593 a2.28948280458787,2.6293652249948702 0 0 0 -0.6727970449407926,3.3274874167643387 a2.4953066108142523,2.8657443572090333 0 0 0 1.8742871780478547,4.757135632966995 h0.8315219388880559 v3.3433833424957333 A0.415897431524307,0.47763898528670007 0 0 0 7.5864647402231125,21.656876678457447 h2.4953066108142523 A0.415897431524307,0.47763898528670007 0 0 0 10.497668782561679,21.179237693170748 V17.8358991279306 h0.8317558738828189 v3.3433833424957333 A0.415897431524307,0.47763898528670007 0 0 0 11.7453220879688,21.656876678457447 h2.4953066108142523 a0.415897431524307,0.47763898528670007 0 0 0 0.415897431524307,-0.47763898528670007 V17.8358991279306 H15.488282004190179 v3.3433833424957333 A0.415897431524307,0.47763898528670007 0 0 0 15.904140446548684,21.656876678457447 h2.4953066108142523 a0.415897431524307,0.47763898528670007 0 0 0 0.415897431524307,-0.47763898528670007 V17.8358991279306 h0.8315999172196429 a2.498152819917212,2.8690130968664747 0 0 0 2.4953066108142523,-2.8657443572090333 A2.4668835089504455,2.8331017378901997 0 0 0 21.903520354764645,13.746258043915402 zm-10.534872597531416,-5.940464166216419 A0.4158584423585128,0.4775942080311183 0 0 0 11.784311253762771,7.209316056099272 a1.2479262295676836,1.4331856193935866 0 1 1 2.417328279226306,0 a0.415897431524307,0.47763898528670007 0 0 0 0.41535158320319127,0.5965673761108748 l0.014659926338533776,-0.0005821043225580875 c0.008226713982528264,-0.00031344078906973924 0.016531406296644457,-0.000761213344883653 0.024836098610760644,-0.000761213344883653 a1.2476533054071257,1.4328721786045167 0 0 1 1.1552489824754097,1.9741396440723726 a0.415897431524307,0.47763898528670007 0 0 0 0.19260647902222527,0.60413473230413 a1.4553875807574124,1.6714453963421687 0 0 1 0.4956302755729818,2.481152509020465 a0.415897431524307,0.47763898528670007 0 0 0 0.06409818856529118,0.6497179784859866 a1.6631608452734927,1.9100633913354026 0 0 1 -1.0761009759136475,3.3672496197206145 H10.497668782561679 a1.6631218561076988,1.9100186140798205 0 0 1 -1.0761009759136475,-3.366846624420382 a0.4158584423585128,0.4775942080311183 0 0 0 0.0640591993994973,-0.6496284239748232 a1.4553875807574124,1.6714453963421687 0 0 1 0.49461655726233794,-2.4803017411644186 a0.415936420690101,0.4776837625422814 0 0 0 0.19213860903269744,-0.6044929503487809 a1.2476533054071257,1.4328721786045167 0 0 1 1.1548980799832649,-1.9751247436951644 c0.009162453961583607,0 0.018246929591579263,0.00044777255581391294 0.027292416055780946,0.0008059906004650427 zM5.162586281143431,16.32077113082307 a1.6618742028022915,1.9085857419012164 0 0 1 0.10028013442209795,-2.8067727116083407 a0.415897431524307,0.47763898528670007 0 0 0 0.0640591993994973,-0.6498523102527296 a1.4554265699232065,1.67149017359775 0 0 1 0.4944216114333683,-2.4799883003753482 A0.4158584423585128,0.4775942080311183 0 0 0 6.013914716254817,9.780426071582747 a1.2476533054071257,1.4328721786045167 0 0 1 1.15454717749112,-1.9760650660623729 c0.011345847246046098,0 0.022418770331534374,0.0007164360893022611 0.03598700002783689,0.0014328721786045213 a0.4158584423585128,0.4775942080311183 0 0 0 0.4213559147354632,-0.595537499232503 a1.262469188408836,1.4498875357254457 0 0 1 -0.0393790574519125,-0.3596061395741523 a1.2478482512360956,1.4330960648824242 0 1 1 2.456317445020279,0.358665817206943 a0.41562450736374884,0.47732554449763026 0 0 0 -0.011306858080252101,0.16186977892672913 a2.0794091792899456,2.388105371922334 0 0 0 -0.7350627427137673,2.3801350204288476 a2.289209880427312,2.6290517842058003 0 0 0 -0.6728360341065868,3.3274874167643387 a2.491407694234854,2.861266631650894 0 0 0 0.016258482136086626,3.8019024396491763 H6.339045369810751 A1.6527897271722953,1.8981526413507521 0 0 1 5.162586281143431,16.32077113082307 zm4.503248649203844,4.380827577060983 H8.00236217174743 v-2.8657443572090333 h1.6635507369314322 zm4.158857347745684,0 H12.161180530327307 v-2.8657443572090333 h1.6635507369314322 zm4.158857347745684,0 H16.320037878073002 v-2.8657443572090333 H17.98358861500443 zm1.6633947802682563,-3.8209775505268513 H17.346115754272972 a2.4916026400638245,2.8614905179288006 0 0 0 0.016063536307116807,-3.8022158804382493 a2.289209880427312,2.6290517842058003 0 0 0 -0.6745125682357275,-3.329054620709688 A2.079019287632006,2.387657599366521 0 0 0 15.95443647042292,7.372932147993675 a0.415156637374221,0.47678821743065325 0 0 0 -0.011033933919694297,-0.16285487854951977 a1.262469188408836,1.4498875357254457 0 0 1 -0.0393790574519125,-0.3596061395741523 a1.2478482512360956,1.4330960648824242 0 1 1 2.456317445020279,0.358665817206943 a0.4158584423585128,0.4775942080311183 0 0 0 0.402719093485944,0.5965673761108748 c0.003236100760899744,0 0.006511190687593454,0 0.009708302282699243,0 l0.021366062855097092,-0.0007164360893022611 c0.006979060677121133,-0.00026866353348834875 0.013919132188448292,-0.0005821043225580875 0.020937182031363397,-0.0005821043225580875 a1.24827713205983,1.4335886146938188 0 0 1 1.1554829174701742,1.974184421327954 a0.415897431524307,0.47763898528670007 0 0 0 0.192723446519607,0.6044929503487809 a1.4554655590890002,1.671534950853331 0 0 1 0.49551330807559973,2.481062954509302 a0.4158584423585128,0.4775942080311183 0 0 0 0.06441010189164291,0.6496732012304043 a1.6783666199331415,1.9275265210121446 0 0 1 0.42852992124155365,0.6415237407145912 a1.6420677065789535,1.8858388960658703 0 0 1 0.1586469156156755,0.8149460515813189 A1.665461206055337,1.9127052494147045 0 0 1 19.6469444061069,16.8806211573572 z" id="svg_1" class="" fill="#ffffff" fill-opacity="1"/><path fill="" fill-opacity="1" stroke="none" stroke-opacity="1" stroke-width="1" stroke-dasharray="none" stroke-linejoin="miter" stroke-linecap="butt" stroke-dashoffset="" fill-rule="nonzero" opacity="1" marker-start="" marker-mid="" marker-end="" d="M8,7 C8,6.447513812154696 8,6 8,6 C8,6 8,6.447513812154696 8,7 C8,7.552486187845304 8,8 8,8 C8,8 8,7.552486187845304 8,7 Z" id="svg_4"/></g></svg>