<svg xmlns="http://www.w3.org/2000/svg" width="25.07692356940683" height="26.195804673364236" style=""><rect id="backgroundrect" width="100%" height="100%" x="0" y="0" fill="none" stroke="none" style="" class=""/><g class="currentLayer" style=""><title>Layer 1</title><path fill="#ffffff" fill-opacity="1" stroke="#000000" stroke-opacity="1" stroke-width="1" stroke-dasharray="none" stroke-linejoin="miter" stroke-linecap="butt" stroke-dashoffset="" fill-rule="nonzero" opacity="1" marker-start="" marker-mid="" marker-end="" d="M0.5804191583310225,13.02097857137382 C0.5804191583310225,6.08206136918829 5.950585015952005,0.4615384354180101 12.580419408076676,0.4615384354180101 C19.210253800201347,0.4615384354180101 24.58041965782233,6.08206136918829 24.58041965782233,13.02097857137382 C24.58041965782233,19.95989577355935 19.210253800201347,25.58041870732963 12.580419408076676,25.58041870732963 C5.950585015952005,25.58041870732963 0.5804191583310225,19.95989577355935 0.5804191583310225,13.02097857137382 z" id="svg_95" class=""/><g class=""><path d="M15.5061721576788,10.682832887235321 c0,-0.9181445212438151 -1.2772176709888927,-1.6374294134720226 -2.9076218074486118,-1.6374294134720226 s-2.9076218074486118,0.7192848922282082 -2.9076218074486118,1.6374294134720226 c0,0.01593913056995327 0.0032526765814657774,0.03137225699482865 0.004065845726832221,0.04731138756478195 h-0.004065845726832221 V15.959444112107459 h0.0037947893450434073 a1.1964428692158262,1.1167511481868828 0 0 0 0.18973946725217025,0.5480024891193445 c0.42230584282697275,0.6325051813473511 1.4880995360205906,1.042368538860435 2.714900719996764,1.042368538860435 s2.292594877169792,-0.4093573533680058 2.713274381706031,-1.040091520207584 a1.1910217415800501,1.1116911067361042 0 0 0 0.19434742574258015,-0.5973378932644385 zM12.598550350230186,9.551407618841179 c1.2820966858610916,0 2.3655090438709827,0.5181482445597502 2.3655090438709827,1.1314252683941417 s-1.0842255271552572,1.1314252683941417 -2.3655090438709827,1.1314252683941417 s-2.3655090438709827,-0.5181482445597502 -2.3655090438709827,-1.1314252683941417 S11.316453664369096,9.551407618841179 12.598550350230186,9.551407618841179 zm-2.3655090438709827,2.092327139897037 A3.7305489825594513,3.482067524353437 0 0 0 12.598550350230186,12.320262300707341 a3.7305489825594513,3.482067524353437 0 0 0 2.3655090438709827,-0.6765275419691272 v0.8855072538862917 a0.8614171813248515,0.804040586528753 0 0 1 -0.3491206197439931,0.5758327170986285 A3.22557094328689,3.0107246632133915 0 0 1 12.598550350230186,13.659908274801031 a3.22557094328689,3.0107246632133915 0 0 1 -2.0163884241269896,-0.5566045595856692 a0.8614171813248515,0.804040586528753 0 0 1 -0.3491206197439931,-0.5758327170986285 zm0,1.8469151295342647 c0.5356074104146973,0.4222604590674917 1.4195222714280207,0.6742505233162769 2.3655090438709827,0.6742505233162769 s1.8299016334562856,-0.2530020725389405 2.3655090438709827,-0.6742505233162769 V14.06673560744365 a0.9722792414764773,0.9075184341971795 0 0 1 -0.5488891731223488,0.7084058031090334 A3.5150591590373437,3.2809308766849794 0 0 1 12.598550350230186,15.197907873765251 a3.5139749335101893,3.2799188683948235 0 0 1 -1.817704096275789,-0.42301946528510875 a0.970923959567533,0.9062534238344849 0 0 1 -0.5478049475951938,-0.7084058031090334 zM14.853468390331336,16.240023410553146 C14.537687705547368,16.713137286200965 13.61040382344784,17.043810995009363 12.598550350230186,17.043810995009363 S10.65941299491301,16.713137286200965 10.342005971838311,16.23749338982776 a0.6426746812212787,0.5998679139898279 0 0 1 -0.10842255271552584,-0.32510766321253876 V15.02561346236623 a2.2690129719541643,2.1178803492234706 0 0 0 0.2602141265172619,0.17710145077725858 A4.05988248643286,3.7894650424882492 0 0 0 12.598550350230186,15.70391201884313 a4.060695655578227,3.7902240487058667 0 0 0 2.1042106918265655,-0.4996790932644077 a2.2654892389909103,2.114591322280464 0 0 0 0.26129835204441726,-0.17887246528503103 v0.8870252663215249 A0.6467405269481111,0.6036629450779121 0 0 1 14.853468390331336,16.240023410553146 z" id="svg_1" class=""/><path d="M5.280028041932201,7.478561638529639 A1.0842255271552572,1.0120082901557619 0 1 0 4.195802514776944,6.4665533483738775 A1.0842255271552572,1.0120082901557619 0 0 0 5.280028041932201,7.478561638529639 zM5.280028041932201,5.960549203295997 A0.5421127635776284,0.5060041450778807 0 1 1 4.737915278354573,6.4665533483738775 A0.5421127635776284,0.5060041450778807 0 0 1 5.280028041932201,5.960549203295997 z" id="svg_2" class=""/><path d="M12.598550350230186,7.478561638529639 a1.0842255271552572,1.0120082901557619 0 1 0 -1.0842255271552572,-1.0120082901557619 A1.0842255271552572,1.0120082901557619 0 0 0 12.598550350230186,7.478561638529639 zm0,-1.5180124352336424 a0.5421127635776284,0.5060041450778807 0 1 1 -0.5421127635776284,0.5060041450778807 A0.5421127635776284,0.5060041450778807 0 0 1 12.598550350230186,5.960549203295997 z" id="svg_3" class=""/><path d="M19.909754136219874,19.109825919362347 a1.0842255271552572,1.0120082901557619 0 1 0 1.0842255271552572,1.0120082901557619 A1.0842255271552572,1.0120082901557619 0 0 0 19.909754136219874,19.109825919362347 zm0,1.5180124352336424 a0.5421127635776284,0.5060041450778807 0 1 1 0.5421127635776284,-0.5060041450778807 A0.5421127635776284,0.5060041450778807 0 0 1 19.909754136219874,20.62783835459599 z" id="svg_4" class=""/><path d="M5.287346564240502,19.109825919362347 a1.0842255271552572,1.0120082901557619 0 1 0 1.0842255271552572,1.0120082901557619 A1.0842255271552572,1.0120082901557619 0 0 0 5.287346564240502,19.109825919362347 zm0,1.5180124352336424 a0.5421127635776284,0.5060041450778807 0 1 1 0.5421127635776284,-0.5060041450778807 A0.5421127635776284,0.5060041450778807 0 0 1 5.287346564240502,20.62783835459599 z" id="svg_5" class=""/><path d="M12.598550350230186,19.109825919362347 a1.0842255271552572,1.0120082901557619 0 1 0 1.0842255271552572,1.0120082901557619 A1.0842255271552572,1.0120082901557619 0 0 0 12.598550350230186,19.109825919362347 zm0,1.5180124352336424 a0.5421127635776284,0.5060041450778807 0 1 1 0.5421127635776284,-0.5060041450778807 A0.5421127635776284,0.5060041450778807 0 0 1 12.598550350230186,20.62783835459599 z" id="svg_6" class=""/><path d="M19.909754136219874,7.577991453037444 a1.0842255271552572,1.0120082901557619 0 1 0 -1.0842255271552572,-1.0120082901557619 A1.0842255271552572,1.0120082901557619 0 0 0 19.909754136219874,7.577991453037444 zm0,-1.5180124352336424 a0.5421127635776284,0.5060041450778807 0 1 1 -0.5421127635776284,0.5060041450778807 A0.5421127635776284,0.5060041450778807 0 0 1 19.909754136219874,6.0599790178038 z" id="svg_7" class=""/><path d="M5.280028041932201,14.259017182573244 a1.0842255271552572,1.0120082901557619 0 1 0 -1.0842255271552572,-1.0120082901557619 A1.0842255271552572,1.0120082901557619 0 0 0 5.280028041932201,14.259017182573244 zm0,-1.5180124352336424 a0.5421127635776284,0.5060041450778807 0 1 1 -0.5421127635776284,0.5060041450778807 A0.5421127635776284,0.5060041450778807 0 0 1 5.280028041932201,12.7410047473396 z" id="svg_8" class=""/><path d="M19.909754136219874,12.336201431277294 a1.0842255271552572,1.0120082901557619 0 1 0 1.0842255271552572,1.0120082901557619 A1.0842255271552572,1.0120082901557619 0 0 0 19.909754136219874,12.336201431277294 zm0,1.5180124352336424 a0.5421127635776284,0.5060041450778807 0 1 1 0.5421127635776284,-0.5060041450778807 A0.5421127635776284,0.5060041450778807 0 0 1 19.909754136219874,13.85421386651094 z" id="svg_9" class=""/><path d="M5.280028041932201,9.249576146302223 a0.27105638178881436,0.2530020725389405 0 0 0 -0.27105638178881436,0.2530020725389405 v0.020240165803115273 a0.2618404648079949,0.24440000207261664 0 0 0 0.27105638178881436,0.24288198963738306 A0.280543355151423,0.2618571450778035 0 0 0 5.551084423721018,9.502578218841162 A0.27105638178881436,0.2530020725389405 0 0 0 5.280028041932201,9.249576146302223 z" id="svg_10" class=""/><path d="M5.280028041932201,7.690071371172193 a0.27105638178881436,0.2530020725389405 0 0 0 -0.27105638178881436,0.2530020725389405 v0.020240165803115273 a0.2618404648079949,0.24440000207261664 0 0 0 0.27105638178881436,0.24288198963738306 a0.280543355151423,0.2618571450778035 0 0 0 0.27105638178881436,-0.2631221554404983 A0.27105638178881436,0.2530020725389405 0 0 0 5.280028041932201,7.690071371172193 z" id="svg_11" class=""/><path d="M5.280028041932201,11.586303288271875 a0.27105638178881436,0.2530020725389405 0 0 0 -0.27105638178881436,0.2530020725389405 v0.020240165803115273 a0.2618404648079949,0.24440000207261664 0 0 0 0.27105638178881436,0.24288198963738306 a0.280543355151423,0.2618571450778035 0 0 0 0.27105638178881436,-0.2631221554404983 A0.27105638178881436,0.2530020725389405 0 0 0 5.280028041932201,11.586303288271875 z" id="svg_12" class=""/><path d="M5.280028041932201,10.807056904851938 a0.27105638178881436,0.2530020725389405 0 0 0 -0.27105638178881436,0.2530020725389405 v0.020240165803115273 a0.2618404648079949,0.24440000207261664 0 0 0 0.27105638178881436,0.24288198963738306 a0.280543355151423,0.2618571450778035 0 0 0 0.27105638178881436,-0.2631221554404983 A0.27105638178881436,0.2530020725389405 0 0 0 5.280028041932201,10.807056904851938 z" id="svg_13" class=""/><path d="M5.280028041932201,10.027810521432004 a0.27105638178881436,0.2530020725389405 0 0 0 -0.27105638178881436,0.2530020725389405 v0.020240165803115273 a0.2618404648079949,0.24440000207261664 0 0 0 0.27105638178881436,0.24288198963738306 a0.280543355151423,0.2618571450778035 0 0 0 0.27105638178881436,-0.2631221554404983 A0.27105638178881436,0.2530020725389405 0 0 0 5.280028041932201,10.027810521432004 z" id="svg_14" class=""/><path d="M5.280028041932201,8.469317754592131 a0.27105638178881436,0.2530020725389405 0 0 0 -0.27105638178881436,0.2530020725389405 V8.743572001224342 a0.2618404648079949,0.24440000207261664 0 0 0 0.27105638178881436,0.24288198963738306 a0.280543355151423,0.2618571450778035 0 0 0 0.27105638178881436,-0.2631221554404983 A0.27105638178881436,0.2530020725389405 0 0 0 5.280028041932201,8.469317754592131 z" id="svg_15" class=""/><path d="M20.188129040316994,7.8671728219494526 a0.2618404648079949,0.24440000207261664 0 0 0 -0.27105638178881436,-0.24288198963738306 a0.280543355151423,0.2618571450778035 0 0 0 -0.27105638178881436,0.2631221554404983 a0.27105638178881436,0.2530020725389405 0 0 0 0.5421127635776284,0 z" id="svg_16" class=""/><path d="M20.188129040316994,10.204911972209262 a0.2621115211897837,0.24465300414515564 0 0 0 -0.27105638178881436,-0.24288198963738306 a0.280543355151423,0.2618571450778035 0 0 0 -0.27105638178881436,0.2631221554404983 a0.27105638178881436,0.2530020725389405 0 0 0 0.5421127635776284,0 z" id="svg_17" class=""/><path d="M20.188129040316994,8.646419205369387 a0.2618404648079949,0.24440000207261664 0 0 0 -0.27105638178881436,-0.24288198963738306 a0.280543355151423,0.2618571450778035 0 0 0 -0.27105638178881436,0.2631221554404983 a0.27105638178881436,0.2530020725389405 0 0 0 0.5421127635776284,0 z" id="svg_18" class=""/><path d="M20.188129040316994,10.984158355629198 a0.2621115211897837,0.24465300414515564 0 0 0 -0.27105638178881436,-0.24288198963738306 a0.2808144115332119,0.2621101471503424 0 0 0 -0.27105638178881436,0.2633751575130371 a0.27105638178881436,0.2530020725389405 0 0 0 0.5421127635776284,0 z" id="svg_19" class=""/><path d="M20.188129040316994,9.426677597079479 a0.2621115211897837,0.24465300414515564 0 0 0 -0.27105638178881436,-0.24288198963738306 a0.280543355151423,0.2618571450778035 0 0 0 -0.27105638178881436,0.2631221554404983 a0.27105638178881436,0.2530020725389405 0 0 0 0.5421127635776284,0 z" id="svg_20" class=""/><path d="M19.91707265852818,11.52077575148429 a0.280543355151423,0.2618571450778035 0 0 0 -0.27105638178881436,0.2631221554404983 a0.27105638178881436,0.2530020725389405 0 0 0 0.5421127635776284,0 v-0.020240165803115273 A0.2618404648079949,0.24440000207261664 0 0 0 19.91707265852818,11.52077575148429 z" id="svg_21" class=""/><path d="M16.610184800704634,6.719555420912818 a0.27105638178881436,0.2530020725389405 0 0 0 0,-0.5060041450778807 h-0.021684510543105186 a0.2618404648079949,0.24440000207261664 0 0 0 -0.2602141265172619,0.2530020725389405 A0.280543355151423,0.2618571450778035 0 0 0 16.610184800704634,6.719555420912818 z" id="svg_22" class=""/><path d="M14.941019601649122,6.719555420912818 a0.27105638178881436,0.2530020725389405 0 0 0 0,-0.5060041450778807 h-0.021684510543105186 a0.2618404648079949,0.24440000207261664 0 0 0 -0.2602141265172619,0.2530020725389405 A0.280543355151423,0.2618571450778035 0 0 0 14.941019601649122,6.719555420912818 z" id="svg_23" class=""/><path d="M15.775873257558672,6.719555420912818 a0.27105638178881436,0.2530020725389405 0 0 0 0,-0.5060041450778807 h-0.021684510543105186 a0.2618404648079949,0.24440000207261664 0 0 0 -0.2602141265172619,0.2530020725389405 A0.280543355151423,0.2618571450778035 0 0 0 15.775873257558672,6.719555420912818 z" id="svg_24" class=""/><path d="M14.106165945739578,6.719555420912818 a0.27105638178881436,0.2530020725389405 0 0 0 0,-0.5060041450778807 h-0.021684510543105186 a0.2618404648079949,0.24440000207261664 0 0 0 -0.2602141265172619,0.2530020725389405 A0.280543355151423,0.2618571450778035 0 0 0 14.106165945739578,6.719555420912818 z" id="svg_25" class=""/><path d="M17.445580569377768,6.719555420912818 a0.27105638178881436,0.2530020725389405 0 0 0 0,-0.5060041450778807 H17.423353946071078 a0.2618404648079949,0.24440000207261664 0 0 0 -0.2602141265172619,0.2530020725389405 A0.280543355151423,0.2618571450778035 0 0 0 17.445580569377768,6.719555420912818 z" id="svg_26" class=""/><path d="M18.280434225287316,6.719555420912818 a0.27105638178881436,0.2530020725389405 0 0 0 0,-0.5060041450778807 h-0.021684510543105186 a0.2618404648079949,0.24440000207261664 0 0 0 -0.2602141265172619,0.2530020725389405 A0.280543355151423,0.2618571450778035 0 0 0 18.280434225287316,6.719555420912818 z" id="svg_27" class=""/><path d="M8.612395199643888,6.719555420912818 a0.27105638178881436,0.2530020725389405 0 0 0 0,-0.5060041450778807 h-0.021684510543105186 a0.2618404648079949,0.24440000207261664 0 0 0 -0.2602141265172619,0.2530020725389405 A0.280543355151423,0.2618571450778035 0 0 0 8.612395199643888,6.719555420912818 z" id="svg_28" class=""/><path d="M10.28210251146298,6.719555420912818 a0.27105638178881436,0.2530020725389405 0 0 0 0,-0.5060041450778807 h-0.021684510543105186 a0.2618404648079949,0.24440000207261664 0 0 0 -0.2602141265172619,0.2530020725389405 A0.28027229876963383,0.2616041430052645 0 0 0 10.28210251146298,6.719555420912818 z" id="svg_29" class=""/><path d="M6.942687887824786,6.719555420912818 a0.27105638178881436,0.2530020725389405 0 0 0 0,-0.5060041450778807 h-0.021684510543105186 a0.2618404648079949,0.24440000207261664 0 0 0 -0.2602141265172619,0.2530020725389405 A0.280543355151423,0.2618571450778035 0 0 0 6.942687887824786,6.719555420912818 z" id="svg_30" class=""/><path d="M9.44724885555343,6.719555420912818 a0.27105638178881436,0.2530020725389405 0 0 0 0,-0.5060041450778807 h-0.021684510543105186 a0.2621115211897837,0.24465300414515564 0 0 0 -0.26048518289905076,0.2530020725389405 A0.280543355151423,0.2618571450778035 0 0 0 9.44724885555343,6.719555420912818 z" id="svg_31" class=""/><path d="M7.777541543734337,6.719555420912818 a0.27105638178881436,0.2530020725389405 0 0 0 0,-0.5060041450778807 h-0.021684510543105186 a0.2618404648079949,0.24440000207261664 0 0 0 -0.2602141265172619,0.2530020725389405 A0.280543355151423,0.2618571450778035 0 0 0 7.777541543734337,6.719555420912818 z" id="svg_32" class=""/><path d="M11.116956167372532,6.719555420912818 a0.27105638178881436,0.2530020725389405 0 0 0 0,-0.5060041450778807 h-0.021684510543105186 a0.2618404648079949,0.24440000207261664 0 0 0 -0.2602141265172619,0.2530020725389405 A0.28027229876963383,0.2616041430052645 0 0 0 11.116956167372532,6.719555420912818 z" id="svg_33" class=""/><path d="M7.665324201673771,13.044607234386326 h-0.021684510543105186 a0.2618404648079949,0.24440000207261664 0 0 0 -0.2602141265172619,0.2530020725389405 a0.280543355151423,0.2618571450778035 0 0 0 0.28189863706036694,0.2530020725389405 a0.27105638178881436,0.2530020725389405 0 1 0 0,-0.5060041450778807 z" id="svg_34" class=""/><path d="M8.478493347040208,13.044607234386326 a0.2618404648079949,0.24440000207261664 0 0 0 -0.2602141265172619,0.2530020725389405 a0.280543355151423,0.2618571450778035 0 0 0 0.28189863706036694,0.2530020725389405 a0.27105638178881436,0.2530020725389405 0 0 0 0,-0.5060041450778807 z" id="svg_35" class=""/><path d="M9.336115739020022,13.55061137946421 a0.27105638178881436,0.2530020725389405 0 0 0 0,-0.5060041450778807 h-0.021684510543105186 a0.2618404648079949,0.24440000207261664 0 0 0 -0.2602141265172619,0.2530020725389405 A0.280543355151423,0.2618571450778035 0 0 0 9.336115739020022,13.55061137946421 z" id="svg_36" class=""/><path d="M6.831554771291377,13.044607234386326 h-0.021684510543105186 a0.2618404648079949,0.24440000207261664 0 0 0 -0.2602141265172619,0.2530020725389405 a0.280543355151423,0.2618571450778035 0 0 0 0.28189863706036694,0.2530020725389405 a0.27105638178881436,0.2530020725389405 0 1 0 0,-0.5060041450778807 z" id="svg_37" class=""/><path d="M18.440899603306296,13.044607234386326 h-0.021684510543105186 a0.2618404648079949,0.24440000207261664 0 0 0 -0.2602141265172619,0.2530020725389405 a0.28027229876963383,0.2616041430052645 0 0 0 0.28189863706036694,0.2530020725389405 a0.27105638178881436,0.2530020725389405 0 0 0 0,-0.5060041450778807 z" id="svg_38" class=""/><path d="M16.771192291487193,13.044607234386326 h-0.021684510543105186 a0.2618404648079949,0.24440000207261664 0 0 0 -0.2602141265172619,0.2530020725389405 a0.280543355151423,0.2618571450778035 0 0 0 0.28189863706036694,0.2530020725389405 a0.27105638178881436,0.2530020725389405 0 1 0 0,-0.5060041450778807 z" id="svg_39" class=""/><path d="M15.914654125034552,13.044607234386326 a0.2618404648079949,0.24440000207261664 0 0 0 -0.2602141265172619,0.2530020725389405 a0.280543355151423,0.2618571450778035 0 0 0 0.28189863706036694,0.2530020725389405 a0.27105638178881436,0.2530020725389405 0 0 0 0,-0.5060041450778807 z" id="svg_40" class=""/><path d="M17.606045947396737,13.044607234386326 h-0.021684510543105186 a0.2618404648079949,0.24440000207261664 0 0 0 -0.2602141265172619,0.2530020725389405 a0.280543355151423,0.2618571450778035 0 0 0 0.28189863706036694,0.2530020725389405 a0.27105638178881436,0.2530020725389405 0 0 0 0,-0.5060041450778807 z" id="svg_41" class=""/><path d="M12.869606732019006,7.835547562882084 a0.2618404648079949,0.24440000207261664 0 0 0 -0.27105638178881436,-0.24288198963738306 a0.280543355151423,0.2618571450778035 0 0 0 -0.27105638178881436,0.2631221554404983 a0.27105638178881436,0.2530020725389405 0 0 0 0.5421127635776284,0 z" id="svg_42" class=""/><path d="M12.598550350230186,8.371911956664638 a0.280543355151423,0.2618571450778035 0 0 0 -0.27105638178881436,0.2631221554404983 a0.27105638178881436,0.2530020725389405 0 0 0 0.5421127635776284,0 v-0.020240165803115273 A0.2618404648079949,0.24440000207261664 0 0 0 12.598550350230186,8.371911956664638 z" id="svg_43" class=""/><path d="M12.598550350230186,19.02405821677165 a0.27105638178881436,0.2530020725389405 0 0 0 0.27105638178881436,-0.2530020725389405 v-0.020240165803115273 a0.2618404648079949,0.24440000207261664 0 0 0 -0.27105638178881436,-0.24288198963738306 a0.280543355151423,0.2618571450778035 0 0 0 -0.27105638178881436,0.2631221554404983 A0.27105638178881436,0.2530020725389405 0 0 0 12.598550350230186,19.02405821677165 z" id="svg_44" class=""/><path d="M12.598550350230186,18.24481183335171 a0.27105638178881436,0.2530020725389405 0 0 0 0.27105638178881436,-0.2530020725389405 v-0.020240165803115273 a0.2618404648079949,0.24440000207261664 0 0 0 -0.27105638178881436,-0.24288198963738306 a0.280543355151423,0.2618571450778035 0 0 0 -0.27105638178881436,0.2631221554404983 A0.27105638178881436,0.2530020725389405 0 0 0 12.598550350230186,18.24481183335171 z" id="svg_45" class=""/><path d="M15.657963731480539,10.061459797079682 l-0.015721270143751253,0.014168116062180689 a0.2672615924437709,0.2494600435233954 0 0 0 0.1932632002154248,0.4232724673576476 a0.28813293384150945,0.2689412031088938 0 0 0 0.20058172252372283,-0.07590062176168226 a0.27105638178881436,0.2530020725389405 0 1 0 -0.37947893450434045,-0.3622989678757629 z" id="svg_46" class=""/><path d="M16.83190892100789,8.98493597842649 a0.2672615924437709,0.2494600435233954 0 0 0 0.19461848212436886,0.4220074569949526 a0.287861877459721,0.26868820103635493 0 0 0 0.20247911719624453,-0.07590062176168226 a0.27105638178881436,0.2530020725389405 0 0 0 -0.38164738555865085,-0.35926294300529543 z" id="svg_47" class=""/><path d="M16.633495649538478,9.87600927790864 a0.27105638178881436,0.2530020725389405 0 0 0 -0.38164738555865085,-0.35926294300529543 l-0.015721270143751253,0.014168116062180689 a0.2675326488255597,0.24971304559593435 0 0 0 0.19488953850615776,0.4220074569949526 A0.2889461029868761,0.2697002093265105 0 0 0 16.633495649538478,9.87600927790864 z" id="svg_48" class=""/><path d="M17.44449634385061,8.423018375317504 l-0.015450213761962435,0.014168116062180689 a0.2672615924437709,0.2494600435233954 0 0 0 0.1932632002154248,0.4235254694301865 a0.287861877459721,0.26868820103635493 0 0 0 0.20031066614193402,-0.07590062176168226 a0.27105638178881436,0.2530020725389405 0 1 0 -0.37947893450434045,-0.3622989678757629 z" id="svg_49" class=""/><path d="M18.2178202010941,8.314733488270837 a0.2884039902232987,0.2691942051814326 0 0 0 0.20058172252372283,-0.07590062176168226 a0.27105638178881436,0.2530020725389405 0 0 0 -0.37947893450434045,-0.3622989678757629 l-0.015450213761962435,0.014168116062180689 a0.2672615924437709,0.2494600435233954 0 0 0 0.1932632002154248,0.4235254694301865 z" id="svg_50" class=""/><path d="M18.624404773777314,7.697155429203285 a0.26265363395336117,0.24515900829023346 0 0 0 0.18973946725217025,0.07134658445598134 a0.2884039902232987,0.2691942051814326 0 0 0 0.20247911719624453,-0.07590062176168226 a0.27105638178881436,0.2530020725389405 0 0 0 -0.38164738555865085,-0.35926294300529543 l-0.015450213761962435,0.014421118134719621 A0.2618404648079949,0.24440000207261664 0 0 0 18.624404773777314,7.697155429203285 z" id="svg_51" class=""/><path d="M9.24043283624857,10.422999758737829 a0.27756173495174585,0.25907412227987514 0 0 0 0.19516059488794668,-0.07792463834199377 a0.28027229876963383,0.2616041430052645 0 0 0 -0.007860635071875628,-0.36482898860115237 A0.27105638178881436,0.2530020725389405 0 1 0 9.04445907221526,10.337485058219666 l0.015450213761962435,0.014168116062180689 A0.25235349144538627,0.23554492953375353 0 0 0 9.24043283624857,10.422999758737829 z" id="svg_52" class=""/><path d="M7.662071525092301,8.694489599151787 a0.2808144115332119,0.2621101471503424 0 0 0 -0.007860635071875628,-0.3650819906736912 a0.27105638178881436,0.2530020725389405 0 0 0 -0.38327372384938346,0.3577449305700619 l0.015450213761962435,0.014421118134719621 a0.2531666605907527,0.23630393575137043 0 0 0 0.18052355027135059,0.07058757823836444 A0.2772906785699571,0.2588211202073361 0 0 0 7.662071525092301,8.694489599151787 z" id="svg_53" class=""/><path d="M6.695213411251605,8.151294149410681 a0.25208243506359734,0.23529192746121474 0 0 0 0.18052355027135059,0.07058757823836444 a0.2767485658063795,0.2583151160622583 0 0 0 0.19516059488794668,-0.07767163626945478 a0.2808144115332119,0.2621101471503424 0 0 0 -0.00758957869008681,-0.3650819906736912 A0.27105638178881436,0.2530020725389405 0 0 0 6.680034253871431,8.136367027130886 z" id="svg_54" class=""/><path d="M8.836558827383232,9.429966624022487 a0.27105638178881436,0.2530020725389405 0 0 0 -0.38327372384938346,0.3577449305700619 l0.015450213761962435,0.014421118134719621 a0.2531666605907527,0.23630393575137043 0 0 0 0.18052355027135059,0.07058757823836444 a0.27647750942459076,0.2580621139897194 0 0 0 0.19488953850615776,-0.07792463834199377 A0.2800012423878452,0.2613511409327255 0 0 0 8.836558827383232,9.429966624022487 z" id="svg_55" class=""/><path d="M6.0885892288082335,7.229101595006244 a0.27105638178881436,0.2530020725389405 0 0 0 0,0.3577449305700619 l0.015450213761962435,0.014168116062180689 a0.25235349144538627,0.23554492953375353 0 0 0 0.18052355027135059,0.07084058031090339 a0.27701962218816845,0.25856811813479724 0 0 0 0.19516059488794668,-0.07792463834199377 A0.28027229876963383,0.2616041430052645 0 0 0 6.4726761218029845,7.229101595006244 A0.27105638178881436,0.2530020725389405 0 0 0 6.0885892288082335,7.229101595006244 z" id="svg_56" class=""/><path d="M7.862111134852448,9.237432046820352 l0.015450213761962435,0.014421118134719621 a0.2531666605907527,0.23630393575137043 0 0 0 0.18052355027135059,0.07058757823836444 a0.2759353966610129,0.2575561098446416 0 0 0 0.19516059488794668,-0.07792463834199377 a0.28027229876963383,0.2616041430052645 0 0 0 -0.007860635071875628,-0.36482898860115237 a0.27105638178881436,0.2530020725389405 0 0 0 -0.38327372384938346,0.3577449305700619 z" id="svg_57" class=""/><path d="M19.91707265852818,15.822569990863894 a0.27105638178881436,0.2530020725389405 0 0 0 0.27105638178881436,-0.2530020725389405 V15.549327752521839 a0.2621115211897837,0.24465300414515564 0 0 0 -0.27105638178881436,-0.24288198963738306 a0.280543355151423,0.2618571450778035 0 0 0 -0.27105638178881436,0.2631221554404983 A0.27105638178881436,0.2530020725389405 0 0 0 19.91707265852818,15.822569990863894 z" id="svg_58" class=""/><path d="M19.91707265852818,15.043323607443957 a0.27105638178881436,0.2530020725389405 0 0 0 0.27105638178881436,-0.2530020725389405 v-0.020240165803115273 a0.2621115211897837,0.24465300414515564 0 0 0 -0.27105638178881436,-0.24288198963738306 a0.280543355151423,0.2618571450778035 0 0 0 -0.27105638178881436,0.2631221554404983 A0.27105638178881436,0.2530020725389405 0 0 0 19.91707265852818,15.043323607443957 z" id="svg_59" class=""/><path d="M19.91707265852818,16.602069376356372 a0.27105638178881436,0.2530020725389405 0 0 0 0.27105638178881436,-0.2530020725389405 V16.328574135941775 a0.2618404648079949,0.24440000207261664 0 0 0 -0.27105638178881436,-0.24262898756484402 a0.280543355151423,0.2618571450778035 0 0 0 -0.27105638178881436,0.2631221554404983 A0.27105638178881436,0.2530020725389405 0 0 0 19.91707265852818,16.602069376356372 z" id="svg_60" class=""/><path d="M19.91707265852818,18.160562143196245 a0.27105638178881436,0.2530020725389405 0 0 0 0.27105638178881436,-0.2530020725389405 v-0.020240165803115273 a0.2618404648079949,0.24440000207261664 0 0 0 -0.27105638178881436,-0.24288198963738306 a0.280543355151423,0.2618571450778035 0 0 0 -0.27105638178881436,0.2631221554404983 A0.27105638178881436,0.2530020725389405 0 0 0 19.91707265852818,18.160562143196245 z" id="svg_61" class=""/><path d="M19.91707265852818,18.93955552454364 a0.27105638178881436,0.2530020725389405 0 0 0 0.27105638178881436,-0.2530020725389405 v-0.020240165803115273 a0.2618404648079949,0.24440000207261664 0 0 0 -0.27105638178881436,-0.24288198963738306 a0.280543355151423,0.2618571450778035 0 0 0 -0.27105638178881436,0.2631221554404983 A0.27105638178881436,0.2530020725389405 0 0 0 19.91707265852818,18.93955552454364 z" id="svg_62" class=""/><path d="M19.91707265852818,17.381315759776307 a0.27105638178881436,0.2530020725389405 0 0 0 0.27105638178881436,-0.2530020725389405 v-0.020240165803115273 a0.2618404648079949,0.24440000207261664 0 0 0 -0.27105638178881436,-0.24288198963738306 a0.280543355151423,0.2618571450778035 0 0 0 -0.27105638178881436,0.2631221554404983 A0.27105638178881436,0.2530020725389405 0 0 0 19.91707265852818,17.381315759776307 z" id="svg_63" class=""/><path d="M5.280028041932201,16.151472685164517 a0.27105638178881436,0.2530020725389405 0 0 0 -0.27105638178881436,0.2530020725389405 v0.020240165803115273 a0.2618404648079949,0.24440000207261664 0 0 0 0.27105638178881436,0.24288198963738306 a0.280543355151423,0.2618571450778035 0 0 0 0.27105638178881436,-0.2631221554404983 A0.27105638178881436,0.2530020725389405 0 0 0 5.280028041932201,16.151472685164517 z" id="svg_64" class=""/><path d="M5.280028041932201,16.93071906858445 a0.27105638178881436,0.2530020725389405 0 0 0 -0.27105638178881436,0.2530020725389405 v0.020240165803115273 a0.2618404648079949,0.24440000207261664 0 0 0 0.27105638178881436,0.24288198963738306 a0.280543355151423,0.2618571450778035 0 0 0 0.27105638178881436,-0.2631221554404983 A0.27105638178881436,0.2530020725389405 0 0 0 5.280028041932201,16.93071906858445 z" id="svg_65" class=""/><path d="M5.280028041932201,18.489464837496865 a0.27105638178881436,0.2530020725389405 0 0 0 -0.27105638178881436,0.2530020725389405 v0.020240165803115273 a0.2621115211897837,0.24465300414515564 0 0 0 0.27105638178881436,0.24288198963738306 a0.280543355151423,0.2618571450778035 0 0 0 0.27105638178881436,-0.2631221554404983 A0.27105638178881436,0.2530020725389405 0 0 0 5.280028041932201,18.489464837496865 z" id="svg_66" class=""/><path d="M5.280028041932201,17.70996545200439 a0.27105638178881436,0.2530020725389405 0 0 0 -0.27105638178881436,0.2530020725389405 v0.020493167875654198 a0.2618404648079949,0.24440000207261664 0 0 0 0.27105638178881436,0.24262898756484402 a0.280543355151423,0.2618571450778035 0 0 0 0.27105638178881436,-0.2631221554404983 A0.27105638178881436,0.2530020725389405 0 0 0 5.280028041932201,17.70996545200439 z" id="svg_67" class=""/><path d="M5.280028041932201,15.372226301744579 a0.27105638178881436,0.2530020725389405 0 0 0 -0.27105638178881436,0.2530020725389405 v0.020240165803115273 a0.2618404648079949,0.24440000207261664 0 0 0 0.27105638178881436,0.24288198963738306 A0.280543355151423,0.2618571450778035 0 0 0 5.551084423721018,15.62522837428352 A0.27105638178881436,0.2530020725389405 0 0 0 5.280028041932201,15.372226301744579 z" id="svg_68" class=""/><path d="M5.280028041932201,14.592979918324643 a0.27105638178881436,0.2530020725389405 0 0 0 -0.27105638178881436,0.2530020725389405 v0.020240165803115273 a0.2618404648079949,0.24440000207261664 0 0 0 0.27105638178881436,0.24288198963738306 a0.280543355151423,0.2618571450778035 0 0 0 0.27105638178881436,-0.2631221554404983 A0.27105638178881436,0.2530020725389405 0 0 0 5.280028041932201,14.592979918324643 z" id="svg_69" class=""/><path d="M11.090934754720807,19.910324476875555 a0.27105638178881436,0.2530020725389405 0 0 0 0,0.5060041450778807 h0.021684510543105186 a0.2621115211897837,0.24465300414515564 0 0 0 0.2602141265172619,-0.2530020725389405 A0.280543355151423,0.2618571450778035 0 0 0 11.090934754720807,19.910324476875555 z" id="svg_70" class=""/><path d="M8.586915899755738,19.910324476875555 a0.27105638178881436,0.2530020725389405 0 0 0 0,0.5060041450778807 h0.021684510543105186 a0.2621115211897837,0.24465300414515564 0 0 0 0.2602141265172619,-0.2530020725389405 A0.280543355151423,0.2618571450778035 0 0 0 8.586915899755738,19.910324476875555 z" id="svg_71" class=""/><path d="M9.421227442901706,19.910324476875555 a0.27105638178881436,0.2530020725389405 0 1 0 0,0.5060041450778807 h0.021684510543105186 a0.2621115211897837,0.24465300414515564 0 0 0 0.2602141265172619,-0.2530020725389405 A0.280543355151423,0.2618571450778035 0 0 0 9.421227442901706,19.910324476875555 z" id="svg_72" class=""/><path d="M7.7515201310826125,19.910324476875555 a0.27105638178881436,0.2530020725389405 0 1 0 0,0.5060041450778807 h0.021684510543105186 a0.2621115211897837,0.24465300414515564 0 0 0 0.2602141265172619,-0.2530020725389405 A0.280543355151423,0.2618571450778035 0 0 0 7.7515201310826125,19.910324476875555 z" id="svg_73" class=""/><path d="M6.916666475173062,19.910324476875555 a0.27105638178881436,0.2530020725389405 0 1 0 0,0.5060041450778807 h0.021684510543105186 a0.2621115211897837,0.24465300414515564 0 0 0 0.2602141265172619,-0.2530020725389405 A0.280543355151423,0.2618571450778035 0 0 0 6.916666475173062,19.910324476875555 z" id="svg_74" class=""/><path d="M10.256081098811258,19.910324476875555 a0.27105638178881436,0.2530020725389405 0 0 0 0,0.5060041450778807 h0.021684510543105186 a0.2621115211897837,0.24465300414515564 0 0 0 0.2602141265172619,-0.2530020725389405 A0.280543355151423,0.2618571450778035 0 0 0 10.256081098811258,19.910324476875555 z" id="svg_75" class=""/><path d="M14.914998188997398,19.910324476875555 a0.27105638178881436,0.2530020725389405 0 1 0 0,0.5060041450778807 h0.021684510543105186 a0.2618404648079949,0.24440000207261664 0 0 0 0.2602141265172619,-0.2530020725389405 A0.28027229876963383,0.2616041430052645 0 0 0 14.914998188997398,19.910324476875555 z" id="svg_76" class=""/><path d="M15.749851844906942,19.910324476875555 a0.27105638178881436,0.2530020725389405 0 0 0 0,0.5060041450778807 h0.021684510543105186 a0.26238257757157235,0.24490600621769462 0 0 0 0.26048518289905076,-0.2530020725389405 A0.280543355151423,0.2618571450778035 0 0 0 15.749851844906942,19.910324476875555 z" id="svg_77" class=""/><path d="M18.254412812635586,19.910324476875555 a0.27105638178881436,0.2530020725389405 0 0 0 0,0.5060041450778807 h0.021684510543105186 a0.2618404648079949,0.24440000207261664 0 0 0 0.2602141265172619,-0.2530020725389405 A0.280543355151423,0.2618571450778035 0 0 0 18.254412812635586,19.910324476875555 z" id="svg_78" class=""/><path d="M17.41955915672604,19.910324476875555 a0.27105638178881436,0.2530020725389405 0 0 0 0,0.5060041450778807 h0.021684510543105186 a0.2621115211897837,0.24465300414515564 0 0 0 0.2602141265172619,-0.2530020725389405 A0.280543355151423,0.2618571450778035 0 0 0 17.41955915672604,19.910324476875555 z" id="svg_79" class=""/><path d="M16.584705500816497,19.910324476875555 a0.27105638178881436,0.2530020725389405 0 0 0 0,0.5060041450778807 h0.021684510543105186 a0.2621115211897837,0.24465300414515564 0 0 0 0.2602141265172619,-0.2530020725389405 A0.280543355151423,0.2618571450778035 0 0 0 16.584705500816497,19.910324476875555 z" id="svg_80" class=""/><path d="M14.080144533087854,19.910324476875555 a0.27105638178881436,0.2530020725389405 0 0 0 0,0.5060041450778807 h0.021684510543105186 a0.2618404648079949,0.24440000207261664 0 0 0 0.2602141265172619,-0.2530020725389405 A0.28027229876963383,0.2616041430052645 0 0 0 14.080144533087854,19.910324476875555 z" id="svg_81" class=""/><path d="M8.363565441161755,17.64620892972458 a0.26129835204441726,0.24389399792753866 0 0 0 -0.0027105638178881466,-0.35040787046643257 a0.280543355151423,0.2618571450778035 0 0 0 -0.3908633025394705,0.0022770186528504686 a0.27105638178881436,0.2530020725389405 0 1 0 0.37812365259539604,0.3622989678757629 z" id="svg_82" class=""/><path d="M6.574322264973788,18.933989478947783 a0.280543355151423,0.2618571450778035 0 0 0 -0.3908633025394705,0.002530020725389408 A0.27105638178881436,0.2530020725389405 0 1 0 6.561582615029722,19.298818467548937 l0.015450213761962435,-0.014168116062180689 A0.2618404648079949,0.24440000207261664 0 0 0 6.574322264973788,18.933989478947783 z" id="svg_83" class=""/><path d="M6.777072438551821,18.39205903956937 a0.27105638178881436,0.2530020725389405 0 0 0 0.38191844194043945,0.35926294300529543 l0.015450213761962435,-0.014421118134719621 a0.2621115211897837,0.24465300414515564 0 0 0 -0.006234296781142741,-0.3506608725389717 A0.28027229876963383,0.2616041430052645 0 0 0 6.777072438551821,18.39205903956937 z" id="svg_84" class=""/><path d="M7.752604356609769,18.205849514180713 l0.015450213761962435,-0.013915113989641735 a0.2618404648079949,0.24440000207261664 0 0 0 -0.0027105638178881466,-0.3506608725389717 a0.28027229876963383,0.2616041430052645 0 0 0 -0.3908633025394705,0.002530020725389408 A0.27105638178881436,0.2530020725389405 0 1 0 7.752604356609769,18.205849514180713 z" id="svg_85" class=""/><path d="M9.35021067087304,16.64001968723721 a0.27105638178881436,0.2530020725389405 0 0 0 0.18973946725217025,-0.07185258860105913 l0.015721270143751253,-0.014168116062180689 a0.2618404648079949,0.24440000207261664 0 0 0 -0.0029816201996769637,-0.3506608725389717 a0.280543355151423,0.2618571450778035 0 0 0 -0.3908633025394705,0.002530020725389408 a0.27105638178881436,0.2530020725389405 0 0 0 0.18973946725217025,0.43415155647682185 z" id="svg_86" class=""/><path d="M8.56306293815832,16.75437662402481 a0.27105638178881436,0.2530020725389405 0 1 0 0.38327372384938346,0.3577449305700619 l0.015450213761962435,-0.014168116062180689 a0.2621115211897837,0.24465300414515564 0 0 0 -0.007860635071875628,-0.3506608725389717 A0.2800012423878452,0.2613511409327255 0 0 0 8.56306293815832,16.75437662402481 z" id="svg_87" class=""/><path d="M18.501887289208774,18.47833274630515 a0.2618404648079949,0.24440000207261664 0 0 0 -0.37568414515929704,0.007084058031090347 a0.28027229876963383,0.2616041430052645 0 0 0 0.00758957869008681,0.36482898860115237 a0.27105638178881436,0.2530020725389405 0 0 0 0.38327372384938346,-0.3577449305700619 z" id="svg_88" class=""/><path d="M19.10986675356108,19.399007288274355 A0.27105638178881436,0.2530020725389405 0 0 0 19.106614076979614,19.040756353559217 l-0.015179157380173615,-0.014168116062180689 a0.26265363395336117,0.24515900829023346 0 0 0 -0.3759552015410857,0.010373084974096572 a0.28027229876963383,0.2616041430052645 0 0 0 0.011113311653341403,0.36457598652861345 a0.27105638178881436,0.2530020725389405 0 0 0 0.38327372384938346,-0.0030360248704672885 z" id="svg_89" class=""/><path d="M17.925892477907542,17.942221354595137 L17.911255433290943,17.927547234387877 a0.26156940842620596,0.24414700000007766 0 0 0 -0.37568414515929704,0.007084058031090347 a0.28027229876963383,0.2616041430052645 0 0 0 0.00758957869008681,0.36482898860115237 a0.27105638178881436,0.2530020725389405 0 0 0 0.38327372384938346,-0.3577449305700619 z" id="svg_90" class=""/><path d="M16.13719141448316,16.27721471521637 a0.2621115211897837,0.24465300414515564 0 0 0 -0.37568414515929704,0.007337060103629281 a0.28027229876963383,0.2616041430052645 0 0 0 0.007860635071875628,0.36482898860115237 a0.27105638178881436,0.2530020725389405 0 0 0 0.38327372384938346,-0.3577449305700619 z" id="svg_91" class=""/><path d="M17.334989565607923,17.392194848895482 l-0.015450213761962435,-0.014421118134719621 a0.2621115211897837,0.24465300414515564 0 0 0 -0.37568414515929704,0.007084058031090347 A0.2808144115332119,0.2621101471503424 0 0 0 16.951715841758553,17.750445783610623 a0.27105638178881436,0.2530020725389405 0 0 0 0.38327372384938346,-0.3577449305700619 z" id="svg_92" class=""/><path d="M16.55190767862005,17.27378987894726 a0.27105638178881436,0.2530020725389405 0 0 0 0.19163686192469193,-0.4318745378239716 l-0.015179157380173615,-0.014421118134719621 a0.26238257757157235,0.24490600621769462 0 0 0 -0.37568414515929704,0.007084058031090347 a0.2808144115332119,0.2621101471503424 0 0 0 0.00758957869008681,0.3650819906736912 A0.27105638178881436,0.2530020725389405 0 0 0 16.55190767862005,17.27378987894726 z" id="svg_93" class=""/></g><path fill="" fill-opacity="1" stroke="none" stroke-opacity="1" stroke-width="1" stroke-dasharray="none" stroke-linejoin="miter" stroke-linecap="butt" stroke-dashoffset="" fill-rule="nonzero" opacity="1" marker-start="" marker-mid="" marker-end="" d="M9,8 C9,8 9,8 9,8 C9,8 9,8 9,8 C9,8 9,8 9,8 C9,8 9,8 9,8 Z" id="svg_99"/></g></svg>