<?xml version="1.0" encoding="UTF-8"?>
<svg xmlns="http://www.w3.org/2000/svg" xmlns:xlink="http://www.w3.org/1999/xlink" width="15px" height="15px" viewBox="0 0 15 15" version="1.1">
<g id="surface1">
<path style=" stroke:none;fill-rule:nonzero;fill:rgb(0%,0%,0%);fill-opacity:1;" d="M 13.125 11.71875 L 11.71875 11.71875 L 11.71875 10.269531 C 13.070312 10.039062 14.058594 8.871094 14.0625 7.5 C 14.0625 5.585938 13.46875 2.34375 11.25 2.34375 C 10.984375 2.34375 10.726562 2.394531 10.480469 2.496094 C 10.324219 2.5625 10.210938 2.703125 10.191406 2.871094 C 10.167969 3.039062 10.238281 3.207031 10.375 3.308594 C 10.511719 3.410156 10.691406 3.429688 10.847656 3.363281 C 10.972656 3.308594 11.113281 3.28125 11.25 3.28125 C 12.78125 3.28125 13.125 6.40625 13.125 7.5 C 13.121094 8.351562 12.542969 9.09375 11.71875 9.308594 L 11.71875 8.632812 L 12.519531 7.832031 C 12.695312 7.648438 12.695312 7.355469 12.511719 7.175781 C 12.332031 6.992188 12.039062 6.992188 11.855469 7.167969 L 11.71875 7.304688 L 11.71875 6.5625 C 11.71875 6.304688 11.507812 6.09375 11.25 6.09375 C 10.992188 6.09375 10.78125 6.304688 10.78125 6.5625 L 10.78125 9.429688 C 10.636719 9.511719 10.542969 9.664062 10.542969 9.832031 C 10.542969 9.996094 10.636719 10.152344 10.78125 10.230469 L 10.78125 11.71875 L 7.96875 11.71875 L 7.96875 10.273438 C 9.40625 10.039062 10.464844 8.800781 10.46875 7.34375 C 10.46875 5.3125 9.84375 1.875 7.5 1.875 C 5.15625 1.875 4.53125 5.3125 4.53125 7.34375 C 4.535156 8.800781 5.59375 10.039062 7.03125 10.273438 L 7.03125 11.71875 L 4.21875 11.71875 L 4.21875 10.230469 C 4.363281 10.152344 4.457031 10 4.457031 9.832031 C 4.457031 9.667969 4.363281 9.515625 4.21875 9.433594 L 4.21875 6.5625 C 4.21875 6.304688 4.007812 6.09375 3.75 6.09375 C 3.492188 6.09375 3.28125 6.304688 3.28125 6.5625 L 3.28125 7.304688 L 3.144531 7.167969 C 2.960938 6.992188 2.667969 6.992188 2.488281 7.175781 C 2.304688 7.355469 2.304688 7.648438 2.480469 7.832031 L 3.28125 8.632812 L 3.28125 9.308594 C 2.457031 9.09375 1.878906 8.351562 1.875 7.5 C 1.875 6.40625 2.21875 3.28125 3.75 3.28125 C 3.886719 3.28125 4.027344 3.308594 4.152344 3.363281 C 4.308594 3.429688 4.488281 3.410156 4.625 3.308594 C 4.761719 3.207031 4.832031 3.039062 4.808594 2.871094 C 4.789062 2.703125 4.675781 2.5625 4.519531 2.496094 C 4.273438 2.394531 4.015625 2.34375 3.75 2.34375 C 1.53125 2.34375 0.9375 5.585938 0.9375 7.5 C 0.941406 8.871094 1.929688 10.039062 3.28125 10.269531 L 3.28125 11.71875 L 1.875 11.71875 C 1.617188 11.71875 1.40625 11.929688 1.40625 12.1875 C 1.40625 12.445312 1.617188 12.65625 1.875 12.65625 L 13.125 12.65625 C 13.382812 12.65625 13.59375 12.445312 13.59375 12.1875 C 13.59375 11.929688 13.382812 11.71875 13.125 11.71875 Z M 5.46875 7.34375 C 5.46875 6.167969 5.84375 2.8125 7.5 2.8125 C 9.15625 2.8125 9.53125 6.167969 9.53125 7.34375 C 9.527344 8.285156 8.882812 9.097656 7.96875 9.316406 L 7.96875 8.632812 L 8.769531 7.832031 C 8.945312 7.648438 8.945312 7.355469 8.761719 7.175781 C 8.582031 6.992188 8.289062 6.992188 8.105469 7.167969 L 7.96875 7.304688 L 7.96875 6.09375 C 7.96875 5.835938 7.757812 5.625 7.5 5.625 C 7.242188 5.625 7.03125 5.835938 7.03125 6.09375 L 7.03125 6.835938 L 6.894531 6.699219 C 6.710938 6.523438 6.417969 6.523438 6.238281 6.707031 C 6.054688 6.886719 6.054688 7.179688 6.230469 7.363281 L 7.03125 8.164062 L 7.03125 9.316406 C 6.117188 9.097656 5.472656 8.285156 5.46875 7.34375 Z M 5.46875 7.34375 "/>
</g>
</svg>
