<svg xmlns="http://www.w3.org/2000/svg" xmlns:xlink="http://www.w3.org/1999/xlink" version="1.1" enable-background="new 0 0 64 64" xml:space="preserve" height="25.39325865813089" width="25.842696879641807"><rect id="backgroundrect" width="100%" height="100%" x="0" y="0" fill="none" stroke="none" style="" class=""/>

<g class="currentLayer" style=""><title>Layer 1</title><path fill="#ffffff" fill-opacity="1" stroke="#000000" stroke-opacity="1" stroke-width="1" stroke-dasharray="none" stroke-linejoin="miter" stroke-linecap="butt" stroke-dashoffset="" fill-rule="nonzero" opacity="1" marker-start="" marker-mid="" marker-end="" d="M0.23181188160582167,12.523228281011653 C0.23181188160582167,5.847254845762356 5.8049794788237925,0.43971636321042495 12.685433302549683,0.43971636321042495 C19.565887126275573,0.43971636321042495 25.139054723493544,5.847254845762356 25.139054723493544,12.523228281011653 C25.139054723493544,19.199201716260948 19.565887126275573,24.60674019881288 12.685433302549683,24.60674019881288 C5.8049794788237925,24.60674019881288 0.23181188160582167,19.199201716260948 0.23181188160582167,12.523228281011653 z" id="svg_19" class=""/><g id="castel_1_" class="">
	<path d="M21.346361718989336,10.117370036298814 H17.20459730564773 c-0.16330385401175473,0 -0.2958403152386863,0.13253663309292057 -0.2958403152386863,0.2958406988681254 v0.2958406988681254 h-1.7750418914321164 v-2.070884892076876 c0,-0.16330406577520523 -0.1325364612269316,-0.2958406988681254 -0.2958403152386863,-0.2958406988681254 h-0.12839469681358992 L13.062832892306126,5.597811679690464 v-0.8963973175704198 l2.174722157319581,-0.8156328067794216 C15.3529327725688,3.8425888133058796 15.429555414215615,3.732240232628072 15.429555414215615,3.608874661200061 s-0.07662264164681994,-0.23371415210581906 -0.1920003645899075,-0.27720273483943314 l-2.3667225219094896,-0.8875220966043754 C12.780009550937946,2.4104239900852864 12.678240482495834,2.422849299437749 12.598363597381388,2.4781715101260873 C12.518782552582183,2.5334937208144264 12.471152261828754,2.624316815366941 12.471152261828754,2.7213525645956858 v1.7750441932087506 v1.1014149218860296 L10.824505067210229,8.342325843090062 H10.696110370396637 c-0.16330385401175473,0 -0.2958403152386863,0.13253663309292057 -0.2958403152386863,0.2958406988681254 v2.070884892076876 h-1.7750418914321164 v-0.2958406988681254 c0,-0.16330406577520523 -0.1325364612269316,-0.2958406988681254 -0.2958403152386863,-0.2958406988681254 H4.187623435145544 c-0.16330385401175473,0 -0.2958403152386863,0.13253663309292057 -0.2958403152386863,0.2958406988681254 v2.3667255909450007 c0,0.16330406577520523 0.1325364612269316,0.2958406988681254 0.2958403152386863,0.2958406988681254 h0.2958403152386863 v6.804336073966876 c0,0.16330406577520523 0.1325364612269316,0.2958406988681254 0.2958403152386863,0.2958406988681254 h2.958403152386861 h3.254243467625547 h3.550083782864233 h3.254243467625547 h2.958403152386861 c0.16330385401175473,0 0.2958403152386863,-0.13253663309292057 0.2958403152386863,-0.2958406988681254 V13.075777024980063 h0.2958403152386863 c0.16330385401175473,0 0.2958403152386863,-0.13253663309292057 0.2958403152386863,-0.2958406988681254 v-2.3667255909450007 C21.642202034228024,10.249906669391734 21.509665573001083,10.117370036298814 21.346361718989336,10.117370036298814 zM13.062832892306126,3.1482506930623906 L14.291161881177153,3.608874661200061 L13.062832892306126,4.069498629337734 V3.1482506930623906 zM12.76699257706744,6.2548738718765735 L14.019580471788043,8.342325843090062 h-2.505175789441194 L12.76699257706744,6.2548738718765735 zM10.991950685635324,8.934007240826313 h0.5916806304773724 v0.8875220966043754 h0.5916806304773724 v-0.8875220966043754 h1.1833612609547448 v0.8875220966043754 h0.5916806304773724 v-0.8875220966043754 h0.5916806304773724 v1.7750441932087506 H10.991950685635324 V8.934007240826313 zM10.696110370396637,11.300732831771313 h4.141764413341606 h2.070882206670803 v0.5916813977362505 H11.583631316112696 v0.5916813977362505 h5.325125674296349 v0.2958406988681254 c0,0.16330406577520523 0.1325364612269316,0.2958406988681254 0.2958403152386863,0.2958406988681254 h0.2958403152386863 v5.325132579626251 h-2.662562837148175 v-2.6803167317452132 c0,-1.1321823545683154 -0.92095090133803,-2.053134450144788 -2.0531317877564814,-2.053134450144788 h-0.03550083782864242 C11.617061271734661,13.667458422716315 10.696110370396637,14.588410518292788 10.696110370396637,15.7205928728611 V18.400909604606316 h-2.662562837148175 V13.075777024980063 h0.2958403152386863 c0.16330385401175473,0 0.2958403152386863,-0.13253663309292057 0.2958403152386863,-0.2958406988681254 v-0.2958406988681254 h1.1833612609547448 v-0.5916813977362505 h-1.1833612609547448 v-0.5916813977362505 H10.696110370396637 zM17.500437620886416,18.992591002342568 v0.5916813977362505 h-2.662562837148175 v-0.5916813977362505 H17.500437620886416 zM4.48346375038423,10.709051434035063 h0.5916806304773724 v0.8875220966043754 h0.5916806304773724 v-0.8875220966043754 h1.1833612609547448 v0.8875220966043754 h0.5916806304773724 v-0.8875220966043754 h0.5916806304773724 v0.2958406988681254 v1.4792034943406251 h-0.2958403152386863 H4.779304065622917 H4.48346375038423 V10.709051434035063 zM7.441866902771091,13.075777024980063 v0.5916813977362505 H5.075144380861602 v-0.5916813977362505 H7.441866902771091 zM5.075144380861602,14.259139820452564 h2.3667225219094896 v5.325132579626251 H5.075144380861602 V14.259139820452564 zM8.033547533248463,18.992591002342568 h2.662562837148175 v0.5916813977362505 h-2.662562837148175 V18.992591002342568 zM11.287791000874009,15.7205928728611 c0,-0.710609358681238 0.5103245437867341,-1.3028824378152228 1.1833612609547448,-1.4333481860160662 V19.584272400078813 h-1.1833612609547448 V15.7205928728611 zM13.062832892306126,19.584272400078813 V14.287244686845035 c0.6730367171680113,0.1304657482008434 1.1833612609547448,0.7227388273348299 1.1833612609547448,1.4333481860160662 V19.584272400078813 H13.062832892306126 zM18.09211825136379,19.584272400078813 V14.259139820452564 h2.3667225219094896 v5.325132579626251 H18.09211825136379 zM20.45884077327328,13.667458422716315 h-2.3667225219094896 v-0.5916813977362505 h2.3667225219094896 V13.667458422716315 zM21.050521403750647,12.484095627243812 h-0.2958403152386863 H17.796277936125104 h-0.2958403152386863 v-1.4792034943406251 v-0.2958406988681254 h0.5916806304773724 v0.8875220966043754 h0.5916806304773724 v-0.8875220966043754 h1.1833612609547448 v0.8875220966043754 h0.5916806304773724 v-0.8875220966043754 h0.5916806304773724 V12.484095627243812 z" id="svg_1"/>
	<rect x="10.400269535150414" y="11.892413729736546" width="0.5916806250140887" height="0.5916813812716306" id="svg_2"/>
	<rect x="18.97963952080579" y="14.850821502538253" width="0.5916806250140887" height="0.5916813812716306" id="svg_3"/>
	<rect x="18.97963952080579" y="16.034183888366925" width="0.5916806250140887" height="0.5916813812716306" id="svg_4"/>
	<rect x="18.97963952080579" y="17.2175462741956" width="0.5916806250140887" height="0.5916813812716306" id="svg_5"/>
	<rect x="18.97963952080579" y="18.400909865510954" width="0.5916806250140887" height="0.5916813812716306" id="svg_6"/>
	<rect x="5.962665243095216" y="14.850821502538253" width="0.5916806250140887" height="0.5916813812716306" id="svg_7"/>
	<rect x="5.962665243095216" y="16.034183888366925" width="0.5916806250140887" height="0.5916813812716306" id="svg_8"/>
	<rect x="5.962665243095216" y="17.2175462741956" width="0.5916806250140887" height="0.5916813812716306" id="svg_9"/>
	<rect x="5.962665243095216" y="18.400909865510954" width="0.5916806250140887" height="0.5916813812716306" id="svg_10"/>
	<rect x="9.216908511151075" y="13.37161821888074" width="0.5916806250140887" height="0.5916813812716306" id="svg_11"/>
	<rect x="9.216908511151075" y="14.554980604709414" width="0.5916806250140887" height="0.5916813812716306" id="svg_12"/>
	<rect x="9.216908511151075" y="15.738342990538086" width="0.5916806250140887" height="0.5916813812716306" id="svg_13"/>
	<rect x="9.216908511151075" y="16.921706581853442" width="0.5916806250140887" height="0.5916813812716306" id="svg_14"/>
	<rect x="16.02123545394852" y="13.37161821888074" width="0.5916806250140887" height="0.5916813812716306" id="svg_15"/>
	<rect x="16.02123545394852" y="14.554980604709414" width="0.5916806250140887" height="0.5916813812716306" id="svg_16"/>
	<rect x="16.02123545394852" y="15.738342990538086" width="0.5916806250140887" height="0.5916813812716306" id="svg_17"/>
	<rect x="16.02123545394852" y="16.921706581853442" width="0.5916806250140887" height="0.5916813812716306" id="svg_18"/>
</g><path fill="" fill-opacity="1" stroke="none" stroke-opacity="1" stroke-width="1" stroke-dasharray="none" stroke-linejoin="miter" stroke-linecap="butt" stroke-dashoffset="" fill-rule="nonzero" opacity="1" marker-start="" marker-mid="" marker-end="" d="M11,7 C11,7 11,7 11,7 C11,7 11,7 11,7 C11,7 11,7 11,7 C11,7 11,7 11,7 Z" id="svg_23"/></g></svg>