<?xml version="1.0" encoding="UTF-8"?>
<svg xmlns="http://www.w3.org/2000/svg" xmlns:xlink="http://www.w3.org/1999/xlink" width="20px" height="20px" viewBox="0 0 20 20" version="1.1">
<g id="surface1">
<path style=" stroke:none;fill-rule:nonzero;fill:rgb(0%,0%,0%);fill-opacity:1;" d="M 17.5 15.625 L 15.625 15.625 L 15.625 13.695312 C 17.425781 13.386719 18.746094 11.828125 18.75 10 C 18.75 7.445312 17.960938 3.125 15 3.125 C 14.648438 3.125 14.300781 3.195312 13.976562 3.332031 C 13.765625 3.414062 13.617188 3.605469 13.585938 3.828125 C 13.558594 4.054688 13.652344 4.277344 13.832031 4.414062 C 14.015625 4.546875 14.253906 4.574219 14.460938 4.480469 C 14.632812 4.410156 14.816406 4.375 15 4.375 C 17.042969 4.375 17.5 8.539062 17.5 10 C 17.496094 11.136719 16.726562 12.128906 15.625 12.410156 L 15.625 11.507812 L 16.691406 10.441406 C 16.929688 10.195312 16.925781 9.808594 16.683594 9.566406 C 16.441406 9.324219 16.054688 9.320312 15.808594 9.558594 L 15.625 9.742188 L 15.625 8.75 C 15.625 8.40625 15.34375 8.125 15 8.125 C 14.65625 8.125 14.375 8.40625 14.375 8.75 L 14.375 12.574219 C 14.179688 12.679688 14.058594 12.886719 14.058594 13.109375 C 14.058594 13.332031 14.179688 13.535156 14.375 13.640625 L 14.375 15.625 L 10.625 15.625 L 10.625 13.695312 C 12.542969 13.386719 13.953125 11.734375 13.957031 9.792969 C 13.957031 7.082031 13.125 2.5 10 2.5 C 6.875 2.5 6.042969 7.082031 6.042969 9.792969 C 6.046875 11.734375 7.457031 13.386719 9.375 13.695312 L 9.375 15.625 L 5.625 15.625 L 5.625 13.644531 C 5.820312 13.539062 5.941406 13.332031 5.941406 13.113281 C 5.941406 12.890625 5.820312 12.6875 5.625 12.582031 L 5.625 8.75 C 5.625 8.40625 5.34375 8.125 5 8.125 C 4.65625 8.125 4.375 8.40625 4.375 8.75 L 4.375 9.742188 L 4.191406 9.558594 C 3.945312 9.320312 3.558594 9.324219 3.316406 9.566406 C 3.074219 9.808594 3.070312 10.195312 3.308594 10.441406 L 4.375 11.507812 L 4.375 12.410156 C 3.273438 12.128906 2.503906 11.136719 2.5 10 C 2.5 8.539062 2.957031 4.375 5 4.375 C 5.183594 4.375 5.367188 4.410156 5.539062 4.480469 C 5.746094 4.574219 5.984375 4.546875 6.167969 4.414062 C 6.347656 4.277344 6.441406 4.054688 6.414062 3.828125 C 6.382812 3.605469 6.234375 3.414062 6.023438 3.332031 C 5.699219 3.195312 5.351562 3.125 5 3.125 C 2.039062 3.125 1.25 7.445312 1.25 10 C 1.253906 11.828125 2.574219 13.386719 4.375 13.695312 L 4.375 15.625 L 2.5 15.625 C 2.15625 15.625 1.875 15.90625 1.875 16.25 C 1.875 16.59375 2.15625 16.875 2.5 16.875 L 17.5 16.875 C 17.84375 16.875 18.125 16.59375 18.125 16.25 C 18.125 15.90625 17.84375 15.625 17.5 15.625 Z M 7.292969 9.792969 C 7.292969 8.222656 7.789062 3.75 10 3.75 C 12.210938 3.75 12.707031 8.222656 12.707031 9.792969 C 12.707031 11.042969 11.84375 12.132812 10.625 12.421875 L 10.625 11.507812 L 11.691406 10.441406 C 11.929688 10.195312 11.925781 9.808594 11.683594 9.566406 C 11.441406 9.324219 11.054688 9.320312 10.808594 9.558594 L 10.625 9.742188 L 10.625 8.125 C 10.625 7.78125 10.34375 7.5 10 7.5 C 9.65625 7.5 9.375 7.78125 9.375 8.125 L 9.375 9.117188 L 9.191406 8.933594 C 8.945312 8.695312 8.558594 8.699219 8.316406 8.941406 C 8.074219 9.183594 8.070312 9.570312 8.308594 9.816406 L 9.375 10.882812 L 9.375 12.421875 C 8.15625 12.132812 7.292969 11.042969 7.292969 9.792969 Z M 7.292969 9.792969 "/>
</g>
</svg>
